<?xml version="1.0" encoding="utf-8"?>
<!-- Generator: Adobe Illustrator 17.0.0, SVG Export Plug-In . SVG Version: 6.00 Build 0)  -->
<!DOCTYPE svg PUBLIC "-//W3C//DTD SVG 1.1//EN" "http://www.w3.org/Graphics/SVG/1.1/DTD/svg11.dtd">
<svg version="1.1" id="Layer_1" xmlns="http://www.w3.org/2000/svg" xmlns:xlink="http://www.w3.org/1999/xlink" x="0px" y="0px"
	 width="125.16px" height="21px" viewBox="0 0 125.16 21" enable-background="new 0 0 125.16 21" xml:space="preserve">
<g>
	<path d="M12.715,1.899H6.991v18.716H5.697V1.899H0V0.798h12.715V1.899z"/>
	<path d="M24.85,20.615h-1.458l-1.789-6.028H14.86l-1.816,6.028h-1.431L18.218,0L24.85,20.615z M15.135,13.486h6.192l-3.11-9.963
		L15.135,13.486z"/>
	<path d="M32.309,12.165v-1.101h6.055V21h-1.293v-3.138h-0.056C36.41,19.815,34.456,21,32.419,21c-3.138,0-5.67-2.065-5.67-9.661
		c0-8.779,2.587-10.926,5.945-10.926c3.055,0,4.541,2.092,4.788,4.927h-1.376c0.083-1.981-1.128-3.825-3.274-3.825
		c-4.597,0-4.706,6.055-4.706,9.358c0,3.055,0.11,9.027,4.403,9.027c2.092,0,4.542-1.403,4.542-6.137v-1.596H32.309z"/>
	<path d="M53.086,0.798h1.431v19.816h-1.293V3.413h-0.055l-4.597,11.01l-4.596-11.01l-0.055,0.055v17.147h-1.293V0.798h1.431
		l4.513,10.898L53.086,0.798z"/>
	<path d="M71.442,20.615h-1.458l-1.789-6.028h-6.743l-1.816,6.028h-1.431L64.809,0L71.442,20.615z M61.726,13.486h6.192l-3.11-9.963
		L61.726,13.486z"/>
	<path d="M84.458,0.798v1.101l-8.532,17.614h9.192v1.102H74.384v-1.102l8.615-17.614h-8.311V0.798H84.458z"/>
	<path d="M95.659,1.899h-2.752v17.614h2.752v1.102h-6.798v-1.102h2.752V1.899h-2.752V0.798h6.798V1.899z"/>
	<path d="M101.162,2.587l-0.056,0.055v17.973h-1.293V0.798h1.872l6.742,16.981l0.055-0.055V0.798h1.294v20.009h-1.349L101.162,2.587
		z"/>
	<path d="M119.105,12.165v-1.101h6.055V21h-1.293v-3.138h-0.056c-0.605,1.953-2.559,3.138-4.596,3.138
		c-3.138,0-5.67-2.065-5.67-9.661c0-8.779,2.587-10.926,5.945-10.926c3.055,0,4.541,2.092,4.788,4.927h-1.376
		c0.083-1.981-1.128-3.825-3.274-3.825c-4.597,0-4.706,6.055-4.706,9.358c0,3.055,0.11,9.027,4.403,9.027
		c2.092,0,4.542-1.403,4.542-6.137v-1.596H119.105z"/>
</g>
</svg>
