<?xml version="1.0" standalone="no"?>
<!DOCTYPE svg PUBLIC "-//W3C//DTD SVG 1.1//EN" "http://www.w3.org/Graphics/SVG/1.1/DTD/svg11.dtd" >
<svg>
<metadata>
Created by FontForge 20090914 at Fri Aug  8 09:00:14 2014
 By www-data
Copyright (c) 2008 by Process Type Foundry. All rights reserved.
</metadata>
<defs>
<font id="Knowledge-Light" horiz-adv-x="550" >
  <font-face 
    font-family="Knowledge Light"
    font-weight="300"
    font-stretch="normal"
    units-per-em="1000"
    panose-1="2 11 5 6 4 0 0 2 0 4"
    ascent="775"
    descent="-225"
    x-height="472"
    cap-height="666"
    bbox="-122 -250.003 1112 950"
    underline-thickness="30"
    underline-position="-70"
    unicode-range="U+0020-U+FB02"
  />
<missing-glyph horiz-adv-x="647" 
d="M91 0h466v666h-466v-666zM120 25v616h408v-616h-408zM245 239l79 81l81 -81l14 14l-80 80l80 80l-14 14l-81 -81l-79 81l-14 -14l80 -80l-80 -80z" />
    <glyph glyph-name="fi" unicode="fi" horiz-adv-x="500" 
d="M286 667c-6.66699 2.66699 -15 4.83301 -25 6.5s-21.667 2.5 -35 2.5c-84 0 -126 -47.667 -126 -143v-61h-70v-45h70v-427h56v427h107v45h-107v60c0 36 6 61.5 18 76.5s32 22.5 60 22.5c7.33301 0 15.333 -0.666992 24 -2s16.667 -3.33301 24 -6zM348 597.999
c0 -11.333 3.83301 -21.5 11.5 -30.5s18.5 -13.5 32.5 -13.5c13.333 0 23.833 4.5 31.5 13.5s11.5 19.167 11.5 30.5c0 12 -3.83301 22.333 -11.5 31s-18.167 13 -31.5 13c-14 0 -24.833 -4.33301 -32.5 -13s-11.5 -19 -11.5 -31zM420 -0.000976562v472h-56v-472h56z" />
    <glyph glyph-name="fl" unicode="fl" horiz-adv-x="549" 
d="M287 667c-9.33301 3.33301 -18.499 5.66699 -27.499 7s-20.167 2 -33.5 2c-84 0 -126 -47.667 -126 -143v-61h-70v-45h70v-427h56v427h107v45h-107v60c0 36 6 61.5 18 76.5s32 22.5 60 22.5c7.33301 0 15.666 -0.666992 24.999 -2s17.333 -3.33301 24 -6z
M518.001 1.00098l-1.99805 43.999c-6.66699 -1.33301 -13.334 -2.5 -20.001 -3.5s-13.667 -1.5 -21 -1.5c-20.667 0 -34.834 5.83301 -42.501 17.5s-11.5 27.834 -11.5 48.501v560h-56v-559c0 -34 6.83301 -61.333 20.5 -82s38.5 -31 74.5 -31c11.333 0 22 0.666992 32 2
s18.667 3 26 5z" />
    <glyph glyph-name=".notdef" horiz-adv-x="647" 
d="M91 0h466v666h-466v-666zM120 25v616h408v-616h-408zM245 239l79 81l81 -81l14 14l-80 80l80 80l-14 14l-81 -81l-79 81l-14 -14l80 -80l-80 -80z" />
    <glyph glyph-name="space" unicode=" " horiz-adv-x="220" 
 />
    <glyph glyph-name="exclam" unicode="!" horiz-adv-x="234" 
d="M101 163h32l14 247v256h-60v-256zM71 40c0 -13.333 4 -24.333 12 -33s19.333 -13 34 -13s26 4.33301 34 13s12 19.667 12 33s-4 24.333 -12 33s-19.333 13 -34 13s-26 -4.33301 -34 -13s-12 -19.667 -12 -33z" />
    <glyph glyph-name="quotedbl" unicode="&#x22;" horiz-adv-x="371" 
d="M261 410h41l7 156v100h-55v-100zM70 410h40l7 156v100h-54v-100z" />
    <glyph glyph-name="numbersign" unicode="#" horiz-adv-x="636" 
d="M109 0h47l47 216h191l-47 -216h44l48 216h104l9 40h-105l38 173h103l9 40h-103l43 197h-44l-43 -197h-192l44 197h-47l-43 -197h-108l-10 -40h109l-38 -173h-107l-8 -40h107zM211 256l39 173h190l-38 -173h-191z" />
    <glyph glyph-name="dollar" unicode="$" horiz-adv-x="507" 
d="M53 45c24.667 -12 53.3369 -22.166 86.0039 -30.499s63.334 -13.5 92.001 -15.5v-112h54v112c54 4.66699 96.833 22.167 128.5 52.5s47.5 69.5 47.5 117.5c0 29.333 -5.5 54.166 -16.5 74.499s-25.833 37.666 -44.5 51.999s-40.167 26.833 -64.5 37.5s-49.5 21 -75.5 31
c-25.333 9.33301 -47.5 18.333 -66.5 27s-34.833 18 -47.5 28s-22.334 21.667 -29.001 35s-10 29.666 -10 48.999c0 40 13.167 70 39.5 90s65.166 30 116.499 30c31.333 0 60.666 -3.5 87.999 -10.5s53.666 -16.167 78.999 -27.5l11 45c-21.333 10 -44.5 18.333 -69.5 25
s-52.5 10.667 -82.5 12v112h-54v-112c-58.667 -4.66699 -103.834 -21.167 -135.501 -49.5s-47.5 -67.5 -47.5 -117.5c0 -47.333 16.5 -84.666 49.5 -111.999s79.5 -51 139.5 -71c26 -8.66699 49.333 -17.5 70 -26.5s38 -19.333 52 -31s24.667 -25 32 -40
s11 -32.833 11 -53.5c0 -40 -13.5 -70.5 -40.5 -91.5s-63.167 -31.5 -108.5 -31.5c-34.667 0 -68.167 4.33301 -100.5 13s-62.5 19.334 -90.5 32.001z" />
    <glyph glyph-name="percent" unicode="%" horiz-adv-x="787" 
d="M199 326c25.333 0 47.333 4.83301 66 14.5s34.167 22.5 46.5 38.5s21.5 34.5 27.5 55.5s9 43.167 9 66.5s-3 45.5 -9 66.5s-15.167 39.5 -27.5 55.5s-27.833 28.833 -46.5 38.5s-40.667 14.5 -66 14.5s-47.333 -4.83301 -66 -14.5s-34.167 -22.5 -46.5 -38.5
s-21.5 -34.5 -27.5 -55.5s-9 -43.167 -9 -66.5s3 -45.5 9 -66.5s15.167 -39.5 27.5 -55.5s27.833 -28.833 46.5 -38.5s40.667 -14.5 66 -14.5zM208 0h50l327 666h-50zM199 363c-34.667 0 -60.5 13.168 -77.5 39.501s-25.5 59.166 -25.5 98.499c0 40 8.5 72.833 25.5 98.5
s42.833 38.5 77.5 38.5c34 0 59.5 -12.833 76.5 -38.5s25.5 -58.5 25.5 -98.5s-8.5 -73 -25.5 -99s-42.5 -39 -76.5 -39zM445 165.001c0 -23.333 3 -45.5 9 -66.5s15.167 -39.5 27.5 -55.5s27.833 -28.833 46.5 -38.5s40.667 -14.5 66 -14.5s47.333 4.83301 66 14.5
s34.167 22.5 46.5 38.5s21.5 34.5 27.5 55.5s9 43.167 9 66.5s-3 45.5 -9 66.5s-15.167 39.5 -27.5 55.5s-27.833 28.833 -46.5 38.5s-40.667 14.5 -66 14.5s-47.333 -4.83301 -66 -14.5s-34.167 -22.5 -46.5 -38.5s-21.5 -34.5 -27.5 -55.5s-9 -43.167 -9 -66.5z
M491 165.001c0 39.333 8.5 72.166 25.5 98.499s42.833 39.5 77.5 39.5s60.334 -13.167 77.001 -39.5s25 -59.166 25 -98.499c0 -40 -8.33301 -72.833 -25 -98.5s-42.334 -38.5 -77.001 -38.5s-60.5 12.833 -77.5 38.5s-25.5 58.5 -25.5 98.5z" />
    <glyph glyph-name="ampersand" unicode="&#x26;" horiz-adv-x="623" 
d="M53 164c0 -26 4.66895 -49.8359 14.002 -71.5029s22.5 -40 39.5 -55s37.167 -26.667 60.5 -35s48.666 -12.5 75.999 -12.5c40.667 0 77.667 7.83301 111 23.5s63.333 36.834 90 63.501l68 -77h64l-100 114c24.667 32 45 67.333 61 106s28.333 78 37 118l-45 10
c-7.33301 -35.333 -18 -70.166 -32 -104.499s-31.333 -66.166 -52 -95.499l-184 210l56.5 44.5c17.667 14.333 33.167 29.166 46.5 44.499s23.833 31.833 31.5 49.5s11.5 37.167 11.5 58.5c0 18.667 -3.66699 35.334 -11 50.001s-17.166 27.334 -29.499 38.001
s-27 18.834 -44 24.501s-35.5 8.5 -55.5 8.5c-51.333 0 -91.5 -12.667 -120.5 -38s-43.5 -60 -43.5 -104c0 -17.333 2.66699 -33.833 8 -49.5s12.166 -30.5 20.499 -44.5s17.666 -27.333 27.999 -40l31.5 -37c-18 -12.667 -35.167 -25.334 -51.5 -38.001
s-31 -26.834 -44 -42.501s-23.333 -33 -31 -52s-11.5 -41.167 -11.5 -66.5zM250.002 32.9971c-46.667 0 -82.334 11.999 -107.001 35.999s-37 56.667 -37 98c0 20 3 37.5 9 52.5s14.333 28.833 25 41.5s22.834 24.334 36.501 35.001s28.5 21.667 44.5 33l193 -219
c-22 -23.333 -46.5 -42 -73.5 -56s-57.167 -21 -90.5 -21zM154.002 534.996c0 34 9.99707 58.8291 29.9971 74.4961s46.667 23.5 80 23.5c27.333 0 49.666 -7.16699 66.999 -21.5s26 -34.166 26 -59.499c0 -17.333 -3.16699 -33.166 -9.5 -47.499
s-15.166 -27.666 -26.499 -39.999s-24.666 -24.5 -39.999 -36.5s-31.666 -24 -48.999 -36l-27 31c-9.33301 10.667 -17.666 21.834 -24.999 33.501s-13.5 24 -18.5 37s-7.5 26.833 -7.5 41.5z" />
    <glyph glyph-name="quotesingle" unicode="'" horiz-adv-x="180" 
d="M70 410h40l7 156v100h-54v-100z" />
    <glyph glyph-name="parenleft" unicode="(" horiz-adv-x="287" 
d="M211 -160l41 26.9951c-22 36.667 -41.167 72.334 -57.5 107.001s-30 69.334 -41 104.001s-19.167 69.667 -24.5 105s-8 72.333 -8 111s2.66699 75.667 8 111s13.5 70.166 24.5 104.499s24.667 68.833 41 103.5s35.5 70.667 57.5 108l-41 27
c-24.667 -39.333 -46.167 -77.166 -64.5 -113.499s-33.5 -72.666 -45.5 -108.999s-21 -73.5 -27 -111.5s-9 -78 -9 -120s3 -82 9 -120s15 -75.167 27 -111.5s27.167 -72.666 45.5 -108.999s39.833 -74.166 64.5 -113.499z" />
    <glyph glyph-name="parenright" unicode=")" horiz-adv-x="287" 
d="M35 -133l41 -26.9951c24.667 39.333 46.167 77.166 64.5 113.499s33.5 72.666 45.5 108.999s21 73.5 27 111.5s9 78 9 120s-3 82 -9 120s-15 75.167 -27 111.5s-27.167 72.666 -45.5 108.999s-39.833 74.166 -64.5 113.499l-41 -27c22 -37.333 41.167 -73.333 57.5 -108
s30 -69.167 41 -103.5s19.167 -69.166 24.5 -104.499s8 -72.333 8 -111s-2.66699 -75.667 -8 -111s-13.5 -70.333 -24.5 -105s-24.667 -69.334 -41 -104.001s-35.5 -70.334 -57.5 -107.001z" />
    <glyph glyph-name="asterisk" unicode="*" horiz-adv-x="406" 
d="M178 328h50l-16 153l123 -93l25 42l-140 67l140 66l-25 43l-123 -93l16 153h-50l15 -153l-122 93l-25 -43l140 -66l-140 -67l25 -42l122 93z" />
    <glyph glyph-name="plus" unicode="+" horiz-adv-x="552" 
d="M250 93h52v207h193v46h-193v207h-52v-207h-193v-46h193v-207z" />
    <glyph glyph-name="comma" unicode="," horiz-adv-x="217" 
d="M89 94l-59 -228h43l83 228h-67z" />
    <glyph glyph-name="hyphen" unicode="-" horiz-adv-x="366" 
d="M66 266h234v47h-234v-47z" />
    <glyph glyph-name="period" unicode="." horiz-adv-x="242" 
d="M75 40c0 -13.333 4 -24.333 12 -33s19.333 -13 34 -13s26 4.33301 34 13s12 19.667 12 33s-4 24.333 -12 33s-19.333 13 -34 13s-26 -4.33301 -34 -13s-12 -19.667 -12 -33z" />
    <glyph glyph-name="slash" unicode="/" horiz-adv-x="433" 
d="M55 -100h55l273 776h-55z" />
    <glyph glyph-name="zero" unicode="0" horiz-adv-x="593" 
d="M296 -10c42.667 0 79.167 8.66699 109.5 26s55.333 41.166 75 71.499s34.167 66.5 43.5 108.5s14 87.667 14 137s-4.66699 95 -14 137s-23.833 78.167 -43.5 108.5s-44.667 54.166 -75 71.499s-66.833 26 -109.5 26c-42 0 -78.333 -8.66699 -109 -26
s-55.667 -41.166 -75 -71.499s-33.666 -66.5 -42.999 -108.5s-14 -87.667 -14 -137s4.66699 -95 14 -137s23.666 -78.167 42.999 -108.5s44.333 -54.166 75 -71.499s67 -26 109 -26zM296 36c-33.333 0 -61.833 7.5 -85.5 22.5s-42.834 35.667 -57.501 62
s-25.334 57.666 -32.001 93.999s-10 75.833 -10 118.5s3.33301 82.167 10 118.5s17.334 67.666 32.001 93.999s33.834 47 57.501 62s52.167 22.5 85.5 22.5c34 0 62.667 -7.5 86 -22.5s42.5 -35.667 57.5 -62s25.833 -57.666 32.5 -93.999s10 -75.833 10 -118.5
s-3.33301 -82.167 -10 -118.5s-17.5 -67.666 -32.5 -93.999s-34.167 -47 -57.5 -62s-52 -22.5 -86 -22.5z" />
    <glyph glyph-name="one" unicode="1" horiz-adv-x="325" 
d="M179 0h56v666h-51l-166 -34l8 -47l153 30v-615z" />
    <glyph glyph-name="two" unicode="2" horiz-adv-x="528" 
d="M53 0l417.001 -0.000976562v46h-360v11c0 28.667 4 53.334 12 74.001s19.833 39.5 35.5 56.5s35.167 33.167 58.5 48.5l81 51c25.333 15.333 49 30.5 71 45.5s41.167 31.167 57.5 48.5s29.166 36.5 38.499 57.5s14 45.167 14 72.5c0 52 -18.167 92.5 -54.5 121.5
s-87.833 43.5 -154.5 43.5c-37.333 0 -70.5 -3.5 -99.5 -10.5s-57.5 -17.167 -85.5 -30.5l14 -45c23.333 11.333 49 20.833 77 28.5s57 11.5 87 11.5c22.667 0 43.834 -2 63.501 -6s36.667 -10.833 51 -20.5s25.5 -22.167 33.5 -37.5s12 -34 12 -56
c0 -21.333 -3.5 -40 -10.5 -56s-17.333 -31.167 -31 -45.5s-30.334 -28.166 -50.001 -41.499s-42.5 -28 -68.5 -44c-34 -20.667 -64 -39.834 -90 -57.501s-47.833 -36.667 -65.5 -57s-31 -44 -40 -71s-13.5 -60.167 -13.5 -99.5v-38z" />
    <glyph glyph-name="three" unicode="3" horiz-adv-x="502" 
d="M43 31c29.333 -12.667 59.6689 -22.665 91.002 -29.998s62.666 -11 93.999 -11c32.667 0 62.667 4.33301 90 13s50.5 21 69.5 37s33.833 35.667 44.5 59s16 49.666 16 78.999c0 44 -13.167 79.667 -39.5 107s-61.833 46.333 -106.5 57
c43.333 12.667 76.666 34.667 99.999 66s35 66.666 35 105.999c0 52 -18.333 92 -55 120s-85 42 -145 42c-34 0 -64.833 -3.66699 -92.5 -11s-54.5 -17.666 -80.5 -30.999l14 -43c22.667 11.333 46.667 20.666 72 27.999s52.333 11 81 11c48 0 84.833 -11.333 110.5 -34
s38.5 -52 38.5 -88c0 -42 -14.667 -76.5 -44 -103.5s-71 -40.5 -125 -40.5h-97v-46h100c54 0 97.167 -12.667 129.5 -38s48.5 -59.333 48.5 -102c0 -44 -14.333 -78.667 -43 -104s-69.667 -38 -123 -38c-30 0 -59.5 3.83301 -88.5 11.5s-56.167 16.5 -81.5 26.5z" />
    <glyph glyph-name="four" unicode="4" horiz-adv-x="546" 
d="M37 183h336v-183h54v183h92v45h-92v438h-55l-335 -439v-44zM96 228l277 371v-371h-277z" />
    <glyph glyph-name="five" unicode="5" horiz-adv-x="545" 
d="M65 39c12.667 -7.33301 26.999 -13.834 42.999 -19.501s32.5 -10.834 49.5 -15.501s34.167 -8.16699 51.5 -10.5s34 -3.5 50 -3.5c39.333 0 73.833 5.66699 103.5 17s54.334 26.833 74.001 46.5s34.5 42.334 44.5 68.001s15 53.167 15 82.5
c0 30 -4.66699 57.833 -14 83.5s-22.666 47.834 -39.999 66.501s-38.833 33.167 -64.5 43.5s-54.5 15.5 -86.5 15.5c-32.667 0 -61.334 -3.83301 -86.001 -11.5s-47 -18.167 -67 -31.5v250h325v46h-380v-332l48 -16c20 13.333 41.667 24.833 65 34.5s51 14.5 83 14.5
c52 0 91.667 -15 119 -45s41 -69.667 41 -119c0 -48.667 -15 -88.667 -45 -120s-75 -47 -135 -47c-33.333 0 -64.833 4.33301 -94.5 13s-58.167 19 -85.5 31z" />
    <glyph glyph-name="six" unicode="6" horiz-adv-x="551" 
d="M58 282c0 -95.333 20.665 -167.835 61.998 -217.502s98 -74.5 170 -74.5c34.667 0 65.334 6 92.001 18s49.167 28.167 67.5 48.5s32.333 43.833 42 70.5s14.5 54.334 14.5 83.001c0 30 -4.66699 57.333 -14 82s-22.5 46 -39.5 64s-38 31.833 -63 41.5
s-52.833 14.5 -83.5 14.5c-48.667 0 -89.667 -10.5 -123 -31.5s-57 -49.5 -71 -85.5c0.666992 48.667 4.33398 93.5 11.001 134.5s18.167 76.5 34.5 106.5s38.333 53.333 66 70s63.167 25 106.5 25c28 0 53.667 -3.16699 77 -9.5s44.666 -13.833 63.999 -22.5l12 45
c-18 8.66699 -40 16.167 -66 22.5s-56 9.5 -90 9.5c-53.333 0 -97.166 -10.167 -131.499 -30.5s-61.833 -48.166 -82.5 -83.499s-35 -77 -43 -125s-12 -99.667 -12 -155zM117.998 212.998c0 21.333 4.49805 41.332 13.498 59.999s21.5 35 37.5 49s35 25 57 33
s45.667 12 71 12c49.333 0 87.5 -14.667 114.5 -44s40.5 -68 40.5 -116c0 -22 -3.33301 -43.5 -10 -64.5s-16.667 -39.5 -30 -55.5s-30.166 -28.833 -50.499 -38.5s-44.166 -14.5 -71.499 -14.5c-29.333 0 -54.833 5.16699 -76.5 15.5s-39.5 23.833 -53.5 40.5
s-24.5 35.834 -31.5 57.501s-10.5 43.5 -10.5 65.5z" />
    <glyph glyph-name="seven" unicode="7" horiz-adv-x="458" 
d="M96 0h58l280 620v46h-397v-46h342z" />
    <glyph glyph-name="eight" unicode="8" horiz-adv-x="560" 
d="M56 180c0 -25.333 4.83105 -49.5 14.498 -72.5s24 -43.167 43 -60.5s42.333 -31.166 70 -41.499s59.834 -15.5 96.501 -15.5s68.834 5.16699 96.501 15.5s51 24.166 70 41.499s33.333 37.5 43 60.5s14.5 47.167 14.5 72.5c0 41.333 -12.167 76.333 -36.5 105
s-57.5 49.667 -99.5 63c36 15.333 63.5 36.833 82.5 64.5s28.5 59.167 28.5 94.5c0 24.667 -4.66699 47.5 -14 68.5s-22.666 38.833 -39.999 53.5s-38.333 26.167 -63 34.5s-52 12.5 -82 12.5s-57.333 -4.16699 -82 -12.5s-45.834 -19.833 -63.501 -34.5
s-31.167 -32.5 -40.5 -53.5s-14 -43.833 -14 -68.5c0 -35.333 9.5 -66.833 28.5 -94.5s46.5 -49.167 82.5 -64.5c-42 -13.333 -75 -34.333 -99 -63s-36 -63.667 -36 -105zM279.998 366c-24 0 -45.1689 3.83301 -63.502 11.5s-33.666 17.667 -45.999 30
s-21.5 26.833 -27.5 43.5s-9 34 -9 52c0 38.667 13.333 69.834 40 93.501s62 35.5 106 35.5s79.333 -11.833 106 -35.5s40 -54.834 40 -93.501c0 -18 -3 -35.333 -9 -52s-15.167 -31.167 -27.5 -43.5s-27.666 -22.333 -45.999 -30s-39.5 -11.5 -63.5 -11.5zM109.996 182
c0 20 4 38.667 12 56s19.333 32.166 34 44.499s32.5 22.166 53.5 29.499s44.5 11 70.5 11s49.5 -3.66699 70.5 -11s38.833 -17.166 53.5 -29.499s25.834 -27.166 33.501 -44.499s11.5 -36 11.5 -56c0 -22 -4 -42.167 -12 -60.5s-19.333 -34 -34 -47s-32.334 -23 -53.001 -30
s-44 -10.5 -70 -10.5s-49.333 3.5 -70 10.5s-38.5 17 -53.5 30s-26.5 28.667 -34.5 47s-12 38.5 -12 60.5z" />
    <glyph glyph-name="nine" unicode="9" horiz-adv-x="551" 
d="M68 22c18.667 -8.66699 40.8311 -16.165 66.498 -22.498s55.834 -9.5 90.501 -9.5c52.667 0 96.334 10.167 131.001 30.5s62.167 48.166 82.5 83.499s34.5 77 42.5 125s12 99.667 12 155c0 95.333 -20 167.833 -60 217.5s-97.333 74.5 -172 74.5
c-35.333 0 -66.333 -6 -93 -18s-49.167 -28.167 -67.5 -48.5s-32.166 -43.833 -41.499 -70.5s-14 -54.334 -14 -83.001c0 -30 4.66699 -57.333 14 -82s22.5 -46 39.5 -64s37.833 -31.833 62.5 -41.5s52.667 -14.5 84 -14.5c48.667 0 89.667 10.5 123 31.5
s57.333 49.5 72 85.5c-0.666992 -48 -4.33398 -92.5 -11.001 -133.5s-18 -76.5 -34 -106.5s-38 -53.5 -66 -70.5s-63.667 -25.5 -107 -25.5c-28 0 -53.833 3.16699 -77.5 9.5s-45.167 13.833 -64.5 22.5zM253.997 299.002c-48.667 0 -86.665 14.667 -113.998 44
s-41 68 -41 116c0 22.667 3.33301 44.334 10 65.001s16.667 39 30 55s30.166 28.833 50.499 38.5s44.5 14.5 72.5 14.5c29.333 0 54.666 -5.16699 75.999 -15.5s39 -23.833 53 -40.5s24.5 -35.834 31.5 -57.501s10.5 -43.5 10.5 -65.5c0 -21.333 -4.5 -41.333 -13.5 -60
s-21.5 -35 -37.5 -49s-35 -25 -57 -33s-45.667 -12 -71 -12z" />
    <glyph glyph-name="colon" unicode=":" horiz-adv-x="234" 
d="M117 290c14.667 0 26 4.33301 34 13s12 19.667 12 33s-4 24.333 -12 33s-19.333 13 -34 13s-26 -4.33301 -34 -13s-12 -19.667 -12 -33s4 -24.333 12 -33s19.333 -13 34 -13zM71 40c0 -13.333 4 -24.333 12 -33s19.333 -13 34 -13s26 4.33301 34 13s12 19.667 12 33
s-4 24.333 -12 33s-19.333 13 -34 13s-26 -4.33301 -34 -13s-12 -19.667 -12 -33z" />
    <glyph glyph-name="semicolon" unicode=";" horiz-adv-x="241" 
d="M124 289c14.667 0 26.167 4.5 34.5 13.5s12.5 20.167 12.5 33.5s-4.16699 24.5 -12.5 33.5s-19.833 13.5 -34.5 13.5s-26.167 -4.5 -34.5 -13.5s-12.5 -20.167 -12.5 -33.5s4.16699 -24.5 12.5 -33.5s19.833 -13.5 34.5 -13.5zM86 94l-59 -228h43l83 228h-67z" />
    <glyph glyph-name="less" unicode="&#x3c;" horiz-adv-x="541" 
d="M49 302l438 -209v52l-379 178l379 178v52l-438 -209v-42z" />
    <glyph glyph-name="equal" unicode="=" horiz-adv-x="552" 
d="M57 406h438v46h-438v-46zM57 194h438v46h-438v-46z" />
    <glyph glyph-name="greater" unicode="&#x3e;" horiz-adv-x="541" 
d="M54 93l438 209v42l-438 209v-52l379 -178l-379 -178v-52z" />
    <glyph glyph-name="question" unicode="?" horiz-adv-x="433" 
d="M148 162l51 0.00195312v28c0 19.333 1 36.166 3 50.499s5.66699 27.5 11 39.5s12.666 23.333 21.999 34s21.333 22 36 34c17.333 14.667 33 28.667 47 42s25.833 27 35.5 41s17.167 29 22.5 45s8 34 8 54c0 48 -15.833 84.333 -47.5 109s-74.5 37 -128.5 37
c-31.333 0 -59.666 -3.16699 -84.999 -9.5s-48 -14.166 -68 -23.499l11 -43c19.333 9.33301 40.833 16.666 64.5 21.999s47.834 8 72.501 8c38 0 68.333 -8.5 91 -25.5s34 -42.5 34 -76.5c0 -16 -2.16699 -30.167 -6.5 -42.5s-10.666 -24.166 -18.999 -35.499
s-18.333 -22.5 -30 -33.5s-24.834 -22.5 -39.501 -34.5c-16 -13.333 -29.333 -26 -40 -38s-19.334 -24.833 -26.001 -38.5s-11.5 -29.334 -14.5 -47.001s-4.5 -38.834 -4.5 -63.501v-33zM127 40.002c0 -13.333 4 -24.333 12 -33s19.667 -13 35 -13
c14.667 0 26 4.33301 34 13s12 19.667 12 33s-4 24.333 -12 33s-19.333 13 -34 13c-15.333 0 -27 -4.33301 -35 -13s-12 -19.667 -12 -33z" />
    <glyph glyph-name="at" unicode="@" horiz-adv-x="774" 
d="M50 260c0 -49.333 7.49805 -94.332 22.498 -134.999s37 -75.834 66 -105.501s64.667 -52.667 107 -69s90.5 -24.5 144.5 -24.5c21.333 0 43.5 1.33301 66.5 4s45.667 6.66699 68 12s44 11.666 65 18.999s40.5 15.666 58.5 24.999l-13 36c-38 -18 -77 -32.167 -117 -42.5
s-81 -15.5 -123 -15.5c-47.333 0 -89.5 6.66699 -126.5 20s-68.5 32.833 -94.5 58.5s-45.833 56.834 -59.5 93.501s-20.5 78 -20.5 124c0 54 8.66699 102.167 26 144.5s40.833 78 70.5 107s63.834 51.167 102.501 66.5s79.667 23 123 23c39.333 0 75.5 -5.83301 108.5 -17.5
s61.333 -28.167 85 -49.5s42.167 -46.833 55.5 -76.5s20 -62.5 20 -98.5c0 -26.667 -3 -51.5 -9 -74.5s-14.333 -42.833 -25 -59.5s-23.667 -29.667 -39 -39s-32 -14 -50 -14c-25.333 0 -44 6.83301 -56 20.5s-18 31.834 -18 54.501c0 8.66699 1 19 3 31l26 151
c-12 5.33301 -26.333 9.66602 -43 12.999s-33 5 -49 5c-29.333 0 -54.833 -5.66699 -76.5 -17s-39.5 -26.666 -53.5 -45.999s-24.333 -41.666 -31 -66.999s-10 -52.333 -10 -81c0 -12.667 1.33301 -25 4 -37s6.83398 -22.667 12.501 -32s13.167 -16.833 22.5 -22.5
s20.666 -8.5 33.999 -8.5c27.333 0 51.333 10.167 72 30.5s37.334 46.5 50.001 78.5c0 -31.333 8.66699 -57.333 26 -78s44.666 -31 81.999 -31c26.667 0 50.667 5.83301 72 17.5s39.5 27.667 54.5 48s26.333 44 34 71s11.5 56.167 11.5 87.5c0 39.333 -7.33301 76 -22 110
s-35.5 63.5 -62.5 88.5s-59.667 44.667 -98 59s-81.166 21.5 -128.499 21.5c-52 0 -100.5 -8.83301 -145.5 -26.5s-84 -42.834 -117 -75.501s-58.833 -72.5 -77.5 -119.5s-28 -99.5 -28 -157.5zM339.998 175.001c-16.667 0 -27.499 6.16602 -32.499 18.499
s-7.5 27.5 -7.5 45.5c0 22 2.5 43.167 7.5 63.5s12.5 38.333 22.5 54s22.833 28.334 38.5 38.001s34.167 14.5 55.5 14.5c15.333 0 29.333 -2.33301 42 -7l-8 -44c-4 -24 -9.66699 -47 -17 -69s-16 -41.5 -26 -58.5s-21.333 -30.5 -34 -40.5s-26.334 -15 -41.001 -15z" />
    <glyph glyph-name="A" unicode="A" horiz-adv-x="609" 
d="M23 0h57l69 190h310l70 -190h57l-250 666h-62zM305 620l137 -381h-275z" />
    <glyph glyph-name="B" unicode="B" horiz-adv-x="596" 
d="M85 0l255.999 -0.000976562c31.333 0 60 4.33301 86 13s48.167 20.834 66.5 36.501s32.5 34.5 42.5 56.5s15 46.667 15 74c0 45.333 -13.667 81.5 -41 108.5s-62.666 44.167 -105.999 51.5c42 14 73.667 35.667 95 65s32 63 32 101c0 48 -15.5 86.667 -46.5 116
s-77.167 44 -138.5 44h-261v-666zM139.999 359.999v260h198c44 0 77.833 -11 101.5 -33s35.5 -51 35.5 -87c0 -19.333 -3.33301 -37.5 -10 -54.5s-16.5 -31.833 -29.5 -44.5s-28.833 -22.667 -47.5 -30s-40 -11 -64 -11h-184zM139.999 45.999l-0.000976562 268h187
c56.667 0 98.834 -12 126.501 -36s41.5 -56 41.5 -96c0 -39.333 -12.833 -71.833 -38.5 -97.5s-65.167 -38.5 -118.5 -38.5h-198z" />
    <glyph glyph-name="C" unicode="C" horiz-adv-x="594" 
d="M50 333c0 -51.333 7.5 -98.1699 22.5 -140.503s36.667 -78.666 65 -108.999s62.833 -53.833 103.5 -70.5s87 -25 139 -25c34 0 66.5 3 97.5 9s56.5 13.333 76.5 22l-9 47c-22 -8 -46.833 -14.667 -74.5 -20s-55.167 -8 -82.5 -8c-44 0 -83.333 6.83301 -118 20.5
s-64 33.167 -88 58.5s-42.5 56.333 -55.5 93s-19.5 77.667 -19.5 123s6.5 86.166 19.5 122.499s31.5 67.333 55.5 93s53.333 45.334 88 59.001s74 20.5 118 20.5c27.333 0 54.833 -2.66699 82.5 -8s52.5 -12 74.5 -20l9 47c-20 8.66699 -45.5 16 -76.5 22s-63.5 9 -97.5 9
c-52 0 -98.333 -8.33301 -139 -25s-75.167 -40.167 -103.5 -70.5s-50 -66.666 -65 -108.999s-22.5 -89.166 -22.5 -140.499z" />
    <glyph glyph-name="D" unicode="D" horiz-adv-x="667" 
d="M85 0l229 0.00195312c44 0 85 8.16699 123 24.5s70.667 39.166 98 68.499s48.833 64.333 64.5 105s23.5 85.667 23.5 135s-7.83301 94.333 -23.5 135s-37.167 75.667 -64.5 105s-60 52.166 -98 68.499s-79 24.5 -123 24.5h-229v-666zM143 50.002l0.000976562 566h169
c34 0 66.5 -6.5 97.5 -19.5s58 -31.667 81 -56s41.333 -54 55 -89s20.5 -74.5 20.5 -118.5s-6.83301 -83.5 -20.5 -118.5s-32 -64.667 -55 -89s-49.833 -43 -80.5 -56s-63.334 -19.5 -98.001 -19.5h-169z" />
    <glyph glyph-name="E" unicode="E" 
d="M85 0h415v49h-358v272h334v49h-334v247h358v49h-415v-666z" />
    <glyph glyph-name="F" unicode="F" horiz-adv-x="524" 
d="M85 0h57v297h330v49h-330v271h354v49h-411v-666z" />
    <glyph glyph-name="G" unicode="G" horiz-adv-x="648" 
d="M50 332c0 -50 7.33301 -96 22 -138s36.334 -78.333 65.001 -109s64 -54.5 106 -71.5s90 -25.5 144 -25.5c17.333 0 35 0.666992 53 2s35.5 3.16602 52.5 5.49902s33 5.16602 48 8.49902s28.5 7 40.5 11v274h-55v-237c-8 -2 -17.5 -4 -28.5 -6s-22.667 -3.66699 -35 -5
s-24.833 -2.5 -37.5 -3.5s-25 -1.5 -37 -1.5c-44.667 0 -84.5 6.83301 -119.5 20.5s-64.5 33.334 -88.5 59.001s-42.167 56.834 -54.5 93.501s-18.5 77.667 -18.5 123c0 46 6.5 87.333 19.5 124s31.833 67.667 56.5 93s54.667 44.833 90 58.5s75.333 20.5 120 20.5
c36 0 68.667 -2.83301 98 -8.5s57.666 -13.167 84.999 -22.5l9 48c-30 12 -61.167 20.5 -93.5 25.5s-66.5 7.5 -102.5 7.5c-54 0 -102.167 -8.33301 -144.5 -25s-77.833 -40.334 -106.5 -71.001s-50.5 -67.167 -65.5 -109.5s-22.5 -89.166 -22.5 -140.499z" />
    <glyph glyph-name="H" unicode="H" horiz-adv-x="663" 
d="M85 0h57v316h378v-316h58v666h-58v-299h-378v299h-57v-666z" />
    <glyph glyph-name="I" unicode="I" horiz-adv-x="237" 
d="M90 0h57v666h-57v-666z" />
    <glyph glyph-name="J" unicode="J" horiz-adv-x="361" 
d="M13 5c14 -4.66699 30.332 -8.33301 48.999 -11s36.334 -4 53.001 -4c56.667 0 98 15.667 124 47s39 73.333 39 126v503h-57v-504c0 -38 -8.16699 -68 -24.5 -90s-45.833 -33 -88.5 -33c-14.667 0 -29.5 1 -44.5 3s-29.167 5 -42.5 9z" />
    <glyph glyph-name="K" unicode="K" horiz-adv-x="564" 
d="M85 0h57v331l328 -331h75l-347 343l343 323h-74l-325 -311v311h-57v-666z" />
    <glyph glyph-name="L" unicode="L" horiz-adv-x="500" 
d="M85 0h391v49h-334v617h-57v-666z" />
    <glyph glyph-name="M" unicode="M" horiz-adv-x="776" 
d="M83 0h54v560l220 -476h61l220 476v-560h55v666h-58l-247 -534l-247 534h-58v-666z" />
    <glyph glyph-name="N" unicode="N" horiz-adv-x="682" 
d="M85 0h55v580l401 -580h56v666h-55v-580l-402 580h-55v-666z" />
    <glyph glyph-name="O" unicode="O" horiz-adv-x="689" 
d="M50 333c0 -47.333 6 -91.833 18 -133.5s30 -78.167 54 -109.5s54.5 -56.166 91.5 -74.499s80.5 -27.5 130.5 -27.5s93.5 9.16699 130.5 27.5s67.667 43.166 92 74.499s42.5 67.833 54.5 109.5s18 86.167 18 133.5s-6 91.833 -18 133.5s-30.167 78.167 -54.5 109.5
s-55 56.166 -92 74.499s-80.5 27.5 -130.5 27.5s-93.5 -9.16699 -130.5 -27.5s-67.5 -43.166 -91.5 -74.499s-42 -67.833 -54 -109.5s-18 -86.167 -18 -133.5zM344 37c-39.333 0 -73.833 7.33301 -103.5 22s-54.334 35 -74.001 61s-34.5 57.167 -44.5 93.5
s-15 76.166 -15 119.499s5 83.166 15 119.499s24.833 67.5 44.5 93.5s44.334 46.333 74.001 61s64.167 22 103.5 22c40 0 74.833 -7.33301 104.5 -22s54.334 -35 74.001 -61s34.334 -57.167 44.001 -93.5s14.5 -76.166 14.5 -119.499s-4.83301 -83.166 -14.5 -119.499
s-24.334 -67.5 -44.001 -93.5s-44.334 -46.333 -74.001 -61s-64.5 -22 -104.5 -22z" />
    <glyph glyph-name="P" unicode="P" horiz-adv-x="574" 
d="M85 0l57 0.000976562v282h194c33.333 0 62.833 5.16699 88.5 15.5s47 24.333 64 42s29.833 38.167 38.5 61.5s13 47.666 13 72.999c0 26 -4.33301 50.5 -13 73.5s-21.5 43.333 -38.5 61s-38.167 31.667 -63.5 42s-55 15.5 -89 15.5h-251v-666zM142 330.001v289h188
c48.667 0 86.167 -13.167 112.5 -39.5s39.5 -61.5 39.5 -105.5s-13 -79 -39 -105s-63.333 -39 -112 -39h-189z" />
    <glyph glyph-name="Q" unicode="Q" horiz-adv-x="689" 
d="M551 -102l41 23.999l-74 119c41.333 31.333 71.833 72.5 91.5 123.5s29.5 107.167 29.5 168.5c0 47.333 -6 91.833 -18 133.5s-30.167 78.167 -54.5 109.5s-55 56.166 -92 74.499s-80.5 27.5 -130.5 27.5s-93.5 -9.16699 -130.5 -27.5s-67.5 -43.166 -91.5 -74.499
s-42 -67.833 -54 -109.5s-18 -86.167 -18 -133.5s6 -91.833 18 -133.5s30 -78.167 54 -109.5s54.5 -56.166 91.5 -74.499s80.5 -27.5 130.5 -27.5c48.667 0 92.667 9.33301 132 28zM581 332.999c0 -54 -7.50098 -102.332 -22.501 -144.999s-37.833 -76.667 -68.5 -102
l-53 87l-38 -24l52 -89c-30.667 -15.333 -66.334 -23 -107.001 -23c-39.333 0 -73.833 7.33301 -103.5 22s-54.334 35 -74.001 61s-34.5 57.167 -44.5 93.5s-15 76.166 -15 119.499s5 83.166 15 119.499s24.833 67.5 44.5 93.5s44.334 46.333 74.001 61s64.167 22 103.5 22
c40 0 74.833 -7.33301 104.5 -22s54.334 -35 74.001 -61s34.334 -57.167 44.001 -93.5s14.5 -76.166 14.5 -119.499z" />
    <glyph glyph-name="R" unicode="R" horiz-adv-x="632" 
d="M554 479c0 26 -4.16699 50.499 -12.5 73.499s-21 42.833 -38 59.5s-38.5 29.834 -64.5 39.501s-56.333 14.5 -91 14.5h-263v-666h57v290h190l191 -290h65l-195 294c25.333 4.66699 48 12.667 68 24s36.833 25.333 50.5 42s24.167 35.167 31.5 55.5s11 41.5 11 63.5z
M496 478.999c0 -42 -13.333 -76.167 -40 -102.5s-64.667 -39.5 -114 -39.5h-200v282h200c50 0 88.167 -12.333 114.5 -37s39.5 -59 39.5 -103z" />
    <glyph glyph-name="S" unicode="S" horiz-adv-x="551" 
d="M510 167c0 29.333 -5.50195 54.3301 -16.502 74.9971s-26.333 38.334 -46 53.001s-43.5 27.167 -71.5 37.5s-59 20.5 -93 30.5c-30 8.66699 -56.333 17.334 -79 26.001s-41.334 18.334 -56.001 29.001s-25.667 23.167 -33 37.5s-11 31.5 -11 51.5
c0 46 15.333 78.167 46 96.5s74.334 27.5 131.001 27.5c35.333 0 69.333 -4 102 -12s63.334 -18.333 92.001 -31l11 47c-26.667 12.667 -57.167 23 -91.5 31s-72.166 12 -113.499 12c-74 0 -131.5 -14.167 -172.5 -42.5s-61.5 -72.166 -61.5 -131.499
c0 -44.667 16.333 -82.167 49 -112.5s88 -55.5 166 -75.5c32 -8 60 -16.333 84 -25s43.833 -18.667 59.5 -30s27.5 -24.833 35.5 -40.5s12 -34.834 12 -57.501c0 -21.333 -4.33301 -40 -13 -56s-20.667 -29.333 -36 -40s-33.666 -18.667 -54.999 -24s-44.666 -8 -69.999 -8
c-36.667 0 -73.834 4.66699 -111.501 14s-72.5 21 -104.5 35l-14 -47c34 -14 70.833 -25.667 110.5 -35s79.5 -14 119.5 -14c71.333 0 127.666 15.667 168.999 47s62 75.333 62 132z" />
    <glyph glyph-name="T" unicode="T" horiz-adv-x="516" 
d="M495 617v49h-475v-49h209v-617h58v617h208z" />
    <glyph glyph-name="U" unicode="U" horiz-adv-x="668" 
d="M585 666h-58v-446c0 -56.667 -16.833 -101.334 -50.5 -134.001s-81.167 -49 -142.5 -49s-109 16.333 -143 49s-51 77.334 -51 134.001v446h-57v-440c0 -31.333 5.16699 -61.333 15.5 -90s25.833 -54 46.5 -76s46.667 -39.5 78 -52.5s68.333 -19.5 111 -19.5
s79.667 6.5 111 19.5s57.333 30.5 78 52.5s36.167 47.333 46.5 76s15.5 58.667 15.5 90v440z" />
    <glyph glyph-name="V" unicode="V" horiz-adv-x="557" 
d="M246 0h65l233 666h-58l-207 -607l-208 607h-58z" />
    <glyph glyph-name="W" unicode="W" horiz-adv-x="837" 
d="M450 666h-63l-166 -580l-155 580h-56l185 -666h53l171 612l170 -612h53l185 666h-56l-155 -580z" />
    <glyph glyph-name="X" unicode="X" horiz-adv-x="584" 
d="M545 666h-61l-193 -288l-192 288h-60l222 -329l-228 -337h61l198 295l198 -295h60l-229 336z" />
    <glyph glyph-name="Y" unicode="Y" horiz-adv-x="542" 
d="M523 666h-60l-192 -341l-192 341h-60l224 -391v-275h57v275z" />
    <glyph glyph-name="Z" unicode="Z" horiz-adv-x="568" 
d="M516 0v49h-398l390 567v50h-438v-49h377l-390 -567v-50h459z" />
    <glyph glyph-name="bracketleft" unicode="[" horiz-adv-x="281" 
d="M252 -150v48h-106v792h106v48h-162v-888h162z" />
    <glyph glyph-name="backslash" unicode="\" horiz-adv-x="433" 
d="M323 -100h55l-273 776h-55z" />
    <glyph glyph-name="bracketright" unicode="]" horiz-adv-x="281" 
d="M191 -150v888h-162v-48h106v-792h-106v-48h162z" />
    <glyph glyph-name="asciicircum" unicode="^" horiz-adv-x="466" 
d="M257 666h-48l-161 -329h52l133 281l133 -281h51z" />
    <glyph glyph-name="underscore" unicode="_" horiz-adv-x="392" 
d="M393 -115v30h-394v-30h394z" />
    <glyph glyph-name="grave" unicode="`" horiz-adv-x="304" 
d="M172 541h48l-68 152h-65z" />
    <glyph glyph-name="a" unicode="a" horiz-adv-x="498" 
d="M425 0v332.999c0 50.667 -14.833 88.167 -44.5 112.5s-73.5 36.5 -131.5 36.5c-62 0 -116.667 -11.333 -164 -34l10 -45c48 21.333 97.333 32 148 32c42 0 73.5 -8.5 94.5 -25.5s31.5 -44.5 31.5 -82.5v-56h-152c-50 0 -90 -12 -120 -36s-45 -59.667 -45 -107
c0 -43.333 13.167 -77.166 39.5 -101.499s62.5 -36.5 108.5 -36.5c40.667 0 75.167 8.5 103.5 25.5s50.833 41.5 67.5 73.5v-89h54zM369 182.999c0 -18.667 -3.66699 -37.1689 -11 -55.502s-17.833 -34.666 -31.5 -48.999s-30.167 -25.833 -49.5 -34.5s-41 -13 -65 -13
c-38 0 -65 8.33301 -81 25s-24 40.334 -24 71.001c0 34 8.83301 59.5 26.5 76.5s47.5 25.5 89.5 25.5h146v-46z" />
    <glyph glyph-name="b" unicode="b" horiz-adv-x="537" 
d="M491 236c0 34 -3.66699 66 -11 96s-18.666 56.167 -33.999 78.5s-34.833 39.833 -58.5 52.5s-52.167 19 -85.5 19c-39.333 0 -73 -9.83301 -101 -29.5s-49.667 -47.167 -65 -82.5v296h-56v-666h54v102c15.333 -34.667 37.333 -62 66 -82s62.667 -30 102 -30
c33.333 0 61.833 6.5 85.5 19.5s43.167 30.5 58.5 52.5s26.666 48 33.999 78s11 62 11 96zM436 236c0 -28.667 -2.66699 -55.1631 -8 -79.4961s-13.833 -45.5 -25.5 -63.5s-26.5 -32 -44.5 -42s-40 -15 -66 -15s-48.833 5.66699 -68.5 17s-36 26.166 -49 44.499
s-22.667 39.5 -29 63.5s-9.5 49 -9.5 75s3.16699 51.167 9.5 75.5s16 45.666 29 63.999s29.333 33.166 49 44.499s42.5 17 68.5 17s48 -5 66 -15s32.833 -24 44.5 -42s20.167 -39.333 25.5 -64s8 -51.334 8 -80.001z" />
    <glyph glyph-name="c" unicode="c" horiz-adv-x="431" 
d="M395 455c-15.333 8.66699 -34.833 15.332 -58.5 19.999s-47.834 7 -72.501 7c-70.667 0 -124.834 -21.333 -162.501 -64s-56.5 -103.334 -56.5 -182.001s18.833 -139.334 56.5 -182.001s91.834 -64 162.501 -64c24.667 0 48.834 2.5 72.501 7.5s43.167 11.5 58.5 19.5
l-10 43c-15.333 -6.66699 -32.666 -12.167 -51.999 -16.5s-40.333 -6.5 -63 -6.5c-30.667 0 -56.667 4.83301 -78 14.5s-38.833 23.334 -52.5 41.001s-23.5 38.667 -29.5 63s-9 51.166 -9 80.499s3 56.333 9 81s15.833 45.834 29.5 63.501s31.167 31.334 52.5 41.001
s47.333 14.5 78 14.5c22.667 0 43.667 -2.16699 63 -6.5s36.666 -10.166 51.999 -17.499z" />
    <glyph glyph-name="d" unicode="d" horiz-adv-x="537" 
d="M45 236c0 -34 3.66699 -66 11 -96s18.666 -56 33.999 -78s34.833 -39.5 58.5 -52.5s52.167 -19.5 85.5 -19.5c40 0 74.167 10 102.5 30s50.5 47.333 66.5 82v-102h54v666h-56v-296c-15.333 35.333 -37 62.833 -65 82.5s-61.667 29.5 -101 29.5
c-33.333 0 -62 -6.33301 -86 -19s-43.667 -30.167 -59 -52.5s-26.666 -48.5 -33.999 -78.5s-11 -62 -11 -96zM101 236c0 28.667 2.66699 55.3301 8 79.9971s13.833 46 25.5 64s26.5 32 44.5 42s40 15 66 15s48.667 -5.66699 68 -17s35.5 -26.166 48.5 -44.499
s22.833 -39.666 29.5 -63.999s10 -49.5 10 -75.5s-3.33301 -51 -10 -75s-16.5 -45.167 -29.5 -63.5s-29.167 -33.166 -48.5 -44.499s-42 -17 -68 -17s-48 5 -66 15s-32.833 24 -44.5 42s-20.167 39.167 -25.5 63.5s-8 50.833 -8 79.5z" />
    <glyph glyph-name="e" unicode="e" horiz-adv-x="477" 
d="M435 219l0.00390625 44.998c0 30 -3.16699 58.333 -9.5 85s-16.5 49.834 -30.5 69.501s-32.5 35.167 -55.5 46.5s-51.167 17 -84.5 17c-35.333 0 -66 -5.83301 -92 -17.5s-47.833 -28.167 -65.5 -49.5s-30.834 -47.166 -39.501 -77.499s-13 -64.166 -13 -101.499
c0 -36 4.16699 -69 12.5 -99s21.333 -55.833 39 -77.5s40.667 -38.667 69 -51s62.5 -18.5 102.5 -18.5c32 0 62 3.33301 90 10s51.667 14.667 71 24l-9 39c-20 -8.66699 -42.5 -15.834 -67.5 -21.501s-51.167 -8.5 -78.5 -8.5c-31.333 0 -57.833 4.33301 -79.5 13
s-39.334 21.167 -53.001 37.5s-23.834 36 -30.501 59s-10.334 48.5 -11.001 76.5h335zM254.004 441.998c24 0 44.167 -4.33301 60.5 -13s29.5 -20.5 39.5 -35.5s17.167 -32.833 21.5 -53.5s6.5 -42.667 6.5 -66v-13h-281c6 120.667 57 181 153 181z" />
    <glyph glyph-name="f" unicode="f" horiz-adv-x="290" 
d="M291 666c-9.33301 3.33301 -19.166 5.83301 -29.499 7.5s-22.166 2.5 -35.499 2.5c-84 0 -126 -47.667 -126 -143v-61h-70v-45h70v-427h56v427h107v45h-107v60c0 36 6 61.5 18 76.5s32 22.5 60 22.5c7.33301 0 16.166 -0.666992 26.499 -2s19.166 -3.33301 26.499 -6z
" />
    <glyph glyph-name="g" unicode="g" horiz-adv-x="537" 
d="M457 472l-55.002 -0.000976562v-100c-15.333 36.667 -37.333 64.167 -66 82.5s-61.334 27.5 -98.001 27.5c-34.667 0 -64.167 -6.66699 -88.5 -20s-44.333 -31 -60 -53s-27 -47.333 -34 -76s-10.5 -58 -10.5 -88s3.5 -59.333 10.5 -88s18.333 -54 34 -76
s35.667 -39.667 60 -53s53.833 -20 88.5 -20c36 0 68.333 9.83301 97 29.5s50.667 46.834 66 81.501v-98c0 -23.333 -2.33301 -45 -7 -65s-12.667 -37.333 -24 -52s-27 -26.334 -47 -35.001s-45 -13 -75 -13c-25.333 0 -50.666 2.83301 -75.999 8.5
s-49.666 12.834 -72.999 21.501l-9 -43c22.667 -9.33301 48.167 -16.833 76.5 -22.5s55.5 -8.5 81.5 -8.5c40.667 0 74.334 5.66699 101.001 17s48 26.5 64 45.5s27.333 41.333 34 67s10 52.5 10 80.5v450zM400.998 244.999c0 -25.333 -3.33301 -49.5 -10 -72.5
s-16.334 -43.333 -29.001 -61s-28.334 -31.834 -47.001 -42.501s-40.334 -16 -65.001 -16c-25.333 0 -47.333 4.83301 -66 14.5s-34.167 23 -46.5 40s-21.666 37.333 -27.999 61s-9.5 49.167 -9.5 76.5c0 26.667 3.16699 51.834 9.5 75.501s15.666 44.167 27.999 61.5
s27.833 31 46.5 41s40.667 15 66 15c24.667 0 46.334 -5.33301 65.001 -16s34.334 -25 47.001 -43s22.334 -38.667 29.001 -62s10 -47.333 10 -72z" />
    <glyph glyph-name="h" unicode="h" horiz-adv-x="530" 
d="M455 0l-0.000976562 322c0 50 -12.167 89.167 -36.5 117.5s-63.166 42.5 -116.499 42.5c-40 0 -74 -10.5 -102 -31.5s-49.333 -49.5 -64 -85.5v301h-56v-666h56v250c0 28.667 4.16699 54.334 12.5 77.001s19.5 42 33.5 58s30.167 28.167 48.5 36.5s37.5 12.5 57.5 12.5
c38 0 66 -10.333 84 -31s27 -50.334 27 -89.001v-314h56z" />
    <glyph glyph-name="i" unicode="i" horiz-adv-x="216" 
d="M64 598c0 -11.333 3.83301 -21.5 11.5 -30.5s18.5 -13.5 32.5 -13.5c13.333 0 23.833 4.5 31.5 13.5s11.5 19.167 11.5 30.5c0 12 -3.83301 22.333 -11.5 31s-18.167 13 -31.5 13c-14 0 -24.833 -4.33301 -32.5 -13s-11.5 -19 -11.5 -31zM136 0v472h-56v-472h56z" />
    <glyph glyph-name="j" unicode="j" horiz-adv-x="216" 
d="M64 598c0 -11.333 3.83301 -21.5 11.5 -30.5s18.5 -13.5 32.5 -13.5c13.333 0 23.833 4.5 31.5 13.5s11.5 19.167 11.5 30.5c0 12 -3.83301 22.333 -11.5 31s-18.167 13 -31.5 13c-14 0 -24.833 -4.33301 -32.5 -13s-11.5 -19 -11.5 -31zM18 -141
c-7.33301 0 -15.167 0.499023 -23.5 1.49902s-16.5 2.83301 -24.5 5.5l-4 -45c8.66699 -3.33301 18.5 -5.66602 29.5 -6.99902s21.167 -2 30.5 -2c39.333 0 67.5 10.167 84.5 30.5s25.5 48.5 25.5 84.5v545h-56v-542c0 -21.333 -4.33301 -38.5 -13 -51.5
s-25 -19.5 -49 -19.5z" />
    <glyph glyph-name="k" unicode="k" horiz-adv-x="452" 
d="M367 0h68l-244 244l235 228h-68l-222 -217v411h-56v-666h56v233z" />
    <glyph glyph-name="l" unicode="l" horiz-adv-x="262" 
d="M231 1l-1.99805 43.999c-6.66699 -1.33301 -13.334 -2.5 -20.001 -3.5s-13.667 -1.5 -21 -1.5c-20.667 0 -34.834 5.83301 -42.501 17.5s-11.5 27.834 -11.5 48.501v560h-56v-559c0 -34 6.83301 -61.333 20.5 -82s38.5 -31 74.5 -31c11.333 0 22 0.666992 32 2
s18.667 3 26 5z" />
    <glyph glyph-name="m" unicode="m" horiz-adv-x="819" 
d="M440 0v258.997c0 27.333 3.66699 51.833 11 73.5s17.333 40 30 55s27.334 26.5 44.001 34.5s34.334 12 53.001 12c37.333 0 65.166 -10.167 83.499 -30.5s27.5 -50.166 27.5 -89.499v-314h56v322c0 48.667 -12.167 87.5 -36.5 116.5s-62.833 43.5 -115.5 43.5
c-40.667 0 -74.5 -11 -101.5 -33s-46.167 -50 -57.5 -84c-6 36 -20.667 64.5 -44 85.5s-57 31.5 -101 31.5c-38.667 0 -70.834 -10.667 -96.501 -32s-45.167 -50 -58.5 -86v108h-54v-472h56v250c0 28.667 3.5 54.334 10.5 77.001s16.667 42 29 58s27 28.167 44 36.5
s35.167 12.5 54.5 12.5c36.667 0 64.167 -10.167 82.5 -30.5s27.5 -50.166 27.5 -89.499v-314h56z" />
    <glyph glyph-name="n" unicode="n" horiz-adv-x="530" 
d="M455 0l-0.000976562 322c0 50 -12.167 89.167 -36.5 117.5s-63.166 42.5 -116.499 42.5c-41.333 0 -76 -10.667 -104 -32s-49.333 -50 -64 -86v108h-54v-472h56v250c0 28.667 4.16699 54.334 12.5 77.001s19.5 42 33.5 58s30.167 28.167 48.5 36.5s37.5 12.5 57.5 12.5
c38 0 66 -10.333 84 -31s27 -50.334 27 -89.001v-314h56z" />
    <glyph glyph-name="o" unicode="o" horiz-adv-x="504" 
d="M459 236c0 34.667 -4.33496 67 -13.002 97s-21.5 56 -38.5 78s-38.5 39.333 -64.5 52s-56.333 19 -91 19s-65 -6.33301 -91 -19s-47.5 -30 -64.5 -52s-29.833 -48 -38.5 -78s-13 -62.333 -13 -97s4.33301 -67 13 -97s21.667 -56 39 -78s38.833 -39.333 64.5 -52
s55.834 -19 90.501 -19s64.834 6.33301 90.501 19s47.167 30 64.5 52s30.333 48 39 78s13 62.333 13 97zM402.998 236c0 -60.667 -12.333 -109.167 -37 -145.5s-62.667 -54.5 -114 -54.5s-89.333 18.167 -114 54.5s-37 84.833 -37 145.5s12.333 109.334 37 146.001
s62.667 55 114 55s89.333 -18.333 114 -55s37 -85.334 37 -146.001z" />
    <glyph glyph-name="p" unicode="p" horiz-adv-x="537" 
d="M302 -10c33.333 0 61.833 6.5 85.5 19.5s43.167 30.5 58.5 52.5s26.666 48 33.999 78s11 62 11 96s-3.66699 66 -11 96s-18.666 56.167 -33.999 78.5s-34.833 39.833 -58.5 52.5s-52.167 19 -85.5 19c-39.333 0 -73.333 -9.83301 -102 -29.5s-50.667 -47.167 -66 -82.5
v102h-54v-650h56v280c15.333 -34.667 37 -62 65 -82s61.667 -30 101 -30zM292 36c-26 0 -48.833 5.6709 -68.5 17.0039s-36 26.166 -49 44.499s-22.667 39.5 -29 63.5s-9.5 49 -9.5 75s3.16699 51.167 9.5 75.5s16 45.666 29 63.999s29.333 33.166 49 44.499
s42.5 17 68.5 17s48 -5 66 -15s32.833 -24 44.5 -42s20.167 -39.333 25.5 -64s8 -51.334 8 -80.001s-2.66699 -55.167 -8 -79.5s-13.833 -45.5 -25.5 -63.5s-26.5 -32 -44.5 -42s-40 -15 -66 -15z" />
    <glyph glyph-name="q" unicode="q" horiz-adv-x="537" 
d="M45 236c0 -34 3.66699 -66 11 -96s18.666 -56 33.999 -78s35 -39.5 59 -52.5s52.667 -19.5 86 -19.5c39.333 0 73 10 101 30s49.667 47.333 65 82v-280h56v650h-54v-102c-16 35.333 -38.167 62.833 -66.5 82.5s-62.5 29.5 -102.5 29.5
c-33.333 0 -61.833 -6.33301 -85.5 -19s-43.167 -30.167 -58.5 -52.5s-26.666 -48.5 -33.999 -78.5s-11 -62 -11 -96zM101 236c0 28.667 2.66699 55.3301 8 79.9971s13.833 46 25.5 64s26.5 32 44.5 42s40 15 66 15s48.667 -5.66699 68 -17s35.5 -26.166 48.5 -44.499
s22.833 -39.666 29.5 -63.999s10 -49.5 10 -75.5s-3.33301 -51 -10 -75s-16.5 -45.167 -29.5 -63.5s-29.167 -33.166 -48.5 -44.499s-42 -17 -68 -17s-48 5 -66 15s-32.833 24 -44.5 42s-20.167 39.167 -25.5 63.5s-8 50.833 -8 79.5z" />
    <glyph glyph-name="r" unicode="r" horiz-adv-x="325" 
d="M324 424l0.000976562 48.999c-12 3.33301 -26.333 5 -43 5c-20.667 0 -39 -3.16699 -55 -9.5s-29.833 -14.833 -41.5 -25.5s-21.5 -23.334 -29.5 -38.001s-14.333 -30 -19 -46v113h-56v-472h57v249c0 22.667 3 44.834 9 66.501s15.167 40.667 27.5 57
s27.666 29.5 45.999 39.5s39.833 15 64.5 15c7.33301 0 14 -0.166992 20 -0.5s12.667 -1.16602 20 -2.49902z" />
    <glyph glyph-name="s" unicode="s" horiz-adv-x="415" 
d="M379 126c0 20.667 -3.66797 38.168 -11.001 52.501s-18 26.666 -32 36.999s-30.833 19.333 -50.5 27s-41.5 15.167 -65.5 22.5c-20.667 6 -38.667 11.667 -54 17s-28.166 11.333 -38.499 18s-18 14.667 -23 24s-7.5 21 -7.5 35c0 29.333 10 50 30 62s48 18 84 18
c25.333 0 49.833 -2.66699 73.5 -8s45.167 -12.333 64.5 -21l11 43c-19.333 8.66699 -41.5 15.667 -66.5 21s-52.5 8 -82.5 8c-54 0 -95.667 -10.5 -125 -31.5s-44 -53.5 -44 -97.5c0 -19.333 3.16699 -35.833 9.5 -49.5s16.333 -25.834 30 -36.501s30.667 -20 51 -28
s44.5 -16 72.5 -24c41.333 -11.333 71.5 -23.5 90.5 -36.5s28.5 -32.5 28.5 -58.5c0 -28 -9.5 -49.5 -28.5 -64.5s-47.167 -22.5 -84.5 -22.5c-26.667 0 -53 3.16699 -79 9.5s-51 14.833 -75 25.5l-14 -42c27.333 -11.333 55.5 -20.166 84.5 -26.499s56.833 -9.5 83.5 -9.5
c54 0 95.5 11.833 124.5 35.5s43.5 57.167 43.5 100.5z" />
    <glyph glyph-name="t" unicode="t" horiz-adv-x="325" 
d="M288 3l-3.00098 44.001c-15.333 -6 -33.666 -9 -54.999 -9c-25.333 0 -42.5 5.66699 -51.5 17s-13.5 27.666 -13.5 48.999v321h121v47h-121v126h-57v-126h-68v-47h68v-324c0 -34.667 8.33301 -61.5 25 -80.5s44.667 -28.5 84 -28.5c12 0 24.667 1 38 3
s24.333 4.66699 33 8z" />
    <glyph glyph-name="u" unicode="u" horiz-adv-x="525" 
d="M75 472v-321.998c0 -49.333 11.833 -88.333 35.5 -117s61.167 -43 112.5 -43c40.667 0 75.167 10.667 103.5 32s49.833 50 64.5 86v-108h54v472h-56v-250c0 -28.667 -4 -54.334 -12 -77.001s-19 -41.834 -33 -57.501s-30.167 -27.667 -48.5 -36s-37.5 -12.5 -57.5 -12.5
c-37.333 0 -64.5 10.333 -81.5 31s-25.5 50 -25.5 88v314h-56z" />
    <glyph glyph-name="v" unicode="v" horiz-adv-x="422" 
d="M211 57l-143 415h-58l171 -472h61l171 472h-59z" />
    <glyph glyph-name="w" unicode="w" horiz-adv-x="670" 
d="M365 472h-60l-125 -402l-114 402h-55l141 -472h54l130 421l128 -421h54l141 472h-55l-114 -402z" />
    <glyph glyph-name="x" unicode="x" horiz-adv-x="440" 
d="M403 472h-58l-125 -188l-125 188h-58l154 -228l-165 -244h57l137 205l137 -205h58l-166 245z" />
    <glyph glyph-name="y" unicode="y" horiz-adv-x="413" 
d="M208 60l-140 412h-58l170 -473l-61 -177h54l231 650h-59z" />
    <glyph glyph-name="z" unicode="z" horiz-adv-x="440" 
d="M398 0v46h-288l281 381v45h-328v-45h265l-280 -381v-46h350z" />
    <glyph glyph-name="braceleft" unicode="{" horiz-adv-x="292" 
d="M162 182c0 30.667 -6.33301 55.3301 -19 73.9971s-34 31.334 -64 38.001c30 6.66699 51.333 19.334 64 38.001s19 43.334 19 74.001v211c0 24.667 5.16699 43 15.5 55s27.5 18 51.5 18h41v48h-50c-36.667 0 -64.834 -9.5 -84.501 -28.5s-29.5 -48.5 -29.5 -88.5v-222
c0 -23.333 -6.16699 -42.833 -18.5 -58.5s-33.5 -23.5 -63.5 -23.5h-16v-46h16c30 0 51.167 -7.83301 63.5 -23.5s18.5 -35.167 18.5 -58.5v-222c0 -40 9.83301 -69.5 29.5 -88.5s47.834 -28.5 84.501 -28.5h50v48h-41c-24 0 -41.167 6 -51.5 18s-15.5 30.333 -15.5 55v211z
" />
    <glyph glyph-name="bar" unicode="|" horiz-adv-x="237" 
d="M143 -250v1000h-48v-1000h48z" />
    <glyph glyph-name="braceright" unicode="}" horiz-adv-x="292" 
d="M130 -29c0 -24.667 -5.33301 -42.9961 -16 -54.9961s-28 -18 -52 -18h-41v-48h50c36.667 0 65 9.5 85 28.5s30 48.5 30 88.5v222c0 23.333 6.16699 42.833 18.5 58.5s33.5 23.5 63.5 23.5h15v46h-15c-30 0 -51.167 7.83301 -63.5 23.5s-18.5 35.167 -18.5 58.5v222
c0 40 -10 69.5 -30 88.5s-48.333 28.5 -85 28.5h-50v-48h41c24 0 41.333 -6 52 -18s16 -30.333 16 -55v-211c0 -30.667 6.33301 -55.334 19 -74.001s34 -31.334 64 -38.001c-30 -6.66699 -51.333 -19.334 -64 -38.001s-19 -43.334 -19 -74.001v-211z" />
    <glyph glyph-name="asciitilde" unicode="~" horiz-adv-x="533" 
d="M483 375l-45.999 14l-10 -28c-3.33301 -9.33301 -7.5 -17.666 -12.5 -24.999s-11 -13.333 -18 -18s-15.833 -7 -26.5 -7c-12 0 -25.667 4 -41 12l-48.5 26c-17 9.33301 -34.667 18 -53 26s-36.5 12 -54.5 12c-32 0 -56.5 -8.83301 -73.5 -26.5s-31.833 -46.5 -44.5 -86.5
l46 -16l12 30.5c4 9.66699 8.5 18 13.5 25s11.333 12.5 19 16.5s17.5 6 29.5 6c14 0 29.167 -4 45.5 -12l50.5 -26c17.333 -9.33301 34.666 -18 51.999 -26s33.666 -12 48.999 -12c16 0 29.833 3.16699 41.5 9.5s21.834 14.666 30.501 24.999s16.167 22.5 22.5 36.5
s11.833 28.667 16.5 44z" />
    <glyph glyph-name="uni00A0" unicode="&#xa0;" horiz-adv-x="220" 
 />
    <glyph glyph-name="exclamdown" unicode="&#xa1;" horiz-adv-x="234" 
d="M71 436c0 -13.333 4 -24.333 12 -33s19.333 -13 34 -13s26 4.33301 34 13s12 19.667 12 33s-4 24.333 -12 33s-19.333 13 -34 13s-26 -4.33301 -34 -13s-12 -19.667 -12 -33zM133 313h-32l-14 -247v-244h60v244z" />
    <glyph glyph-name="cent" unicode="&#xa2;" horiz-adv-x="457" 
d="M237 -4l56 0.00292969v113c21.333 1.33301 41.666 4.33301 60.999 9s35.666 10.334 48.999 17.001l-10 43c-16.667 -6.66699 -34.834 -12.334 -54.501 -17.001s-41.167 -7 -64.5 -7c-29.333 0 -54.5 4.33301 -75.5 13s-38.167 21 -51.5 37s-23.166 35 -29.499 57
s-9.5 46.333 -9.5 73s3.16699 51 9.5 73s16.166 41 29.499 57s30.5 28.333 51.5 37s46.167 13 75.5 13c23.333 0 44.833 -2.33301 64.5 -7s37.834 -10.334 54.501 -17.001l10 43c-13.333 6 -29.666 11.5 -48.999 16.5s-39.666 8.16699 -60.999 9.5v111h-56v-112
c-59.333 -5.33301 -104.833 -27.333 -136.5 -66s-47.5 -91.334 -47.5 -158.001s15.833 -119.334 47.5 -158.001s77.167 -61 136.5 -67v-113z" />
    <glyph glyph-name="sterling" unicode="&#xa3;" horiz-adv-x="531" 
d="M58 291h111.999v-8c0 -52 -10.167 -96.833 -30.5 -134.5s-49.166 -72.5 -86.499 -104.5v-44h418v47h-351c28.667 27.333 53.5 60.5 74.5 99.5s31.5 84.5 31.5 136.5v8h188v46h-188v152c0 50 10.5 85.833 31.5 107.5s53.5 32.5 97.5 32.5c23.333 0 45.5 -2.33301 66.5 -7
s41.167 -10.667 60.5 -18l10 45c-18 8 -39.167 14.5 -63.5 19.5s-49.833 7.5 -76.5 7.5c-59.333 0 -104.5 -14.667 -135.5 -44s-46.5 -77.333 -46.5 -144v-151h-112v-46z" />
    <glyph glyph-name="currency" unicode="&#xa4;" horiz-adv-x="562" 
d="M395 491c-15.333 11.333 -32.668 20 -52.001 26s-40 9 -62 9s-42.667 -3 -62 -9s-36.666 -14.667 -51.999 -26l-87 87l-33 -32l84 -85c-17.333 -18.667 -30.666 -39 -39.999 -61s-14 -47.667 -14 -77s4.66699 -55.166 14 -77.499s22.666 -42.833 39.999 -61.5l-84 -84
l33 -32l87 86c32.667 -22.667 70.667 -34 114 -34s81.333 11.333 114 34l87 -86l33 32l-84 84c17.333 18.667 30.666 39.167 39.999 61.5s14 48.166 14 77.499s-4.66699 55 -14 77s-22.666 42.333 -39.999 61l84 85l-33 32zM125.998 323c0 22 3.66699 42.667 11 62
s17.666 36.5 30.999 51.5s29.5 26.833 48.5 35.5s40.5 13 64.5 13s45.5 -4.33301 64.5 -13s35.167 -20.5 48.5 -35.5s23.666 -32.167 30.999 -51.5s11 -40 11 -62s-3.66699 -42.667 -11 -62s-17.666 -36.5 -30.999 -51.5s-29.5 -26.833 -48.5 -35.5s-40.5 -13 -64.5 -13
s-45.5 4.33301 -64.5 13s-35.167 20.5 -48.5 35.5s-23.666 32.167 -30.999 51.5s-11 40 -11 62z" />
    <glyph glyph-name="yen" unicode="&#xa5;" horiz-adv-x="502" 
d="M58 176h165v-176h56v176h165v41h-165v49l37 81h128v43h-109l126 276h-57l-153 -351l-153 351h-57l125 -276h-108v-43h128l37 -81v-49h-165v-41z" />
    <glyph glyph-name="brokenbar" unicode="&#xa6;" horiz-adv-x="237" 
d="M143 750h-48v-394h48v394zM143 -250v394h-48v-394h48z" />
    <glyph glyph-name="section" unicode="&#xa7;" horiz-adv-x="517" 
d="M467 240c0 24 -5.66699 44.8369 -17 62.5039s-26.166 33.334 -44.499 47.001s-39 26 -62 37s-46.167 21.5 -69.5 31.5l-59 26c-17.333 8 -32 16.5 -44 25.5s-21.167 19.167 -27.5 30.5s-9.5 25.333 -9.5 42c0 34 12 57.5 36 70.5s58.667 19.5 104 19.5
c30 0 59.167 -3.33301 87.5 -10s53.166 -14.667 74.499 -24l10 44c-24.667 10.667 -51 19 -79 25s-59.333 9 -94 9c-66.667 0 -115.5 -11.833 -146.5 -35.5s-46.5 -56.834 -46.5 -99.501c0 -28.667 7.16699 -52.834 21.5 -72.501s35.166 -37.167 62.499 -52.5
c-12.667 -8 -25.167 -16.667 -37.5 -26s-23.166 -20 -32.499 -32s-17 -25.333 -23 -40s-9 -31.334 -9 -50.001c0 -22 3.66699 -41.667 11 -59s18.166 -32.833 32.499 -46.5s31.833 -26 52.5 -37s44.334 -21.833 71.001 -32.5l73.5 -30.5c21 -9 38.333 -18.5 52 -28.5
s24 -20.833 31 -32.5s10.5 -25.834 10.5 -42.501c0 -36 -13.5 -62.333 -40.5 -79s-62.833 -25 -107.5 -25c-28.667 0 -59.167 3.66699 -91.5 11s-62.833 17.666 -91.5 30.999l-14 -41c28.667 -14 60.5 -24.833 95.5 -32.5s69.5 -11.5 103.5 -11.5
c60.667 0 109.167 13.333 145.5 40s54.5 63 54.5 109c0 29.333 -7.66699 53.5 -23 72.5s-35.666 36.167 -60.999 51.5c12.667 8 25.167 17.5 37.5 28.5s23.166 23.167 32.499 36.5s16.833 27.5 22.5 42.5s8.5 30.833 8.5 47.5zM247 377.004l65.502 -27.9961
c20.333 -8.66699 37.833 -18.334 52.5 -29.001s26.167 -22.834 34.5 -36.501s12.5 -29.834 12.5 -48.501c0 -30 -8.83301 -55.833 -26.5 -77.5s-37.5 -39.167 -59.5 -52.5c-12.667 6 -25.167 11.5 -37.5 16.5s-25.166 10.5 -38.499 16.5c-24 10 -44.5 19.333 -61.5 28
s-30.833 18 -41.5 28s-18.334 21.167 -23.001 33.5s-7 27.166 -7 44.499c0 14.667 2.66699 28.167 8 40.5s12.166 23.5 20.499 33.5s17.666 19 27.999 27s20.5 15.333 30.5 22z" />
    <glyph glyph-name="dieresis" unicode="&#xa8;" horiz-adv-x="431" 
d="M261 606c0 -12 4 -22.167 12 -30.5s18.333 -12.5 31 -12.5s23 4.16699 31 12.5s12 18.5 12 30.5s-4 22 -12 30s-18.333 12 -31 12s-23 -4 -31 -12s-12 -18 -12 -30zM85 606c0 -12 4 -22.167 12 -30.5s18 -12.5 30 -12.5c13.333 0 23.833 4.16699 31.5 12.5
s11.5 18.5 11.5 30.5s-3.83301 22 -11.5 30s-18.167 12 -31.5 12c-12 0 -22 -4 -30 -12s-12 -18 -12 -30z" />
    <glyph glyph-name="copyright" unicode="&#xa9;" horiz-adv-x="779" 
d="M45 333c0 -47.333 8.33301 -91.833 25 -133.5s40 -78.167 70 -109.5s66.167 -56.166 108.5 -74.499s89.5 -27.5 141.5 -27.5s99.167 9.16699 141.5 27.5s78.5 43.166 108.5 74.499s53.333 67.833 70 109.5s25 86.167 25 133.5s-8.33301 92 -25 134s-40 78.667 -70 110
s-66.167 56 -108.5 74s-89.5 27 -141.5 27s-99.167 -9 -141.5 -27s-78.5 -42.667 -108.5 -74s-53.333 -68 -70 -110s-25 -86.667 -25 -134zM703 333c0 -43.333 -7.66699 -84.333 -23 -123s-36.666 -72.334 -63.999 -101.001s-60.166 -51.334 -98.499 -68.001
s-80.833 -25 -127.5 -25s-89.334 8.33301 -128.001 25s-71.667 39.334 -99 68.001s-48.666 62.334 -63.999 101.001s-23 79.667 -23 123s7.66699 84.333 23 123s36.666 72.334 63.999 101.001s60.333 51.334 99 68.001s81.334 25 128.001 25s89.167 -8.33301 127.5 -25
s71.166 -39.334 98.499 -68.001s48.666 -62.334 63.999 -101.001s23 -79.667 23 -123zM414 529c-30.667 0 -58 -4.83301 -82 -14.5s-44.167 -23.167 -60.5 -40.5s-28.666 -38 -36.999 -62s-12.5 -50.333 -12.5 -79s4.16699 -55 12.5 -79s20.666 -44.667 36.999 -62
s36.5 -30.833 60.5 -40.5s51.333 -14.5 82 -14.5c16.667 0 34.334 1.66699 53.001 5s34 8.33301 46 15l-8 34c-13.333 -5.33301 -27.333 -9.33301 -42 -12s-29.667 -4 -45 -4c-50 0 -87.667 14.333 -113 43s-38 67 -38 115s12.667 86.333 38 115s63 43 113 43
c15.333 0 30.333 -1.33301 45 -4s28.667 -6.66699 42 -12l8 34c-12 6.66699 -27.333 11.667 -46 15s-36.334 5 -53.001 5z" />
    <glyph glyph-name="ordfeminine" unicode="&#xaa;" horiz-adv-x="371" 
d="M305 357l0.00292969 219c0 34 -10.167 59.167 -30.5 75.5s-49.833 24.5 -88.5 24.5c-21.333 0 -41.5 -2 -60.5 -6s-35.167 -9.66699 -48.5 -17l7 -35c15.333 7.33301 31.166 12.833 47.499 16.5s33.166 5.5 50.499 5.5c27.333 0 47.666 -5.16699 60.999 -15.5
s20 -27.833 20 -52.5v-35h-99c-72.667 0 -109 -31.333 -109 -94c0 -28.667 8.5 -51.167 25.5 -67.5s41.167 -24.5 72.5 -24.5c28.667 0 52.667 6.5 72 19.5s33 28.833 41 47.5v-61h39zM263.003 488c0 -14 -2.49902 -27.332 -7.49902 -39.999s-11.833 -23.834 -20.5 -33.501
s-19.167 -17.5 -31.5 -23.5s-25.5 -9 -39.5 -9c-24 0 -41.5 5.16699 -52.5 15.5s-16.5 25.166 -16.5 44.499c0 22.667 6.16699 38.834 18.5 48.501s31.166 14.5 56.499 14.5h93v-17zM55.0039 256.001h262v36h-262v-36z" />
    <glyph glyph-name="guillemotleft" unicode="&#xab;" horiz-adv-x="541" 
d="M491 443h-63l-172 -203l172 -203h63l-171 203zM270 443h-63l-171 -203l171 -203h63l-171 203z" />
    <glyph glyph-name="logicalnot" unicode="&#xac;" horiz-adv-x="552" 
d="M495 93v253h-438v-46h386v-207h52z" />
    <glyph glyph-name="registered" unicode="&#xae;" horiz-adv-x="532" 
d="M50 463c0 -29.333 5.16699 -57 15.5 -83s25 -48.833 44 -68.5s41.667 -35.167 68 -46.5s55.833 -17 88.5 -17s62.334 5.66699 89.001 17s49.5 26.833 68.5 46.5s33.667 42.5 44 68.5s15.5 53.667 15.5 83c0 30 -5.16699 58 -15.5 84s-25 48.667 -44 68
s-41.833 34.666 -68.5 45.999s-56.334 17 -89.001 17s-62.167 -5.66699 -88.5 -17s-49 -26.666 -68 -45.999s-33.667 -42 -44 -68s-15.5 -54 -15.5 -84zM77 463c0 26 4.33301 50.667 13 74s21.334 43.666 38.001 60.999s36.5 31 59.5 41s49.167 15 78.5 15
c28.667 0 54.667 -5 78 -15s43.166 -23.667 59.499 -41s29 -37.666 38 -60.999s13.5 -48 13.5 -74s-4.5 -50.667 -13.5 -74s-21.667 -43.666 -38 -60.999s-36.166 -31 -59.499 -41s-49.333 -15 -78 -15c-29.333 0 -55.5 5 -78.5 15s-42.833 23.667 -59.5 41
s-29.334 37.666 -38.001 60.999s-13 48 -13 74zM349 516c0 20 -6.83301 35.499 -20.5 46.499s-31.5 16.5 -53.5 16.5h-77v-220h34v88h32l67 -88h42l-73 92c16 4.66699 28.167 12.834 36.5 24.501s12.5 25.167 12.5 40.5zM315 513.999c0 -26.667 -14.332 -40 -42.999 -40h-40
v77h41c13.333 0 23.666 -3.16699 30.999 -9.5s11 -15.5 11 -27.5z" />
    <glyph glyph-name="macron" unicode="&#xaf;" horiz-adv-x="410" 
d="M329 574v45h-248v-45h248z" />
    <glyph glyph-name="degree" unicode="&#xb0;" horiz-adv-x="330" 
d="M43 556c0 -16 2.66699 -31.167 8 -45.5s13.166 -27 23.499 -38s23 -19.833 38 -26.5s32.5 -10 52.5 -10s37.5 3.33301 52.5 10s27.667 15.5 38 26.5s18.166 23.667 23.499 38s8 29.5 8 45.5s-2.66699 31.167 -8 45.5s-13.166 27 -23.499 38s-23 19.833 -38 26.5
s-32.5 10 -52.5 10s-37.5 -3.33301 -52.5 -10s-27.667 -15.5 -38 -26.5s-18.166 -23.667 -23.499 -38s-8 -29.5 -8 -45.5zM82 556c0 23.333 6.83301 43.833 20.5 61.5s34.5 26.5 62.5 26.5s48.833 -8.83301 62.5 -26.5s20.5 -38.167 20.5 -61.5
c0 -22.667 -6.83301 -42.667 -20.5 -60s-34.5 -26 -62.5 -26s-48.833 8.66699 -62.5 26s-20.5 37.333 -20.5 60z" />
    <glyph glyph-name="plusminus" unicode="&#xb1;" horiz-adv-x="552" 
d="M495 0v45h-193v200h193v46h-193v208h-52v-208h-193v-46h193v-200h-193v-45h438z" />
    <glyph glyph-name="twosuperior" unicode="&#xb2;" horiz-adv-x="358" 
d="M299 390l-0.00292969 36.001h-200v4c0 14.667 2.5 27.5 7.5 38.5s12 21 21 30s19.667 17.333 32 25l41.5 25.5c14 8.66699 27.167 17.334 39.5 26.001s23.333 18 33 28s17.167 21.167 22.5 33.5s8 26.166 8 41.499c0 32 -10.667 56.167 -32 72.5s-51.333 24.5 -90 24.5
c-21.333 0 -41.166 -2.33301 -59.499 -7s-35.166 -10.667 -50.499 -18l10 -35c12.667 6.66699 27.167 12.334 43.5 17.001s33.166 7 50.499 7c24.667 0 44.834 -4.66699 60.501 -14s23.5 -25.666 23.5 -48.999c0 -21.333 -7.5 -39 -22.5 -53s-37.5 -30 -67.5 -48
c-17.333 -10.667 -33.166 -20.834 -47.499 -30.501s-26.5 -20.334 -36.5 -32.001s-17.667 -25.334 -23 -41.001s-8 -34.5 -8 -56.5v-25h244z" />
    <glyph glyph-name="threesuperior" unicode="&#xb3;" horiz-adv-x="347" 
d="M292 493c0 24.667 -7.16699 44.332 -21.5 58.999s-33.833 25.334 -58.5 32.001c24.667 8 43.167 20.833 55.5 38.5s18.5 37.167 18.5 58.5c0 28.667 -10 51.5 -30 68.5s-48.667 25.5 -86 25.5c-20.667 0 -39.834 -2.33301 -57.501 -7s-33.167 -10.667 -46.5 -18l11 -33
c12.667 6 26.167 11.167 40.5 15.5s29.5 6.5 45.5 6.5c25.333 0 44.833 -5.83301 58.5 -17.5s20.5 -27.167 20.5 -46.5c0 -21.333 -7.66699 -38.833 -23 -52.5s-38 -20.5 -68 -20.5h-54v-37h55c30 0 53.667 -6.33301 71 -19s26 -30.334 26 -53.001s-7.66699 -40.5 -23 -53.5
s-37 -19.5 -65 -19.5c-16.667 0 -33.167 2 -49.5 6s-32.166 9.33301 -47.499 16l-9 -33c16 -7.33301 33.667 -13.166 53 -17.499s38 -6.5 56 -6.5c40 0 71.333 10 94 30s34 46 34 78z" />
    <glyph glyph-name="acute" unicode="&#xb4;" horiz-adv-x="304" 
d="M85 541h47l86 152h-66z" />
    <glyph glyph-name="mu" unicode="&#xb5;" horiz-adv-x="566" 
d="M80 472l-0.00195312 -649.999h56v110c0 19.333 -1.33301 37.333 -4 54s-7.66699 33 -15 49c10.667 -13.333 25.667 -24.166 45 -32.499s40.666 -12.5 63.999 -12.5c42 0 77.5 11 106.5 33s51.167 51 66.5 87c0 -16 1.66699 -31 5 -45s8.83301 -26.333 16.5 -37
s17.334 -19 29.001 -25s25.834 -9 42.501 -9c8 0 15.333 0.666992 22 2s12.334 2.66602 17.001 3.99902v36h-17c-14 0 -25.167 2.33301 -33.5 7s-14.833 11.334 -19.5 20.001s-7.66699 18.667 -9 30s-2 24 -2 38v341h-56v-250c0 -28.667 -4.16699 -54.334 -12.5 -77.001
s-19.333 -41.834 -33 -57.501s-29.667 -27.667 -48 -36s-37.5 -12.5 -57.5 -12.5c-37.333 0 -64.5 10.333 -81.5 31s-25.5 50 -25.5 88v314h-56z" />
    <glyph glyph-name="paragraph" unicode="&#xb6;" horiz-adv-x="522" 
d="M442 -140l0.00292969 806h-179c-30 0 -58.833 -5.33301 -86.5 -16s-51.834 -26 -72.501 -46s-37.167 -44.333 -49.5 -73s-18.5 -61 -18.5 -97c0 -33.333 5.16699 -64 15.5 -92s25.166 -52.5 44.499 -73.5s43.166 -37.333 71.499 -49s60.5 -17.5 96.5 -17.5v423h130v-765
h48z" />
    <glyph glyph-name="periodcentered" unicode="&#xb7;" horiz-adv-x="242" 
d="M75 273c0 -13.333 4 -24.333 12 -33s19.333 -13 34 -13s26 4.33301 34 13s12 19.667 12 33s-4 24.333 -12 33s-19.333 13 -34 13s-26 -4.33301 -34 -13s-12 -19.667 -12 -33z" />
    <glyph glyph-name="cedilla" unicode="&#xb8;" horiz-adv-x="307" 
d="M223 -110c0 20.667 -8.33105 35.498 -24.998 44.498s-37.334 14.833 -62.001 17.5l10 48h-37l-20 -76l31 -4c10 -1.33301 19 -3.33301 27 -6s14.333 -6.16699 19 -10.5s7 -10.166 7 -17.499s-2.5 -13.166 -7.5 -17.499s-11.5 -7.83301 -19.5 -10.5
s-17.333 -4.66699 -28 -6s-21.667 -2.33301 -33 -3l3 -37c18.667 0.666992 36.167 2.66699 52.5 6s30.666 8 42.999 14s22 13.667 29 23s10.5 21 10.5 35z" />
    <glyph glyph-name="onesuperior" unicode="&#xb9;" horiz-adv-x="233" 
d="M178 393v377h-38l-95 -19l4 -37l86 16v-337h43z" />
    <glyph glyph-name="ordmasculine" unicode="&#xba;" horiz-adv-x="385" 
d="M330 513c0 23.333 -2.83301 45 -8.5 65s-14.167 37.167 -25.5 51.5s-25.666 25.666 -42.999 33.999s-37.666 12.5 -60.999 12.5s-43.5 -4.16699 -60.5 -12.5s-31.167 -19.666 -42.5 -33.999s-19.833 -31.5 -25.5 -51.5s-8.5 -41.667 -8.5 -65s2.83301 -44.833 8.5 -64.5
s14.167 -36.834 25.5 -51.501s25.5 -26 42.5 -34s37.167 -12 60.5 -12s43.666 4 60.999 12s31.666 19.333 42.999 34s19.833 31.834 25.5 51.501s8.5 41.167 8.5 64.5zM288 513c0 -38 -7.83301 -68.833 -23.5 -92.5s-39.834 -35.5 -72.501 -35.5
c-32 0 -55.833 11.833 -71.5 35.5s-23.5 54.5 -23.5 92.5c0 38.667 7.83301 69.834 23.5 93.501s39.5 35.5 71.5 35.5c32.667 0 56.834 -11.833 72.501 -35.5s23.5 -54.834 23.5 -93.501zM64 256h257v36h-257v-36z" />
    <glyph glyph-name="guillemotright" unicode="&#xbb;" horiz-adv-x="541" 
d="M334 443h-63l171 -203l-171 -203h63l172 203zM113 443h-62l170 -203l-170 -203h62l172 203z" />
    <glyph glyph-name="onequarter" unicode="&#xbc;" horiz-adv-x="745" 
d="M554 666h-48l-351 -666h49zM188 289v377h-38l-95 -19l4 -37l86 16v-337h43zM691 100v34h-52v244h-44l-187 -244v-34h189v-100h42v100h52zM597 134h-147l147 197v-197z" />
    <glyph glyph-name="onehalf" unicode="&#xbd;" horiz-adv-x="782" 
d="M554 666h-48l-351 -666h49zM188 289v377h-38l-95 -19l4 -37l86 16v-337h43zM722 0l0.000976562 36.001h-199v4c0 14.667 2.5 27.5 7.5 38.5s12 21 21 30s19.667 17.333 32 25l41.5 25.5c14 8.66699 27.167 17.334 39.5 26.001s23.166 18 32.499 28
s16.666 21.167 21.999 33.5s8 26.166 8 41.499c0 32 -10.667 56.167 -32 72.5s-51.333 24.5 -90 24.5c-21.333 0 -41.166 -2.33301 -59.499 -7s-35.166 -10.667 -50.499 -18l10 -35c13.333 6.66699 28.166 12.334 44.499 17.001s33.166 7 50.499 7
c24.667 0 44.834 -4.66699 60.501 -14s23.5 -25.666 23.5 -48.999c0 -21.333 -7.5 -39 -22.5 -53s-37.5 -30 -67.5 -48c-18 -10.667 -34.167 -20.834 -48.5 -30.501s-26.5 -20.334 -36.5 -32.001s-17.667 -25.334 -23 -41.001s-8 -34.5 -8 -56.5v-25h244z" />
    <glyph glyph-name="threequarters" unicode="&#xbe;" horiz-adv-x="790" 
d="M292 389c0 24.667 -7.16699 44.332 -21.5 58.999s-33.833 25.334 -58.5 32.001c24.667 8 43.167 20.833 55.5 38.5s18.5 37.167 18.5 58.5c0 28.667 -10 51.5 -30 68.5s-48.667 25.5 -86 25.5c-20.667 0 -39.834 -2.33301 -57.501 -7s-33.167 -10.667 -46.5 -18l11 -33
c12.667 6 26.167 11.167 40.5 15.5s29.5 6.5 45.5 6.5c25.333 0 44.833 -5.83301 58.5 -17.5s20.5 -27.167 20.5 -46.5c0 -21.333 -7.66699 -38.833 -23 -52.5s-38 -20.5 -68 -20.5h-54v-37h55c30 0 53.667 -6.33301 71 -19s26 -30.334 26 -53.001s-7.66699 -40.5 -23 -53.5
s-37 -19.5 -65 -19.5c-16.667 0 -33.167 2 -49.5 6s-32.166 9.33301 -47.499 16l-9 -33c16 -7.33301 33.667 -13.166 53 -17.499s38 -6.5 56 -6.5c40 0 71.333 10 94 30s34 46 34 78zM599 665.998h-48l-351 -666h48zM735 99.998v34h-51v244h-44l-188 -244v-34h190v-100h42
v100h51zM642 133.998h-147l147 197v-197z" />
    <glyph glyph-name="questiondown" unicode="&#xbf;" horiz-adv-x="433" 
d="M312 436c0 13.333 -4 24.333 -12 33s-19.333 13 -34 13c-15.333 0 -27 -4.33301 -35 -13s-12 -19.667 -12 -33s4 -24.333 12 -33s19.667 -13 35 -13c14.667 0 26 4.33301 34 13s12 19.667 12 33zM55 -46c0 -46.667 15.667 -81.998 47 -105.998s74 -36 128 -36
c30 0 58.167 3.16699 84.5 9.5s49.5 14.166 69.5 23.499l-10 45c-22 -9.33301 -44.667 -17 -68 -23s-46.666 -9 -69.999 -9c-38.667 0 -69.167 8.16699 -91.5 24.5s-33.5 41.166 -33.5 74.499c0 15.333 2.16699 29 6.5 41s10.666 23.333 18.999 34s18.333 21.334 30 32.001
l38.5 34c16 13.333 29.333 26 40 38s19.5 25 26.5 39s12 29.833 15 47.5s4.5 38.834 4.5 63.501v33h-52v-29c0 -20 -1 -37 -3 -51s-5.66699 -26.833 -11 -38.5s-12.666 -22.834 -21.999 -33.501s-21.333 -22.334 -36 -35.001c-17.333 -14.667 -32.833 -28.5 -46.5 -41.5
s-25.334 -26.333 -35.001 -40s-17.167 -28.167 -22.5 -43.5s-8 -33 -8 -53z" />
    <glyph glyph-name="Agrave" unicode="&#xc0;" horiz-adv-x="609" 
d="M23 0h57l69 190h310l70 -190h57l-250 666h-62zM305 620l137 -381h-275zM322 731l-88 132h-70l108 -132h50z" />
    <glyph glyph-name="Aacute" unicode="&#xc1;" horiz-adv-x="609" 
d="M23 0h57l69 190h310l70 -190h57l-250 666h-62zM305 620l137 -381h-275zM444 863h-70l-88 -132h50z" />
    <glyph glyph-name="Acircumflex" unicode="&#xc2;" horiz-adv-x="609" 
d="M23 0h57l69 190h310l70 -190h57l-250 666h-62zM305 620l137 -381h-275zM333 863h-56l-112 -132h55l85 102l85 -102h56z" />
    <glyph glyph-name="Atilde" unicode="&#xc3;" horiz-adv-x="609" 
d="M23 0h57l69 190h310l70 -190h57l-250 666h-62zM305 620l137 -381h-275zM421 833c-4.66699 -11.333 -9.66602 -21.9971 -14.999 -31.9971s-15.333 -15 -30 -15c-8 0 -17.5 2.33301 -28.5 7s-22.5 10 -34.5 16s-24.167 11.333 -36.5 16s-24.5 7 -36.5 7
c-25.333 0 -44 -7 -56 -21s-22 -32.667 -30 -56l39 -15c6 13.333 11.667 24.666 17 33.999s15.666 14 30.999 14c10 0 20.5 -2.33301 31.5 -7s22.5 -9.83398 34.5 -15.501s24 -10.834 36 -15.501s24 -7 36 -7c21.333 0 38.333 7.33301 51 22s22.667 32.667 30 54z" />
    <glyph glyph-name="Adieresis" unicode="&#xc4;" horiz-adv-x="609" 
d="M23 0h57l69 190h310l70 -190h57l-250 666h-62zM305 620l137 -381h-275zM356 795c0 -12.667 4 -22.834 12 -30.501s18.333 -11.5 31 -11.5s23 3.83301 31 11.5s12 17.834 12 30.501c0 12 -4 22 -12 30s-18.333 12 -31 12s-23 -4 -31 -12s-12 -18 -12 -30zM168 795
c0 -12.667 3.83301 -22.834 11.5 -30.501s17.834 -11.5 30.501 -11.5c13.333 0 23.833 3.83301 31.5 11.5s11.5 17.834 11.5 30.501c0 12 -3.83301 22 -11.5 30s-18.167 12 -31.5 12c-12.667 0 -22.834 -4 -30.501 -12s-11.5 -18 -11.5 -30z" />
    <glyph glyph-name="Aring" unicode="&#xc5;" horiz-adv-x="609" 
d="M392 727c0 22 -7.33203 40.667 -21.999 56s-36.334 23 -65.001 23c-29.333 0 -51.166 -7.66699 -65.499 -23s-21.5 -34 -21.5 -56c0 -17.333 4.16699 -32.333 12.5 -45s21.166 -21.334 38.499 -26.001l-246 -656h57l69 190h310l70 -190h57l-247 656
c17.333 4.66699 30.5 13.334 39.5 26.001s13.5 27.667 13.5 45zM252.001 727c0 16.667 4.66699 29.5 14 38.5s22.333 13.5 39 13.5s29.667 -4.5 39 -13.5s14 -21.833 14 -38.5c0 -15.333 -4.66699 -27.333 -14 -36s-22.333 -13 -39 -13s-29.667 4.33301 -39 13
s-14 20.667 -14 36zM305.001 620l137 -381h-275z" />
    <glyph glyph-name="AE" unicode="&#xc6;" horiz-adv-x="835" 
d="M784 666h-510l-251 -666h57l70 190h309l70 -190h255v49h-219l-100 272h295v49h-313l-90 247h427v49zM305 617l137 -378h-275z" />
    <glyph glyph-name="Ccedilla" unicode="&#xc7;" horiz-adv-x="594" 
d="M455 -110c0 20.667 -8.33203 35.4961 -24.999 44.4961s-37.334 14.833 -62.001 17.5l7 36h5c34 0 66.5 3 97.5 9s56.5 13.333 76.5 22l-9 47c-22 -8 -46.833 -14.667 -74.5 -20s-55.167 -8 -82.5 -8c-44 0 -83.333 6.83301 -118 20.5s-64 33.167 -88 58.5
s-42.5 56.333 -55.5 93s-19.5 77.667 -19.5 123s6.5 86.166 19.5 122.499s31.5 67.333 55.5 93s53.333 45.334 88 59.001s74 20.5 118 20.5c27.333 0 54.833 -2.66699 82.5 -8s52.5 -12 74.5 -20l9 47c-20 8.66699 -45.5 16 -76.5 22s-63.5 9 -97.5 9
c-52 0 -98.333 -8.33301 -139 -25s-75.167 -40.167 -103.5 -70.5s-50 -66.666 -65 -108.999s-22.5 -89.166 -22.5 -140.499c0 -48 6.5 -92 19.5 -132s31.833 -75 56.5 -105s54.834 -54.167 90.501 -72.5s76.167 -29.5 121.5 -33.5l-17 -66l31 -4
c10 -1.33301 19 -3.33301 27 -6s14.333 -6.16699 19 -10.5s7 -10.166 7 -17.499s-2.5 -13.166 -7.5 -17.499s-11.5 -7.83301 -19.5 -10.5s-17.333 -4.66699 -28 -6s-21.667 -2.33301 -33 -3l3 -37c18.667 0.666992 36.167 2.66699 52.5 6s30.666 8 42.999 14
s22 13.667 29 23s10.5 21 10.5 35z" />
    <glyph glyph-name="Egrave" unicode="&#xc8;" 
d="M337 731l-88 132h-70l108 -132h50zM85 0h415v49h-358v272h334v49h-334v247h358v49h-415v-666z" />
    <glyph glyph-name="Eacute" unicode="&#xc9;" 
d="M85 0h415v49h-358v272h334v49h-334v247h358v49h-415v-666zM410 863h-70l-88 -132h50z" />
    <glyph glyph-name="Ecircumflex" unicode="&#xca;" 
d="M323 863h-56l-112 -132h55l85 102l85 -102h56zM85 0h415v49h-358v272h334v49h-334v247h358v49h-415v-666z" />
    <glyph glyph-name="Edieresis" unicode="&#xcb;" 
d="M85 0h415v49h-358v272h334v49h-334v247h358v49h-415v-666zM348 795c0 -12.667 4 -22.834 12 -30.501s18.333 -11.5 31 -11.5s23 3.83301 31 11.5s12 17.834 12 30.501c0 12 -4 22 -12 30s-18.333 12 -31 12s-23 -4 -31 -12s-12 -18 -12 -30zM160 795
c0 -12.667 3.83301 -22.834 11.5 -30.501s17.834 -11.5 30.501 -11.5c13.333 0 23.833 3.83301 31.5 11.5s11.5 17.834 11.5 30.501c0 12 -3.83301 22 -11.5 30s-18.167 12 -31.5 12c-12.667 0 -22.834 -4 -30.501 -12s-11.5 -18 -11.5 -30z" />
    <glyph glyph-name="Igrave" unicode="&#xcc;" horiz-adv-x="237" 
d="M90 0h57v666h-57v-666zM144 731l-88 132h-70l108 -132h50z" />
    <glyph glyph-name="Iacute" unicode="&#xcd;" horiz-adv-x="237" 
d="M90 0h57v666h-57v-666zM253 863h-70l-88 -132h50z" />
    <glyph glyph-name="Icircumflex" unicode="&#xce;" horiz-adv-x="237" 
d="M90 0h57v666h-57v-666zM148 863h-56l-112 -132h55l85 102l85 -102h56z" />
    <glyph glyph-name="Idieresis" unicode="&#xcf;" horiz-adv-x="237" 
d="M90 0h57v666h-57v-666zM171 795c0 -12.667 4 -22.834 12 -30.501s18.333 -11.5 31 -11.5s23 3.83301 31 11.5s12 17.834 12 30.501c0 12 -4 22 -12 30s-18.333 12 -31 12s-23 -4 -31 -12s-12 -18 -12 -30zM-17 795c0 -12.667 3.83301 -22.834 11.5 -30.501
s17.834 -11.5 30.501 -11.5c13.333 0 23.833 3.83301 31.5 11.5s11.5 17.834 11.5 30.501c0 12 -3.83301 22 -11.5 30s-18.167 12 -31.5 12c-12.667 0 -22.834 -4 -30.501 -12s-11.5 -18 -11.5 -30z" />
    <glyph glyph-name="Eth" unicode="&#xd0;" horiz-adv-x="685" 
d="M31 309l72 0.00195312v-309h229c44 0 85 8.16699 123 24.5s70.667 39.166 98 68.499s48.833 64.333 64.5 105s23.5 85.667 23.5 135s-7.83301 94.333 -23.5 135s-37.167 75.667 -64.5 105s-60 52.166 -98 68.499s-79 24.5 -123 24.5h-229v-308h-72v-49zM584 333.002
c0 -44 -6.83203 -83.5 -20.499 -118.5s-32 -64.667 -55 -89s-49.833 -43 -80.5 -56s-63.334 -19.5 -98.001 -19.5h-169v259h209v49h-209v258h169c34 0 66.5 -6.5 97.5 -19.5s58 -31.667 81 -56s41.333 -54 55 -89s20.5 -74.5 20.5 -118.5z" />
    <glyph glyph-name="Ntilde" unicode="&#xd1;" horiz-adv-x="682" 
d="M456 833c-4.66699 -11.333 -9.66602 -21.9971 -14.999 -31.9971s-15.333 -15 -30 -15c-8 0 -17.5 2.33301 -28.5 7s-22.5 10 -34.5 16s-24.167 11.333 -36.5 16s-24.5 7 -36.5 7c-25.333 0 -44 -7 -56 -21s-22 -32.667 -30 -56l39 -15c6 13.333 11.667 24.666 17 33.999
s15.666 14 30.999 14c10 0 20.5 -2.33301 31.5 -7s22.5 -9.83398 34.5 -15.501s24 -10.834 36 -15.501s24 -7 36 -7c21.333 0 38.333 7.33301 51 22s22.667 32.667 30 54zM85.001 0.00292969h55v580l401 -580h56v666h-55v-580l-402 580h-55v-666z" />
    <glyph glyph-name="Ograve" unicode="&#xd2;" horiz-adv-x="689" 
d="M376 731l-88 132h-70l108 -132h50zM50 333c0 -47.333 6 -91.833 18 -133.5s30 -78.167 54 -109.5s54.5 -56.166 91.5 -74.499s80.5 -27.5 130.5 -27.5s93.5 9.16699 130.5 27.5s67.667 43.166 92 74.499s42.5 67.833 54.5 109.5s18 86.167 18 133.5s-6 91.833 -18 133.5
s-30.167 78.167 -54.5 109.5s-55 56.166 -92 74.499s-80.5 27.5 -130.5 27.5s-93.5 -9.16699 -130.5 -27.5s-67.5 -43.166 -91.5 -74.499s-42 -67.833 -54 -109.5s-18 -86.167 -18 -133.5zM344 37c-39.333 0 -73.833 7.33301 -103.5 22s-54.334 35 -74.001 61
s-34.5 57.167 -44.5 93.5s-15 76.166 -15 119.499s5 83.166 15 119.499s24.833 67.5 44.5 93.5s44.334 46.333 74.001 61s64.167 22 103.5 22c40 0 74.833 -7.33301 104.5 -22s54.334 -35 74.001 -61s34.334 -57.167 44.001 -93.5s14.5 -76.166 14.5 -119.499
s-4.83301 -83.166 -14.5 -119.499s-24.334 -67.5 -44.001 -93.5s-44.334 -46.333 -74.001 -61s-64.5 -22 -104.5 -22z" />
    <glyph glyph-name="Oacute" unicode="&#xd3;" horiz-adv-x="689" 
d="M468 863h-70l-88 -132h50zM50 333c0 -47.333 6 -91.833 18 -133.5s30 -78.167 54 -109.5s54.5 -56.166 91.5 -74.499s80.5 -27.5 130.5 -27.5s93.5 9.16699 130.5 27.5s67.667 43.166 92 74.499s42.5 67.833 54.5 109.5s18 86.167 18 133.5s-6 91.833 -18 133.5
s-30.167 78.167 -54.5 109.5s-55 56.166 -92 74.499s-80.5 27.5 -130.5 27.5s-93.5 -9.16699 -130.5 -27.5s-67.5 -43.166 -91.5 -74.499s-42 -67.833 -54 -109.5s-18 -86.167 -18 -133.5zM344 37c-39.333 0 -73.833 7.33301 -103.5 22s-54.334 35 -74.001 61
s-34.5 57.167 -44.5 93.5s-15 76.166 -15 119.499s5 83.166 15 119.499s24.833 67.5 44.5 93.5s44.334 46.333 74.001 61s64.167 22 103.5 22c40 0 74.833 -7.33301 104.5 -22s54.334 -35 74.001 -61s34.334 -57.167 44.001 -93.5s14.5 -76.166 14.5 -119.499
s-4.83301 -83.166 -14.5 -119.499s-24.334 -67.5 -44.001 -93.5s-44.334 -46.333 -74.001 -61s-64.5 -22 -104.5 -22z" />
    <glyph glyph-name="Ocircumflex" unicode="&#xd4;" horiz-adv-x="689" 
d="M372 863h-56l-112 -132h55l85 102l85 -102h56zM50 333c0 -47.333 6 -91.833 18 -133.5s30 -78.167 54 -109.5s54.5 -56.166 91.5 -74.499s80.5 -27.5 130.5 -27.5s93.5 9.16699 130.5 27.5s67.667 43.166 92 74.499s42.5 67.833 54.5 109.5s18 86.167 18 133.5
s-6 91.833 -18 133.5s-30.167 78.167 -54.5 109.5s-55 56.166 -92 74.499s-80.5 27.5 -130.5 27.5s-93.5 -9.16699 -130.5 -27.5s-67.5 -43.166 -91.5 -74.499s-42 -67.833 -54 -109.5s-18 -86.167 -18 -133.5zM344 37c-39.333 0 -73.833 7.33301 -103.5 22
s-54.334 35 -74.001 61s-34.5 57.167 -44.5 93.5s-15 76.166 -15 119.499s5 83.166 15 119.499s24.833 67.5 44.5 93.5s44.334 46.333 74.001 61s64.167 22 103.5 22c40 0 74.833 -7.33301 104.5 -22s54.334 -35 74.001 -61s34.334 -57.167 44.001 -93.5
s14.5 -76.166 14.5 -119.499s-4.83301 -83.166 -14.5 -119.499s-24.334 -67.5 -44.001 -93.5s-44.334 -46.333 -74.001 -61s-64.5 -22 -104.5 -22z" />
    <glyph glyph-name="Otilde" unicode="&#xd5;" horiz-adv-x="689" 
d="M50 333c0 -47.333 6 -91.833 18 -133.5s30 -78.167 54 -109.5s54.5 -56.166 91.5 -74.499s80.5 -27.5 130.5 -27.5s93.5 9.16699 130.5 27.5s67.667 43.166 92 74.499s42.5 67.833 54.5 109.5s18 86.167 18 133.5s-6 91.833 -18 133.5s-30.167 78.167 -54.5 109.5
s-55 56.166 -92 74.499s-80.5 27.5 -130.5 27.5s-93.5 -9.16699 -130.5 -27.5s-67.5 -43.166 -91.5 -74.499s-42 -67.833 -54 -109.5s-18 -86.167 -18 -133.5zM344 37c-39.333 0 -73.833 7.33301 -103.5 22s-54.334 35 -74.001 61s-34.5 57.167 -44.5 93.5
s-15 76.166 -15 119.499s5 83.166 15 119.499s24.833 67.5 44.5 93.5s44.334 46.333 74.001 61s64.167 22 103.5 22c40 0 74.833 -7.33301 104.5 -22s54.334 -35 74.001 -61s34.334 -57.167 44.001 -93.5s14.5 -76.166 14.5 -119.499s-4.83301 -83.166 -14.5 -119.499
s-24.334 -67.5 -44.001 -93.5s-44.334 -46.333 -74.001 -61s-64.5 -22 -104.5 -22zM460 833c-4.66699 -11.333 -9.66602 -21.9971 -14.999 -31.9971s-15.333 -15 -30 -15c-8 0 -17.5 2.33301 -28.5 7s-22.5 10 -34.5 16s-24.167 11.333 -36.5 16s-24.5 7 -36.5 7
c-25.333 0 -44 -7 -56 -21s-22 -32.667 -30 -56l39 -15c6 13.333 11.667 24.666 17 33.999s15.666 14 30.999 14c10 0 20.5 -2.33301 31.5 -7s22.5 -9.83398 34.5 -15.501s24 -10.834 36 -15.501s24 -7 36 -7c21.333 0 38.333 7.33301 51 22s22.667 32.667 30 54z" />
    <glyph glyph-name="Odieresis" unicode="&#xd6;" horiz-adv-x="689" 
d="M50 333c0 -47.333 6 -91.833 18 -133.5s30 -78.167 54 -109.5s54.5 -56.166 91.5 -74.499s80.5 -27.5 130.5 -27.5s93.5 9.16699 130.5 27.5s67.667 43.166 92 74.499s42.5 67.833 54.5 109.5s18 86.167 18 133.5s-6 91.833 -18 133.5s-30.167 78.167 -54.5 109.5
s-55 56.166 -92 74.499s-80.5 27.5 -130.5 27.5s-93.5 -9.16699 -130.5 -27.5s-67.5 -43.166 -91.5 -74.499s-42 -67.833 -54 -109.5s-18 -86.167 -18 -133.5zM344 37c-39.333 0 -73.833 7.33301 -103.5 22s-54.334 35 -74.001 61s-34.5 57.167 -44.5 93.5
s-15 76.166 -15 119.499s5 83.166 15 119.499s24.833 67.5 44.5 93.5s44.334 46.333 74.001 61s64.167 22 103.5 22c40 0 74.833 -7.33301 104.5 -22s54.334 -35 74.001 -61s34.334 -57.167 44.001 -93.5s14.5 -76.166 14.5 -119.499s-4.83301 -83.166 -14.5 -119.499
s-24.334 -67.5 -44.001 -93.5s-44.334 -46.333 -74.001 -61s-64.5 -22 -104.5 -22zM396 795c0 -12.667 4 -22.834 12 -30.501s18.333 -11.5 31 -11.5s23 3.83301 31 11.5s12 17.834 12 30.501c0 12 -4 22 -12 30s-18.333 12 -31 12s-23 -4 -31 -12s-12 -18 -12 -30zM208 795
c0 -12.667 3.83301 -22.834 11.5 -30.501s17.834 -11.5 30.501 -11.5c13.333 0 23.833 3.83301 31.5 11.5s11.5 17.834 11.5 30.501c0 12 -3.83301 22 -11.5 30s-18.167 12 -31.5 12c-12.667 0 -22.834 -4 -30.501 -12s-11.5 -18 -11.5 -30z" />
    <glyph glyph-name="multiply" unicode="&#xd7;" horiz-adv-x="515" 
d="M425 122l33 33l-168 168l167 166l-34 34l-166 -167l-167 168l-33 -33l167 -168l-167 -166l34 -34l166 167z" />
    <glyph glyph-name="Oslash" unicode="&#xd8;" horiz-adv-x="689" 
d="M50 333c0 -66.667 11.8301 -127.335 35.4971 -182.002s59.834 -96.334 108.501 -125.001l-46 -110h43l39 92c16.667 -6 34.5 -10.833 53.5 -14.5s39.167 -5.5 60.5 -5.5c50 0 93.5 9.16699 130.5 27.5s67.667 43.166 92 74.499s42.5 67.833 54.5 109.5
s18 86.167 18 133.5c0 32.667 -3 64.334 -9 95.001s-15 59.334 -27 86.001s-27 50.667 -45 72s-39 39 -63 53l47 111h-43l-39 -93c-17.333 6.66699 -35.666 11.834 -54.999 15.501s-39.666 5.5 -60.999 5.5c-50 0 -93.5 -9.16699 -130.5 -27.5s-67.5 -43.166 -91.5 -74.499
s-42 -67.833 -54 -109.5s-18 -86.167 -18 -133.5zM106.997 332.999c0 43.333 4.99902 83.167 14.999 119.5s24.833 67.5 44.5 93.5s44.334 46.333 74.001 61s64.167 22 103.5 22c36 0 68 -6 96 -18l-226 -537c-36 24 -62.833 58.5 -80.5 103.5s-26.5 96.833 -26.5 155.5z
M343.996 37c-34.667 0 -66.3311 5.66602 -94.998 16.999l226 537c36 -24.667 62.667 -59.167 80 -103.5s26 -95.833 26 -154.5c0 -43.333 -4.83301 -83.166 -14.5 -119.499s-24.334 -67.5 -44.001 -93.5s-44.334 -46.333 -74.001 -61s-64.5 -22 -104.5 -22z" />
    <glyph glyph-name="Ugrave" unicode="&#xd9;" horiz-adv-x="668" 
d="M379 731l-88 132h-70l108 -132h50zM585 666h-58v-446c0 -56.667 -16.833 -101.334 -50.5 -134.001s-81.167 -49 -142.5 -49s-109 16.333 -143 49s-51 77.334 -51 134.001v446h-57v-440c0 -31.333 5.16699 -61.333 15.5 -90s25.833 -54 46.5 -76s46.667 -39.5 78 -52.5
s68.333 -19.5 111 -19.5s79.667 6.5 111 19.5s57.333 30.5 78 52.5s36.167 47.333 46.5 76s15.5 58.667 15.5 90v440z" />
    <glyph glyph-name="Uacute" unicode="&#xda;" horiz-adv-x="668" 
d="M585 666h-58v-446c0 -56.667 -16.833 -101.334 -50.5 -134.001s-81.167 -49 -142.5 -49s-109 16.333 -143 49s-51 77.334 -51 134.001v446h-57v-440c0 -31.333 5.16699 -61.333 15.5 -90s25.833 -54 46.5 -76s46.667 -39.5 78 -52.5s68.333 -19.5 111 -19.5
s79.667 6.5 111 19.5s57.333 30.5 78 52.5s36.167 47.333 46.5 76s15.5 58.667 15.5 90v440zM449 863h-70l-88 -132h50z" />
    <glyph glyph-name="Ucircumflex" unicode="&#xdb;" horiz-adv-x="668" 
d="M362 863h-56l-112 -132h55l85 102l85 -102h56zM585 666h-58v-446c0 -56.667 -16.833 -101.334 -50.5 -134.001s-81.167 -49 -142.5 -49s-109 16.333 -143 49s-51 77.334 -51 134.001v446h-57v-440c0 -31.333 5.16699 -61.333 15.5 -90s25.833 -54 46.5 -76
s46.667 -39.5 78 -52.5s68.333 -19.5 111 -19.5s79.667 6.5 111 19.5s57.333 30.5 78 52.5s36.167 47.333 46.5 76s15.5 58.667 15.5 90v440z" />
    <glyph glyph-name="Udieresis" unicode="&#xdc;" horiz-adv-x="668" 
d="M585 666h-58v-446c0 -56.667 -16.833 -101.334 -50.5 -134.001s-81.167 -49 -142.5 -49s-109 16.333 -143 49s-51 77.334 -51 134.001v446h-57v-440c0 -31.333 5.16699 -61.333 15.5 -90s25.833 -54 46.5 -76s46.667 -39.5 78 -52.5s68.333 -19.5 111 -19.5
s79.667 6.5 111 19.5s57.333 30.5 78 52.5s36.167 47.333 46.5 76s15.5 58.667 15.5 90v440zM385 795c0 -12.667 4 -22.834 12 -30.501s18.333 -11.5 31 -11.5s23 3.83301 31 11.5s12 17.834 12 30.501c0 12 -4 22 -12 30s-18.333 12 -31 12s-23 -4 -31 -12s-12 -18 -12 -30
zM197 795c0 -12.667 3.83301 -22.834 11.5 -30.501s17.834 -11.5 30.501 -11.5c13.333 0 23.833 3.83301 31.5 11.5s11.5 17.834 11.5 30.501c0 12 -3.83301 22 -11.5 30s-18.167 12 -31.5 12c-12.667 0 -22.834 -4 -30.501 -12s-11.5 -18 -11.5 -30z" />
    <glyph glyph-name="Yacute" unicode="&#xdd;" horiz-adv-x="542" 
d="M523 666h-60l-192 -341l-192 341h-60l224 -391v-275h57v275zM397 863h-70l-88 -132h50z" />
    <glyph glyph-name="Thorn" unicode="&#xde;" horiz-adv-x="574" 
d="M540 337c0 26 -4.33301 50.5 -13 73.5s-21.5 43.333 -38.5 61s-38.167 31.667 -63.5 42s-55 15.5 -89 15.5h-194v137h-57v-666h57v146h194c33.333 0 62.833 5.16699 88.5 15.5s47 24.333 64 42s29.833 38 38.5 61s13 47.167 13 72.5zM482 337
c0 -43.333 -13 -78.167 -39 -104.5s-63.333 -39.5 -112 -39.5h-189v289h188c48.667 0 86.167 -13.167 112.5 -39.5s39.5 -61.5 39.5 -105.5z" />
    <glyph glyph-name="germandbls" unicode="&#xdf;" horiz-adv-x="554" 
d="M131 0l0.000976562 446.001c0 61.333 12.833 107.833 38.5 139.5s62.5 47.5 110.5 47.5c28.667 0 53.167 -7.33301 73.5 -22s30.5 -35.334 30.5 -62.001c0 -22 -5.16699 -41 -15.5 -57s-23.166 -32.667 -38.499 -50c-17.333 -20 -32.166 -39.167 -44.499 -57.5
s-18.5 -40.833 -18.5 -67.5c0 -29.333 9.5 -52.833 28.5 -70.5s44.5 -33.167 76.5 -46.5c13.333 -5.33301 25.666 -10.833 36.999 -16.5s21 -11.834 29 -18.501s14.333 -14.167 19 -22.5s7 -18.5 7 -30.5c0 -25.333 -9 -44.666 -27 -57.999s-43 -20 -75 -20
c-17.333 0 -35.333 1.83301 -54 5.5s-36.667 9.16699 -54 16.5l-11 -42c17.333 -7.33301 37.5 -13.166 60.5 -17.499s44.167 -6.5 63.5 -6.5c48 0 85.5 11.833 112.5 35.5s40.5 53.5 40.5 89.5c0 18 -3.33301 33.5 -10 46.5s-15.667 24.333 -27 34
s-24.166 18.167 -38.499 25.5l-44.5 22c-24 11.333 -43.167 22.166 -57.5 32.499s-21.5 25.166 -21.5 44.499c0 10.667 1.66699 20.167 5 28.5s7.66602 16.333 12.999 24s11.5 15.5 18.5 23.5s14.167 16.667 21.5 26c14.667 18.667 28.167 37.834 40.5 57.501
s18.5 43.167 18.5 70.5c0 20 -4 37.667 -12 53s-18.833 28.5 -32.5 39.5s-29.834 19.333 -48.501 25s-38.667 8.5 -60 8.5c-66.667 0 -118.334 -19.5 -155.001 -58.5s-55 -95.833 -55 -170.5v-447h56z" />
    <glyph glyph-name="agrave" unicode="&#xe0;" horiz-adv-x="495" 
d="M424 0v332.999c0 50.667 -14.833 88.167 -44.5 112.5s-73.5 36.5 -131.5 36.5c-62 0 -116.667 -11.333 -164 -34l10 -45c48 21.333 97.333 32 148 32c42 0 73.5 -8.5 94.5 -25.5s31.5 -44.5 31.5 -82.5v-56h-152c-50 0 -90 -12 -120 -36s-45 -59.667 -45 -107
c0 -43.333 13.167 -77.166 39.5 -101.499s62.5 -36.5 108.5 -36.5c40.667 0 75.167 8.5 103.5 25.5s50.833 41.5 67.5 73.5v-89h54zM368 182.999c0 -18.667 -3.66699 -37.1689 -11 -55.502s-17.833 -34.666 -31.5 -48.999s-30.167 -25.833 -49.5 -34.5s-41 -13 -65 -13
c-38 0 -65 8.33301 -81 25s-24 40.334 -24 71.001c0 34 8.83301 59.5 26.5 76.5s47.5 25.5 89.5 25.5h146v-46zM232 540.997h48l-68 152h-65z" />
    <glyph glyph-name="aacute" unicode="&#xe1;" horiz-adv-x="495" 
d="M424 0v332.999c0 50.667 -14.833 88.167 -44.5 112.5s-73.5 36.5 -131.5 36.5c-62 0 -116.667 -11.333 -164 -34l10 -45c48 21.333 97.333 32 148 32c42 0 73.5 -8.5 94.5 -25.5s31.5 -44.5 31.5 -82.5v-56h-152c-50 0 -90 -12 -120 -36s-45 -59.667 -45 -107
c0 -43.333 13.167 -77.166 39.5 -101.499s62.5 -36.5 108.5 -36.5c40.667 0 75.167 8.5 103.5 25.5s50.833 41.5 67.5 73.5v-89h54zM368 182.999c0 -18.667 -3.66699 -37.1689 -11 -55.502s-17.833 -34.666 -31.5 -48.999s-30.167 -25.833 -49.5 -34.5s-41 -13 -65 -13
c-38 0 -65 8.33301 -81 25s-24 40.334 -24 71.001c0 34 8.83301 59.5 26.5 76.5s47.5 25.5 89.5 25.5h146v-46zM217 540.997h47l86 152h-66z" />
    <glyph glyph-name="acircumflex" unicode="&#xe2;" horiz-adv-x="495" 
d="M424 0v332.999c0 50.667 -14.833 88.167 -44.5 112.5s-73.5 36.5 -131.5 36.5c-62 0 -116.667 -11.333 -164 -34l10 -45c48 21.333 97.333 32 148 32c42 0 73.5 -8.5 94.5 -25.5s31.5 -44.5 31.5 -82.5v-56h-152c-50 0 -90 -12 -120 -36s-45 -59.667 -45 -107
c0 -43.333 13.167 -77.166 39.5 -101.499s62.5 -36.5 108.5 -36.5c40.667 0 75.167 8.5 103.5 25.5s50.833 41.5 67.5 73.5v-89h54zM368 182.999c0 -18.667 -3.66699 -37.1689 -11 -55.502s-17.833 -34.666 -31.5 -48.999s-30.167 -25.833 -49.5 -34.5s-41 -13 -65 -13
c-38 0 -65 8.33301 -81 25s-24 40.334 -24 71.001c0 34 8.83301 59.5 26.5 76.5s47.5 25.5 89.5 25.5h146v-46zM279 692.997h-58l-101 -152h54l76 119l77 -119h54z" />
    <glyph glyph-name="atilde" unicode="&#xe3;" horiz-adv-x="495" 
d="M424 0v332.999c0 50.667 -14.833 88.167 -44.5 112.5s-73.5 36.5 -131.5 36.5c-62 0 -116.667 -11.333 -164 -34l10 -45c48 21.333 97.333 32 148 32c42 0 73.5 -8.5 94.5 -25.5s31.5 -44.5 31.5 -82.5v-56h-152c-50 0 -90 -12 -120 -36s-45 -59.667 -45 -107
c0 -43.333 13.167 -77.166 39.5 -101.499s62.5 -36.5 108.5 -36.5c40.667 0 75.167 8.5 103.5 25.5s50.833 41.5 67.5 73.5v-89h54zM368 182.999c0 -18.667 -3.66699 -37.1689 -11 -55.502s-17.833 -34.666 -31.5 -48.999s-30.167 -25.833 -49.5 -34.5s-41 -13 -65 -13
c-38 0 -65 8.33301 -81 25s-24 40.334 -24 71.001c0 34 8.83301 59.5 26.5 76.5s47.5 25.5 89.5 25.5h146v-46zM360 654.997c-4.66699 -12.667 -10.167 -23.666 -16.5 -32.999s-16.833 -14 -31.5 -14c-8.66699 0 -17.667 2.33301 -27 7s-19 9.83398 -29 15.501
s-20.5 10.834 -31.5 15.501s-22.5 7 -34.5 7c-23.333 0 -41.166 -7 -53.499 -21s-22.833 -32.667 -31.5 -56l38 -15c6 13.333 12.167 24.666 18.5 33.999s16.166 14 29.499 14c10 0 20 -2.33301 30 -7s20 -9.83398 30 -15.501s20.5 -10.834 31.5 -15.501s22.5 -7 34.5 -7
c21.333 0 38.5 7.33301 51.5 22s23.167 32.667 30.5 54z" />
    <glyph glyph-name="adieresis" unicode="&#xe4;" horiz-adv-x="495" 
d="M424 0v332.999c0 50.667 -14.833 88.167 -44.5 112.5s-73.5 36.5 -131.5 36.5c-62 0 -116.667 -11.333 -164 -34l10 -45c48 21.333 97.333 32 148 32c42 0 73.5 -8.5 94.5 -25.5s31.5 -44.5 31.5 -82.5v-56h-152c-50 0 -90 -12 -120 -36s-45 -59.667 -45 -107
c0 -43.333 13.167 -77.166 39.5 -101.499s62.5 -36.5 108.5 -36.5c40.667 0 75.167 8.5 103.5 25.5s50.833 41.5 67.5 73.5v-89h54zM368 182.999c0 -18.667 -3.66699 -37.1689 -11 -55.502s-17.833 -34.666 -31.5 -48.999s-30.167 -25.833 -49.5 -34.5s-41 -13 -65 -13
c-38 0 -65 8.33301 -81 25s-24 40.334 -24 71.001c0 34 8.83301 59.5 26.5 76.5s47.5 25.5 89.5 25.5h146v-46zM300 605.997c0 -12 4 -22.167 12 -30.5s18.333 -12.5 31 -12.5s23 4.16699 31 12.5s12 18.5 12 30.5s-4 22 -12 30s-18.333 12 -31 12s-23 -4 -31 -12
s-12 -18 -12 -30zM124 605.997c0 -12 4 -22.167 12 -30.5s18 -12.5 30 -12.5c13.333 0 23.833 4.16699 31.5 12.5s11.5 18.5 11.5 30.5s-3.83301 22 -11.5 30s-18.167 12 -31.5 12c-12 0 -22 -4 -30 -12s-12 -18 -12 -30z" />
    <glyph glyph-name="aring" unicode="&#xe5;" horiz-adv-x="495" 
d="M424 0v332.999c0 50.667 -14.833 88.167 -44.5 112.5s-73.5 36.5 -131.5 36.5c-62 0 -116.667 -11.333 -164 -34l10 -45c48 21.333 97.333 32 148 32c42 0 73.5 -8.5 94.5 -25.5s31.5 -44.5 31.5 -82.5v-56h-152c-50 0 -90 -12 -120 -36s-45 -59.667 -45 -107
c0 -43.333 13.167 -77.166 39.5 -101.499s62.5 -36.5 108.5 -36.5c40.667 0 75.167 8.5 103.5 25.5s50.833 41.5 67.5 73.5v-89h54zM368 182.999c0 -18.667 -3.66699 -37.1689 -11 -55.502s-17.833 -34.666 -31.5 -48.999s-30.167 -25.833 -49.5 -34.5s-41 -13 -65 -13
c-38 0 -65 8.33301 -81 25s-24 40.334 -24 71.001c0 34 8.83301 59.5 26.5 76.5s47.5 25.5 89.5 25.5h146v-46zM339 619.997c0 22 -7.33301 40.667 -22 56s-36.667 23 -66 23c-28.667 0 -50.167 -7.66699 -64.5 -23s-21.5 -34 -21.5 -56s7.16699 -40.667 21.5 -56
s35.833 -23 64.5 -23c29.333 0 51.333 7.66699 66 23s22 34 22 56zM198 619.997c0 16.667 4.66699 29.5 14 38.5s22.333 13.5 39 13.5s29.834 -4.5 39.501 -13.5s14.5 -21.833 14.5 -38.5s-4.83301 -29.334 -14.5 -38.001s-22.834 -13 -39.501 -13s-29.667 4.33301 -39 13
s-14 21.334 -14 38.001z" />
    <glyph glyph-name="ae" unicode="&#xe6;" horiz-adv-x="802" 
d="M761 223l0.00488281 43.998c0 29.333 -3.16699 57 -9.5 83s-16.5 48.833 -30.5 68.5s-32.333 35.167 -55 46.5s-50.334 17 -83.001 17c-42 0 -77.333 -8.83301 -106 -26.5s-51.667 -43.834 -69 -78.501c-12 36 -32.167 62.5 -60.5 79.5s-63.833 25.5 -106.5 25.5
c-32.667 0 -61.834 -3.16699 -87.501 -9.5s-48.167 -14.166 -67.5 -23.499l10 -45c20 9.33301 41.667 16.833 65 22.5s48.333 8.5 75 8.5c44 0 77.833 -10.333 101.5 -31s35.5 -53.667 35.5 -99v-41h-162c-50 0 -89.5 -11 -118.5 -33s-43.5 -56 -43.5 -102
c0 -44 13.833 -78.167 41.5 -102.5s66.834 -36.5 117.501 -36.5c48 0 88.167 10.333 120.5 31s57.166 49.334 74.499 86.001c8 -16.667 17.667 -32.167 29 -46.5s25 -26.666 41 -36.999s34.167 -18.5 54.5 -24.5s43.166 -9 68.499 -9c31.333 0 60.666 3.33301 87.999 10
s50.666 14.667 69.999 24l-9 39c-21.333 -8 -43.833 -15 -67.5 -21s-48.5 -9 -74.5 -9c-31.333 0 -58 4.5 -80 13.5s-39.833 21.833 -53.5 38.5s-23.667 36.667 -30 60s-9.83301 49.333 -10.5 78h332zM373.005 180.998c0 -22 -3.66504 -42.1699 -10.998 -60.5029
s-17.833 -34.166 -31.5 -47.499s-30.334 -23.666 -50.001 -30.999s-41.834 -11 -66.501 -11c-37.333 0 -65.5 8.33301 -84.5 25s-28.5 40.334 -28.5 71.001c0 32 9.5 55.833 28.5 71.5s48.5 23.5 88.5 23.5h155v-41zM582.007 441.995c23.333 0 43 -4.33203 59 -12.999
s28.833 -20.334 38.5 -35.001s16.667 -32.167 21 -52.5s6.5 -41.833 6.5 -64.5v-13h-277c6 118.667 56.667 178 152 178z" />
    <glyph glyph-name="ccedilla" unicode="&#xe7;" horiz-adv-x="431" 
d="M344 -110c0 20.667 -8.32812 35.4951 -24.9951 44.4951s-37.334 14.833 -62.001 17.5l8 38c24 0 47.833 2.5 71.5 7.5s43.167 11.5 58.5 19.5l-10 43c-15.333 -6.66699 -32.666 -12.167 -51.999 -16.5s-40.333 -6.5 -63 -6.5c-30.667 0 -56.667 4.83301 -78 14.5
s-38.833 23.334 -52.5 41.001s-23.5 38.667 -29.5 63s-9 51.166 -9 80.499s3 56.333 9 81s15.833 45.834 29.5 63.501s31.167 31.334 52.5 41.001s47.333 14.5 78 14.5c22.667 0 43.667 -2.16699 63 -6.5s36.666 -10.166 51.999 -17.499l10 43
c-15.333 8.66699 -34.833 15.334 -58.5 20.001s-47.834 7 -72.501 7c-70.667 0 -124.834 -21.333 -162.501 -64s-56.5 -103.334 -56.5 -182.001c0 -71.333 15.667 -128 47 -170s76.666 -66.667 135.999 -74l-18 -68l31 -4c10 -1.33301 19 -3.33301 27 -6
s14.333 -6.16699 19 -10.5s7 -10.166 7 -17.499s-2.5 -13.166 -7.5 -17.499s-11.5 -7.83301 -19.5 -10.5s-17.333 -4.66699 -28 -6s-21.667 -2.33301 -33 -3l3 -37c18.667 0.666992 36.167 2.66699 52.5 6s30.666 8 42.999 14s22 13.667 29 23s10.5 21 10.5 35z" />
    <glyph glyph-name="egrave" unicode="&#xe8;" horiz-adv-x="477" 
d="M435 219l0.00390625 44.998c0 30 -3.16699 58.333 -9.5 85s-16.5 49.834 -30.5 69.501s-32.5 35.167 -55.5 46.5s-51.167 17 -84.5 17c-35.333 0 -66 -5.83301 -92 -17.5s-47.833 -28.167 -65.5 -49.5s-30.834 -47.166 -39.501 -77.499s-13 -64.166 -13 -101.499
c0 -36 4.16699 -69 12.5 -99s21.333 -55.833 39 -77.5s40.667 -38.667 69 -51s62.5 -18.5 102.5 -18.5c32 0 62 3.33301 90 10s51.667 14.667 71 24l-9 39c-20 -8.66699 -42.5 -15.834 -67.5 -21.501s-51.167 -8.5 -78.5 -8.5c-31.333 0 -57.833 4.33301 -79.5 13
s-39.334 21.167 -53.001 37.5s-23.834 36 -30.501 59s-10.334 48.5 -11.001 76.5h335zM254.004 441.998c24 0 44.167 -4.33301 60.5 -13s29.5 -20.5 39.5 -35.5s17.167 -32.833 21.5 -53.5s6.5 -42.667 6.5 -66v-13h-281c6 120.667 57 181 153 181zM229.004 540.998h48
l-68 152h-65z" />
    <glyph glyph-name="eacute" unicode="&#xe9;" horiz-adv-x="477" 
d="M218 541h47l86 152h-66zM435 219l0.00390625 44.998c0 30 -3.16699 58.333 -9.5 85s-16.5 49.834 -30.5 69.501s-32.5 35.167 -55.5 46.5s-51.167 17 -84.5 17c-35.333 0 -66 -5.83301 -92 -17.5s-47.833 -28.167 -65.5 -49.5s-30.834 -47.166 -39.501 -77.499
s-13 -64.166 -13 -101.499c0 -36 4.16699 -69 12.5 -99s21.333 -55.833 39 -77.5s40.667 -38.667 69 -51s62.5 -18.5 102.5 -18.5c32 0 62 3.33301 90 10s51.667 14.667 71 24l-9 39c-20 -8.66699 -42.5 -15.834 -67.5 -21.501s-51.167 -8.5 -78.5 -8.5
c-31.333 0 -57.833 4.33301 -79.5 13s-39.334 21.167 -53.001 37.5s-23.834 36 -30.501 59s-10.334 48.5 -11.001 76.5h335zM254.004 441.998c24 0 44.167 -4.33301 60.5 -13s29.5 -20.5 39.5 -35.5s17.167 -32.833 21.5 -53.5s6.5 -42.667 6.5 -66v-13h-281
c6 120.667 57 181 153 181z" />
    <glyph glyph-name="ecircumflex" unicode="&#xea;" horiz-adv-x="477" 
d="M278 693h-58l-101 -152h54l76 119l77 -119h54zM435 219l0.00390625 44.998c0 30 -3.16699 58.333 -9.5 85s-16.5 49.834 -30.5 69.501s-32.5 35.167 -55.5 46.5s-51.167 17 -84.5 17c-35.333 0 -66 -5.83301 -92 -17.5s-47.833 -28.167 -65.5 -49.5
s-30.834 -47.166 -39.501 -77.499s-13 -64.166 -13 -101.499c0 -36 4.16699 -69 12.5 -99s21.333 -55.833 39 -77.5s40.667 -38.667 69 -51s62.5 -18.5 102.5 -18.5c32 0 62 3.33301 90 10s51.667 14.667 71 24l-9 39c-20 -8.66699 -42.5 -15.834 -67.5 -21.501
s-51.167 -8.5 -78.5 -8.5c-31.333 0 -57.833 4.33301 -79.5 13s-39.334 21.167 -53.001 37.5s-23.834 36 -30.501 59s-10.334 48.5 -11.001 76.5h335zM254.004 441.998c24 0 44.167 -4.33301 60.5 -13s29.5 -20.5 39.5 -35.5s17.167 -32.833 21.5 -53.5s6.5 -42.667 6.5 -66
v-13h-281c6 120.667 57 181 153 181z" />
    <glyph glyph-name="edieresis" unicode="&#xeb;" horiz-adv-x="477" 
d="M295 606c0 -12 4 -22.167 12 -30.5s18.333 -12.5 31 -12.5s23 4.16699 31 12.5s12 18.5 12 30.5s-4 22 -12 30s-18.333 12 -31 12s-23 -4 -31 -12s-12 -18 -12 -30zM119 606c0 -12 4 -22.167 12 -30.5s18 -12.5 30 -12.5c13.333 0 23.833 4.16699 31.5 12.5
s11.5 18.5 11.5 30.5s-3.83301 22 -11.5 30s-18.167 12 -31.5 12c-12 0 -22 -4 -30 -12s-12 -18 -12 -30zM435 219l0.00390625 44.998c0 30 -3.16699 58.333 -9.5 85s-16.5 49.834 -30.5 69.501s-32.5 35.167 -55.5 46.5s-51.167 17 -84.5 17
c-35.333 0 -66 -5.83301 -92 -17.5s-47.833 -28.167 -65.5 -49.5s-30.834 -47.166 -39.501 -77.499s-13 -64.166 -13 -101.499c0 -36 4.16699 -69 12.5 -99s21.333 -55.833 39 -77.5s40.667 -38.667 69 -51s62.5 -18.5 102.5 -18.5c32 0 62 3.33301 90 10
s51.667 14.667 71 24l-9 39c-20 -8.66699 -42.5 -15.834 -67.5 -21.501s-51.167 -8.5 -78.5 -8.5c-31.333 0 -57.833 4.33301 -79.5 13s-39.334 21.167 -53.001 37.5s-23.834 36 -30.501 59s-10.334 48.5 -11.001 76.5h335zM254.004 441.998c24 0 44.167 -4.33301 60.5 -13
s29.5 -20.5 39.5 -35.5s17.167 -32.833 21.5 -53.5s6.5 -42.667 6.5 -66v-13h-281c6 120.667 57 181 153 181z" />
    <glyph glyph-name="igrave" unicode="&#xec;" horiz-adv-x="215" 
d="M136 0v472h-56v-472h56zM88 541h48l-68 152h-65z" />
    <glyph glyph-name="iacute" unicode="&#xed;" horiz-adv-x="215" 
d="M85 541h47l86 152h-66zM136 0v472h-56v-472h56z" />
    <glyph glyph-name="icircumflex" unicode="&#xee;" horiz-adv-x="215" 
d="M138 693h-58l-101 -152h54l76 119l77 -119h54zM136 0v472h-56v-472h56z" />
    <glyph glyph-name="idieresis" unicode="&#xef;" horiz-adv-x="215" 
d="M155 606c0 -12 4 -22.167 12 -30.5s18.333 -12.5 31 -12.5s23 4.16699 31 12.5s12 18.5 12 30.5s-4 22 -12 30s-18.333 12 -31 12s-23 -4 -31 -12s-12 -18 -12 -30zM-21 606c0 -12 4 -22.167 12 -30.5s18 -12.5 30 -12.5c13.333 0 23.833 4.16699 31.5 12.5
s11.5 18.5 11.5 30.5s-3.83301 22 -11.5 30s-18.167 12 -31.5 12c-12 0 -22 -4 -30 -12s-12 -18 -12 -30zM136 0v472h-56v-472h56z" />
    <glyph glyph-name="eth" unicode="&#xf0;" horiz-adv-x="500" 
d="M191 478l103.003 65.999c32 -26.667 57.333 -57.334 76 -92.001s30.667 -74 36 -118c-14.667 33.333 -36 59.166 -64 77.499s-62 27.5 -102 27.5c-32.667 0 -61.167 -6 -85.5 -18s-44.666 -28.333 -60.999 -49s-28.5 -44.5 -36.5 -71.5s-12 -55.5 -12 -85.5
c0 -28 4.33301 -55.5 13 -82.5s21.167 -51 37.5 -72s36.666 -38 60.999 -51s52.166 -19.5 83.499 -19.5c34.667 0 65.5 6.83301 92.5 20.5s49.667 32.167 68 55.5s32.166 50.333 41.499 81s14 63.334 14 98.001c0 76 -10.833 140 -32.5 192s-51.834 95.667 -90.501 131
l81 52l-21 33l-93 -58c-23.333 17.333 -48.833 32.5 -76.5 45.5s-57.167 24.833 -88.5 35.5l-13 -42c26 -9.33301 50.5 -19.166 73.5 -29.499s44.167 -22.166 63.5 -35.499l-89 -56zM100.003 214.999c0 26.667 2.99902 50.998 8.99902 72.998s15 40.833 27 56.5
s27.333 27.834 46 36.501s40.667 13 66 13c24.667 0 46.5 -4.83301 65.5 -14.5s34.833 -22.667 47.5 -39s22.334 -35.166 29.001 -56.499s10 -43.333 10 -66s-3 -45 -9 -67s-15.333 -41.667 -28 -59s-29 -31.333 -49 -42s-43.667 -16 -71 -16c-24 0 -45 4.83301 -63 14.5
s-33 22.667 -45 39s-20.833 35.5 -26.5 57.5s-8.5 45.333 -8.5 70z" />
    <glyph glyph-name="ntilde" unicode="&#xf1;" horiz-adv-x="530" 
d="M455 0l-0.000976562 322c0 50 -12.167 89.167 -36.5 117.5s-63.166 42.5 -116.499 42.5c-41.333 0 -76 -10.667 -104 -32s-49.333 -50 -64 -86v108h-54v-472h56v250c0 28.667 4.16699 54.334 12.5 77.001s19.5 42 33.5 58s30.167 28.167 48.5 36.5s37.5 12.5 57.5 12.5
c38 0 66 -10.333 84 -31s27 -50.334 27 -89.001v-314h56zM377.999 655c-4.66699 -12.667 -10.167 -23.666 -16.5 -32.999s-16.833 -14 -31.5 -14c-8.66699 0 -17.667 2.33301 -27 7s-19 9.83398 -29 15.501s-20.5 10.834 -31.5 15.501s-22.5 7 -34.5 7
c-23.333 0 -41.166 -7 -53.499 -21s-22.833 -32.667 -31.5 -56l38 -15c6 13.333 12.167 24.666 18.5 33.999s16.166 14 29.499 14c10 0 20 -2.33301 30 -7s20 -9.83398 30 -15.501s20.5 -10.834 31.5 -15.501s22.5 -7 34.5 -7c21.333 0 38.5 7.33301 51.5 22
s23.167 32.667 30.5 54z" />
    <glyph glyph-name="ograve" unicode="&#xf2;" horiz-adv-x="504" 
d="M459 236c0 34.667 -4.33496 67 -13.002 97s-21.5 56 -38.5 78s-38.5 39.333 -64.5 52s-56.333 19 -91 19s-65 -6.33301 -91 -19s-47.5 -30 -64.5 -52s-29.833 -48 -38.5 -78s-13 -62.333 -13 -97s4.33301 -67 13 -97s21.667 -56 39 -78s38.833 -39.333 64.5 -52
s55.834 -19 90.501 -19s64.834 6.33301 90.501 19s47.167 30 64.5 52s30.333 48 39 78s13 62.333 13 97zM402.998 236c0 -60.667 -12.333 -109.167 -37 -145.5s-62.667 -54.5 -114 -54.5s-89.333 18.167 -114 54.5s-37 84.833 -37 145.5s12.333 109.334 37 146.001
s62.667 55 114 55s89.333 -18.333 114 -55s37 -85.334 37 -146.001zM230.998 541h48l-68 152h-65z" />
    <glyph glyph-name="oacute" unicode="&#xf3;" horiz-adv-x="504" 
d="M222 541h47l86 152h-66zM459 236c0 34.667 -4.33496 67 -13.002 97s-21.5 56 -38.5 78s-38.5 39.333 -64.5 52s-56.333 19 -91 19s-65 -6.33301 -91 -19s-47.5 -30 -64.5 -52s-29.833 -48 -38.5 -78s-13 -62.333 -13 -97s4.33301 -67 13 -97s21.667 -56 39 -78
s38.833 -39.333 64.5 -52s55.834 -19 90.501 -19s64.834 6.33301 90.501 19s47.167 30 64.5 52s30.333 48 39 78s13 62.333 13 97zM402.998 236c0 -60.667 -12.333 -109.167 -37 -145.5s-62.667 -54.5 -114 -54.5s-89.333 18.167 -114 54.5s-37 84.833 -37 145.5
s12.333 109.334 37 146.001s62.667 55 114 55s89.333 -18.333 114 -55s37 -85.334 37 -146.001z" />
    <glyph glyph-name="ocircumflex" unicode="&#xf4;" horiz-adv-x="504" 
d="M280 693h-58l-101 -152h54l76 119l77 -119h54zM459 236c0 34.667 -4.33496 67 -13.002 97s-21.5 56 -38.5 78s-38.5 39.333 -64.5 52s-56.333 19 -91 19s-65 -6.33301 -91 -19s-47.5 -30 -64.5 -52s-29.833 -48 -38.5 -78s-13 -62.333 -13 -97s4.33301 -67 13 -97
s21.667 -56 39 -78s38.833 -39.333 64.5 -52s55.834 -19 90.501 -19s64.834 6.33301 90.501 19s47.167 30 64.5 52s30.333 48 39 78s13 62.333 13 97zM402.998 236c0 -60.667 -12.333 -109.167 -37 -145.5s-62.667 -54.5 -114 -54.5s-89.333 18.167 -114 54.5
s-37 84.833 -37 145.5s12.333 109.334 37 146.001s62.667 55 114 55s89.333 -18.333 114 -55s37 -85.334 37 -146.001z" />
    <glyph glyph-name="otilde" unicode="&#xf5;" horiz-adv-x="504" 
d="M459 236c0 34.667 -4.33496 67 -13.002 97s-21.5 56 -38.5 78s-38.5 39.333 -64.5 52s-56.333 19 -91 19s-65 -6.33301 -91 -19s-47.5 -30 -64.5 -52s-29.833 -48 -38.5 -78s-13 -62.333 -13 -97s4.33301 -67 13 -97s21.667 -56 39 -78s38.833 -39.333 64.5 -52
s55.834 -19 90.501 -19s64.834 6.33301 90.501 19s47.167 30 64.5 52s30.333 48 39 78s13 62.333 13 97zM402.998 236c0 -60.667 -12.333 -109.167 -37 -145.5s-62.667 -54.5 -114 -54.5s-89.333 18.167 -114 54.5s-37 84.833 -37 145.5s12.333 109.334 37 146.001
s62.667 55 114 55s89.333 -18.333 114 -55s37 -85.334 37 -146.001zM362.998 655c-4.66699 -12.667 -10.167 -23.666 -16.5 -32.999s-16.833 -14 -31.5 -14c-8.66699 0 -17.667 2.33301 -27 7s-19 9.83398 -29 15.501s-20.5 10.834 -31.5 15.501s-22.5 7 -34.5 7
c-23.333 0 -41.166 -7 -53.499 -21s-22.833 -32.667 -31.5 -56l38 -15c6 13.333 12.167 24.666 18.5 33.999s16.166 14 29.499 14c10 0 20 -2.33301 30 -7s20 -9.83398 30 -15.501s20.5 -10.834 31.5 -15.501s22.5 -7 34.5 -7c21.333 0 38.5 7.33301 51.5 22
s23.167 32.667 30.5 54z" />
    <glyph glyph-name="odieresis" unicode="&#xf6;" horiz-adv-x="504" 
d="M297 606c0 -12 4 -22.167 12 -30.5s18.333 -12.5 31 -12.5s23 4.16699 31 12.5s12 18.5 12 30.5s-4 22 -12 30s-18.333 12 -31 12s-23 -4 -31 -12s-12 -18 -12 -30zM121 606c0 -12 4 -22.167 12 -30.5s18 -12.5 30 -12.5c13.333 0 23.833 4.16699 31.5 12.5
s11.5 18.5 11.5 30.5s-3.83301 22 -11.5 30s-18.167 12 -31.5 12c-12 0 -22 -4 -30 -12s-12 -18 -12 -30zM459 236c0 34.667 -4.33496 67 -13.002 97s-21.5 56 -38.5 78s-38.5 39.333 -64.5 52s-56.333 19 -91 19s-65 -6.33301 -91 -19s-47.5 -30 -64.5 -52
s-29.833 -48 -38.5 -78s-13 -62.333 -13 -97s4.33301 -67 13 -97s21.667 -56 39 -78s38.833 -39.333 64.5 -52s55.834 -19 90.501 -19s64.834 6.33301 90.501 19s47.167 30 64.5 52s30.333 48 39 78s13 62.333 13 97zM402.998 236c0 -60.667 -12.333 -109.167 -37 -145.5
s-62.667 -54.5 -114 -54.5s-89.333 18.167 -114 54.5s-37 84.833 -37 145.5s12.333 109.334 37 146.001s62.667 55 114 55s89.333 -18.333 114 -55s37 -85.334 37 -146.001z" />
    <glyph glyph-name="divide" unicode="&#xf7;" horiz-adv-x="536" 
d="M312 497c0 12.667 -4.16699 23.167 -12.5 31.5s-18.833 12.5 -31.5 12.5c-13.333 0 -24.166 -4.16699 -32.499 -12.5s-12.5 -18.833 -12.5 -31.5c0 -12 4.16699 -22.167 12.5 -30.5s19.166 -12.5 32.499 -12.5c12.667 0 23.167 4.16699 31.5 12.5s12.5 18.5 12.5 30.5z
M479 300v46h-422v-46h422zM312 148c0 12.667 -4.16699 23.167 -12.5 31.5s-18.833 12.5 -31.5 12.5c-13.333 0 -24.166 -4.16699 -32.499 -12.5s-12.5 -18.833 -12.5 -31.5c0 -12 4.16699 -22.167 12.5 -30.5s19.166 -12.5 32.499 -12.5c12.667 0 23.167 4.16699 31.5 12.5
s12.5 18.5 12.5 30.5z" />
    <glyph glyph-name="oslash" unicode="&#xf8;" horiz-adv-x="504" 
d="M459 236c0 47.333 -7.66797 89.668 -23.001 127.001s-39 66.666 -71 87.999l47 105h-38l-39 -89c-24 10 -51.667 15 -83 15c-34.667 0 -65 -6.33301 -91 -19s-47.5 -30 -64.5 -52s-29.833 -48 -38.5 -78s-13 -62.333 -13 -97c0 -47.333 7.66699 -89.5 23 -126.5
s38.666 -66.167 69.999 -87.5l-46 -106h37l39 90c12.667 -5.33301 25.834 -9.33301 39.501 -12s28.5 -4 44.5 -4c34.667 0 64.834 6.33301 90.501 19s47.167 30 64.5 52s30.333 48 39 78s13 62.333 13 97zM402.999 236.002c0 -60.667 -12.333 -109.167 -37 -145.5
s-62.667 -54.5 -114 -54.5c-25.333 0 -47 4.33301 -65 13l158 356c19.333 -17.333 33.833 -40.333 43.5 -69s14.5 -62 14.5 -100zM100.999 236.002c0 60.667 12.333 109.334 37 146.001s62.667 55 114 55c12 0 23.333 -1.16699 34 -3.5s20.667 -5.5 30 -9.5l-157 -356
c-19.333 17.333 -33.833 40.166 -43.5 68.499s-14.5 61.5 -14.5 99.5z" />
    <glyph glyph-name="ugrave" unicode="&#xf9;" horiz-adv-x="525" 
d="M75 472v-321.998c0 -49.333 11.833 -88.333 35.5 -117s61.167 -43 112.5 -43c40.667 0 75.167 10.667 103.5 32s49.833 50 64.5 86v-108h54v472h-56v-250c0 -28.667 -4 -54.334 -12 -77.001s-19 -41.834 -33 -57.501s-30.167 -27.667 -48.5 -36s-37.5 -12.5 -57.5 -12.5
c-37.333 0 -64.5 10.333 -81.5 31s-25.5 50 -25.5 88v314h-56zM259 541.002h48l-68 152h-65z" />
    <glyph glyph-name="uacute" unicode="&#xfa;" horiz-adv-x="525" 
d="M223 541h47l86 152h-66zM75 472v-321.998c0 -49.333 11.833 -88.333 35.5 -117s61.167 -43 112.5 -43c40.667 0 75.167 10.667 103.5 32s49.833 50 64.5 86v-108h54v472h-56v-250c0 -28.667 -4 -54.334 -12 -77.001s-19 -41.834 -33 -57.501s-30.167 -27.667 -48.5 -36
s-37.5 -12.5 -57.5 -12.5c-37.333 0 -64.5 10.333 -81.5 31s-25.5 50 -25.5 88v314h-56z" />
    <glyph glyph-name="ucircumflex" unicode="&#xfb;" horiz-adv-x="525" 
d="M292 693h-58l-101 -152h54l76 119l77 -119h54zM75 472v-321.998c0 -49.333 11.833 -88.333 35.5 -117s61.167 -43 112.5 -43c40.667 0 75.167 10.667 103.5 32s49.833 50 64.5 86v-108h54v472h-56v-250c0 -28.667 -4 -54.334 -12 -77.001s-19 -41.834 -33 -57.501
s-30.167 -27.667 -48.5 -36s-37.5 -12.5 -57.5 -12.5c-37.333 0 -64.5 10.333 -81.5 31s-25.5 50 -25.5 88v314h-56z" />
    <glyph glyph-name="udieresis" unicode="&#xfc;" horiz-adv-x="525" 
d="M311 606c0 -12 4 -22.167 12 -30.5s18.333 -12.5 31 -12.5s23 4.16699 31 12.5s12 18.5 12 30.5s-4 22 -12 30s-18.333 12 -31 12s-23 -4 -31 -12s-12 -18 -12 -30zM135 606c0 -12 4 -22.167 12 -30.5s18 -12.5 30 -12.5c13.333 0 23.833 4.16699 31.5 12.5
s11.5 18.5 11.5 30.5s-3.83301 22 -11.5 30s-18.167 12 -31.5 12c-12 0 -22 -4 -30 -12s-12 -18 -12 -30zM75 472v-321.998c0 -49.333 11.833 -88.333 35.5 -117s61.167 -43 112.5 -43c40.667 0 75.167 10.667 103.5 32s49.833 50 64.5 86v-108h54v472h-56v-250
c0 -28.667 -4 -54.334 -12 -77.001s-19 -41.834 -33 -57.501s-30.167 -27.667 -48.5 -36s-37.5 -12.5 -57.5 -12.5c-37.333 0 -64.5 10.333 -81.5 31s-25.5 50 -25.5 88v314h-56z" />
    <glyph glyph-name="yacute" unicode="&#xfd;" horiz-adv-x="413" 
d="M208 60l-140 412h-58l170 -473l-61 -177h54l231 650h-59zM174 541h47l86 152h-66z" />
    <glyph glyph-name="thorn" unicode="&#xfe;" horiz-adv-x="537" 
d="M491 236c0 34 -3.66602 66 -10.999 96s-18.666 56.167 -33.999 78.5s-34.833 39.833 -58.5 52.5s-52.167 19 -85.5 19c-38.667 0 -72 -9.83301 -100 -29.5s-50 -47.167 -66 -82.5v296h-56v-844h56v280c15.333 -34 37.166 -61.167 65.499 -81.5s61.833 -30.5 100.5 -30.5
c33.333 0 61.833 6.5 85.5 19.5s43.167 30.5 58.5 52.5s26.666 48 33.999 78s11 62 11 96zM436.001 236c0 -28.667 -2.66699 -55.1631 -8 -79.4961s-13.833 -45.5 -25.5 -63.5s-26.5 -32 -44.5 -42s-40 -15 -66 -15s-48.833 5.66699 -68.5 17s-36 26.166 -49 44.499
s-22.667 39.5 -29 63.5s-9.5 49 -9.5 75s3.16699 51.167 9.5 75.5s16 45.666 29 63.999s29.333 33.166 49 44.499s42.5 17 68.5 17s48 -5 66 -15s32.833 -24 44.5 -42s20.167 -39.333 25.5 -64s8 -51.334 8 -80.001z" />
    <glyph glyph-name="ydieresis" unicode="&#xff;" horiz-adv-x="413" 
d="M208 60l-140 412h-58l170 -473l-61 -177h54l231 650h-59zM259 606c0 -12 4 -22.167 12 -30.5s18.333 -12.5 31 -12.5s23 4.16699 31 12.5s12 18.5 12 30.5s-4 22 -12 30s-18.333 12 -31 12s-23 -4 -31 -12s-12 -18 -12 -30zM83 606c0 -12 4 -22.167 12 -30.5
s18 -12.5 30 -12.5c13.333 0 23.833 4.16699 31.5 12.5s11.5 18.5 11.5 30.5s-3.83301 22 -11.5 30s-18.167 12 -31.5 12c-12 0 -22 -4 -30 -12s-12 -18 -12 -30z" />
    <glyph glyph-name="Amacron" unicode="&#x100;" horiz-adv-x="609" 
d="M23 0h57l69 190h310l70 -190h57l-250 666h-62zM305 620l137 -381h-275zM450 768v45h-291v-45h291z" />
    <glyph glyph-name="amacron" unicode="&#x101;" horiz-adv-x="495" 
d="M424 0v332.999c0 50.667 -14.833 88.167 -44.5 112.5s-73.5 36.5 -131.5 36.5c-62 0 -116.667 -11.333 -164 -34l10 -45c48 21.333 97.333 32 148 32c42 0 73.5 -8.5 94.5 -25.5s31.5 -44.5 31.5 -82.5v-56h-152c-50 0 -90 -12 -120 -36s-45 -59.667 -45 -107
c0 -43.333 13.167 -77.166 39.5 -101.499s62.5 -36.5 108.5 -36.5c40.667 0 75.167 8.5 103.5 25.5s50.833 41.5 67.5 73.5v-89h54zM368 182.999c0 -18.667 -3.66699 -37.1689 -11 -55.502s-17.833 -34.666 -31.5 -48.999s-30.167 -25.833 -49.5 -34.5s-41 -13 -65 -13
c-38 0 -65 8.33301 -81 25s-24 40.334 -24 71.001c0 34 8.83301 59.5 26.5 76.5s47.5 25.5 89.5 25.5h146v-46zM378 573.997v45h-248v-45h248z" />
    <glyph glyph-name="Abreve" unicode="&#x102;" horiz-adv-x="609" 
d="M23 0h57l69 190h310l70 -190h57l-250 666h-62zM305 620l137 -381h-275zM386 845c0 -22 -7.16699 -39.501 -21.5 -52.501s-34.5 -19.5 -60.5 -19.5s-46 6.33301 -60 19s-21 30.334 -21 53.001h-46c0 -34.667 11.667 -61.667 35 -81s54 -29 92 -29s68.833 9.66699 92.5 29
s35.5 46.333 35.5 81h-46z" />
    <glyph glyph-name="abreve" unicode="&#x103;" horiz-adv-x="495" 
d="M424 0v332.999c0 50.667 -14.833 88.167 -44.5 112.5s-73.5 36.5 -131.5 36.5c-62 0 -116.667 -11.333 -164 -34l10 -45c48 21.333 97.333 32 148 32c42 0 73.5 -8.5 94.5 -25.5s31.5 -44.5 31.5 -82.5v-56h-152c-50 0 -90 -12 -120 -36s-45 -59.667 -45 -107
c0 -43.333 13.167 -77.166 39.5 -101.499s62.5 -36.5 108.5 -36.5c40.667 0 75.167 8.5 103.5 25.5s50.833 41.5 67.5 73.5v-89h54zM368 182.999c0 -18.667 -3.66699 -37.1689 -11 -55.502s-17.833 -34.666 -31.5 -48.999s-30.167 -25.833 -49.5 -34.5s-41 -13 -65 -13
c-38 0 -65 8.33301 -81 25s-24 40.334 -24 71.001c0 34 8.83301 59.5 26.5 76.5s47.5 25.5 89.5 25.5h146v-46zM369 657.997l-43 0.00195312c0 -22.667 -6.66699 -40.834 -20 -54.501s-33 -20.5 -59 -20.5s-45.667 6.66699 -59 20s-20 31.666 -20 54.999h-43
c0 -35.333 11.333 -62.833 34 -82.5s52 -29.5 88 -29.5s65.333 9.83301 88 29.5s34 47.167 34 82.5z" />
    <glyph glyph-name="Aogonek" unicode="&#x104;" horiz-adv-x="609" 
d="M336 666l-62.001 0.00292969l-251 -666h57l69 190h310l70 -190c-10.667 -6 -21.167 -12.667 -31.5 -20s-19.666 -15.5 -27.999 -24.5s-15 -19.167 -20 -30.5s-7.5 -24 -7.5 -38c0 -22.667 7 -40.834 21 -54.501s34 -20.5 60 -20.5c12.667 0 24.5 1.16699 35.5 3.5
s20.167 5.16602 27.5 8.49902l-6 34c-6.66699 -2.66699 -13.5 -4.66699 -20.5 -6s-15.167 -2 -24.5 -2c-29.333 0 -44 13.667 -44 41c0 13.333 3 25.166 9 35.499s13.5 19.833 22.5 28.5s19.167 16.5 30.5 23.5s22.333 14.167 33 21.5zM304.999 620.003l137 -381h-275z" />
    <glyph glyph-name="aogonek" unicode="&#x105;" horiz-adv-x="495" 
d="M416 -141c-12.667 -5.33301 -27.3291 -8 -43.9961 -8c-14 0 -25 3 -33 9s-12 15.667 -12 29s3 25.333 9 36s13.667 20.334 23 29.001s19.666 16.667 30.999 24l33 22v333c0 50.667 -14.833 88.167 -44.5 112.5s-73.5 36.5 -131.5 36.5c-62 0 -116.667 -11.333 -164 -34
l10 -45c48 21.333 97.333 32 148 32c42 0 73.5 -8.5 94.5 -25.5s31.5 -44.5 31.5 -82.5v-56h-152c-50 0 -90 -12 -120 -36s-45 -59.667 -45 -107c0 -43.333 13.167 -77.166 39.5 -101.499s62.5 -36.5 108.5 -36.5c40.667 0 75.167 8.5 103.5 25.5s50.833 41.5 67.5 73.5v-89
l-31 -19.5c-10.667 -7 -20.334 -15.167 -29.001 -24.5s-15.834 -19.833 -21.501 -31.5s-8.5 -24.834 -8.5 -39.501c0 -22 7 -39.667 21 -53s34 -20 60 -20c12 0 23.667 1.16699 35 3.5s20.666 5.16602 27.999 8.49902zM367.005 183c0 -18.667 -3.66699 -37.1689 -11 -55.502
s-17.833 -34.666 -31.5 -48.999s-30.167 -25.833 -49.5 -34.5s-41 -13 -65 -13c-38 0 -65 8.33301 -81 25s-24 40.334 -24 71.001c0 34 8.83301 59.5 26.5 76.5s47.5 25.5 89.5 25.5h146v-46z" />
    <glyph glyph-name="Cacute" unicode="&#x106;" horiz-adv-x="594" 
d="M50 333c0 -51.333 7.5 -98.1699 22.5 -140.503s36.667 -78.666 65 -108.999s62.833 -53.833 103.5 -70.5s87 -25 139 -25c34 0 66.5 3 97.5 9s56.5 13.333 76.5 22l-9 47c-22 -8 -46.833 -14.667 -74.5 -20s-55.167 -8 -82.5 -8c-44 0 -83.333 6.83301 -118 20.5
s-64 33.167 -88 58.5s-42.5 56.333 -55.5 93s-19.5 77.667 -19.5 123s6.5 86.166 19.5 122.499s31.5 67.333 55.5 93s53.333 45.334 88 59.001s74 20.5 118 20.5c27.333 0 54.833 -2.66699 82.5 -8s52.5 -12 74.5 -20l9 47c-20 8.66699 -45.5 16 -76.5 22s-63.5 9 -97.5 9
c-52 0 -98.333 -8.33301 -139 -25s-75.167 -40.167 -103.5 -70.5s-50 -66.666 -65 -108.999s-22.5 -89.166 -22.5 -140.499zM487 862.996h-70l-88 -132h50z" />
    <glyph glyph-name="cacute" unicode="&#x107;" horiz-adv-x="431" 
d="M223 541h47l86 152h-66zM395 455c-15.333 8.66699 -34.833 15.332 -58.5 19.999s-47.834 7 -72.501 7c-70.667 0 -124.834 -21.333 -162.501 -64s-56.5 -103.334 -56.5 -182.001s18.833 -139.334 56.5 -182.001s91.834 -64 162.501 -64c24.667 0 48.834 2.5 72.501 7.5
s43.167 11.5 58.5 19.5l-10 43c-15.333 -6.66699 -32.666 -12.167 -51.999 -16.5s-40.333 -6.5 -63 -6.5c-30.667 0 -56.667 4.83301 -78 14.5s-38.833 23.334 -52.5 41.001s-23.5 38.667 -29.5 63s-9 51.166 -9 80.499s3 56.333 9 81s15.833 45.834 29.5 63.501
s31.167 31.334 52.5 41.001s47.333 14.5 78 14.5c22.667 0 43.667 -2.16699 63 -6.5s36.666 -10.166 51.999 -17.499z" />
    <glyph glyph-name="Ccircumflex" unicode="&#x108;" horiz-adv-x="594" 
d="M50 333c0 -51.333 7.5 -98.1699 22.5 -140.503s36.667 -78.666 65 -108.999s62.833 -53.833 103.5 -70.5s87 -25 139 -25c34 0 66.5 3 97.5 9s56.5 13.333 76.5 22l-9 47c-22 -8 -46.833 -14.667 -74.5 -20s-55.167 -8 -82.5 -8c-44 0 -83.333 6.83301 -118 20.5
s-64 33.167 -88 58.5s-42.5 56.333 -55.5 93s-19.5 77.667 -19.5 123s6.5 86.166 19.5 122.499s31.5 67.333 55.5 93s53.333 45.334 88 59.001s74 20.5 118 20.5c27.333 0 54.833 -2.66699 82.5 -8s52.5 -12 74.5 -20l9 47c-20 8.66699 -45.5 16 -76.5 22s-63.5 9 -97.5 9
c-52 0 -98.333 -8.33301 -139 -25s-75.167 -40.167 -103.5 -70.5s-50 -66.666 -65 -108.999s-22.5 -89.166 -22.5 -140.499zM393 862.996h-56l-112 -132h55l85 102l85 -102h56z" />
    <glyph glyph-name="ccircumflex" unicode="&#x109;" horiz-adv-x="431" 
d="M280 693h-58l-101 -152h54l76 119l77 -119h54zM395 455c-15.333 8.66699 -34.833 15.332 -58.5 19.999s-47.834 7 -72.501 7c-70.667 0 -124.834 -21.333 -162.501 -64s-56.5 -103.334 -56.5 -182.001s18.833 -139.334 56.5 -182.001s91.834 -64 162.501 -64
c24.667 0 48.834 2.5 72.501 7.5s43.167 11.5 58.5 19.5l-10 43c-15.333 -6.66699 -32.666 -12.167 -51.999 -16.5s-40.333 -6.5 -63 -6.5c-30.667 0 -56.667 4.83301 -78 14.5s-38.833 23.334 -52.5 41.001s-23.5 38.667 -29.5 63s-9 51.166 -9 80.499s3 56.333 9 81
s15.833 45.834 29.5 63.501s31.167 31.334 52.5 41.001s47.333 14.5 78 14.5c22.667 0 43.667 -2.16699 63 -6.5s36.666 -10.166 51.999 -17.499z" />
    <glyph glyph-name="Cdotaccent" unicode="&#x10a;" horiz-adv-x="594" 
d="M325 797c0 -11.333 3.66699 -21.5 11 -30.5s18 -13.5 32 -13.5c13.333 0 23.833 4.5 31.5 13.5s11.5 19.167 11.5 30.5s-3.83301 21.5 -11.5 30.5s-18.167 13.5 -31.5 13.5c-14 0 -24.667 -4.5 -32 -13.5s-11 -19.167 -11 -30.5zM50 333
c0 -51.333 7.5 -98.1699 22.5 -140.503s36.667 -78.666 65 -108.999s62.833 -53.833 103.5 -70.5s87 -25 139 -25c34 0 66.5 3 97.5 9s56.5 13.333 76.5 22l-9 47c-22 -8 -46.833 -14.667 -74.5 -20s-55.167 -8 -82.5 -8c-44 0 -83.333 6.83301 -118 20.5
s-64 33.167 -88 58.5s-42.5 56.333 -55.5 93s-19.5 77.667 -19.5 123s6.5 86.166 19.5 122.499s31.5 67.333 55.5 93s53.333 45.334 88 59.001s74 20.5 118 20.5c27.333 0 54.833 -2.66699 82.5 -8s52.5 -12 74.5 -20l9 47c-20 8.66699 -45.5 16 -76.5 22s-63.5 9 -97.5 9
c-52 0 -98.333 -8.33301 -139 -25s-75.167 -40.167 -103.5 -70.5s-50 -66.666 -65 -108.999s-22.5 -89.166 -22.5 -140.499z" />
    <glyph glyph-name="cdotaccent" unicode="&#x10b;" horiz-adv-x="431" 
d="M395 455c-15.333 8.66699 -34.833 15.332 -58.5 19.999s-47.834 7 -72.501 7c-70.667 0 -124.834 -21.333 -162.501 -64s-56.5 -103.334 -56.5 -182.001s18.833 -139.334 56.5 -182.001s91.834 -64 162.501 -64c24.667 0 48.834 2.5 72.501 7.5s43.167 11.5 58.5 19.5
l-10 43c-15.333 -6.66699 -32.666 -12.167 -51.999 -16.5s-40.333 -6.5 -63 -6.5c-30.667 0 -56.667 4.83301 -78 14.5s-38.833 23.334 -52.5 41.001s-23.5 38.667 -29.5 63s-9 51.166 -9 80.499s3 56.333 9 81s15.833 45.834 29.5 63.501s31.167 31.334 52.5 41.001
s47.333 14.5 78 14.5c22.667 0 43.667 -2.16699 63 -6.5s36.666 -10.166 51.999 -17.499zM206 598.998c0 -11.333 3.66699 -21.5 11 -30.5s18 -13.5 32 -13.5c13.333 0 23.833 4.5 31.5 13.5s11.5 19.167 11.5 30.5c0 12 -3.83301 22.333 -11.5 31s-18.167 13 -31.5 13
c-14 0 -24.667 -4.33301 -32 -13s-11 -19 -11 -31z" />
    <glyph glyph-name="Ccaron" unicode="&#x10c;" horiz-adv-x="594" 
d="M50 333c0 -51.333 7.5 -98.1699 22.5 -140.503s36.667 -78.666 65 -108.999s62.833 -53.833 103.5 -70.5s87 -25 139 -25c34 0 66.5 3 97.5 9s56.5 13.333 76.5 22l-9 47c-22 -8 -46.833 -14.667 -74.5 -20s-55.167 -8 -82.5 -8c-44 0 -83.333 6.83301 -118 20.5
s-64 33.167 -88 58.5s-42.5 56.333 -55.5 93s-19.5 77.667 -19.5 123s6.5 86.166 19.5 122.499s31.5 67.333 55.5 93s53.333 45.334 88 59.001s74 20.5 118 20.5c27.333 0 54.833 -2.66699 82.5 -8s52.5 -12 74.5 -20l9 47c-20 8.66699 -45.5 16 -76.5 22s-63.5 9 -97.5 9
c-52 0 -98.333 -8.33301 -139 -25s-75.167 -40.167 -103.5 -70.5s-50 -66.666 -65 -108.999s-22.5 -89.166 -22.5 -140.499zM510 862.996h-56l-85 -101l-85 101h-55l112 -132h56z" />
    <glyph glyph-name="ccaron" unicode="&#x10d;" horiz-adv-x="431" 
d="M386 693h-54l-77 -119l-76 119h-54l101 -152h58zM395 455c-15.333 8.66699 -34.833 15.332 -58.5 19.999s-47.834 7 -72.501 7c-70.667 0 -124.834 -21.333 -162.501 -64s-56.5 -103.334 -56.5 -182.001s18.833 -139.334 56.5 -182.001s91.834 -64 162.501 -64
c24.667 0 48.834 2.5 72.501 7.5s43.167 11.5 58.5 19.5l-10 43c-15.333 -6.66699 -32.666 -12.167 -51.999 -16.5s-40.333 -6.5 -63 -6.5c-30.667 0 -56.667 4.83301 -78 14.5s-38.833 23.334 -52.5 41.001s-23.5 38.667 -29.5 63s-9 51.166 -9 80.499s3 56.333 9 81
s15.833 45.834 29.5 63.501s31.167 31.334 52.5 41.001s47.333 14.5 78 14.5c22.667 0 43.667 -2.16699 63 -6.5s36.666 -10.166 51.999 -17.499z" />
    <glyph glyph-name="Dcaron" unicode="&#x10e;" horiz-adv-x="667" 
d="M85 0l229 0.00195312c44 0 85 8.16699 123 24.5s70.667 39.166 98 68.499s48.833 64.333 64.5 105s23.5 85.667 23.5 135s-7.83301 94.333 -23.5 135s-37.167 75.667 -64.5 105s-60 52.166 -98 68.499s-79 24.5 -123 24.5h-229v-666zM143 50.002l0.000976562 566h169
c34 0 66.5 -6.5 97.5 -19.5s58 -31.667 81 -56s41.333 -54 55 -89s20.5 -74.5 20.5 -118.5s-6.83301 -83.5 -20.5 -118.5s-32 -64.667 -55 -89s-49.833 -43 -80.5 -56s-63.334 -19.5 -98.001 -19.5h-169zM432.001 863.002h-56l-85 -101l-85 101h-55l112 -132h56z" />
    <glyph glyph-name="dcaron" unicode="&#x10f;" horiz-adv-x="672" 
d="M667 666h-65l-52 -205h42zM45 236c0 -34 3.66699 -66 11 -96s18.666 -56 33.999 -78s34.833 -39.5 58.5 -52.5s52.167 -19.5 85.5 -19.5c40 0 74.167 10 102.5 30s50.5 47.333 66.5 82v-102h54v666h-56v-296c-15.333 35.333 -37 62.833 -65 82.5s-61.667 29.5 -101 29.5
c-33.333 0 -62 -6.33301 -86 -19s-43.667 -30.167 -59 -52.5s-26.666 -48.5 -33.999 -78.5s-11 -62 -11 -96zM101 236c0 28.667 2.66699 55.3301 8 79.9971s13.833 46 25.5 64s26.5 32 44.5 42s40 15 66 15s48.667 -5.66699 68 -17s35.5 -26.166 48.5 -44.499
s22.833 -39.666 29.5 -63.999s10 -49.5 10 -75.5s-3.33301 -51 -10 -75s-16.5 -45.167 -29.5 -63.5s-29.167 -33.166 -48.5 -44.499s-42 -17 -68 -17s-48 5 -66 15s-32.833 24 -44.5 42s-20.167 39.167 -25.5 63.5s-8 50.833 -8 79.5z" />
    <glyph glyph-name="Dcroat" unicode="&#x110;" horiz-adv-x="679" 
d="M31 309l72 0.00195312v-309h229c44 0 85 8.16699 123 24.5s70.667 39.166 98 68.499s48.833 64.333 64.5 105s23.5 85.667 23.5 135s-7.83301 94.333 -23.5 135s-37.167 75.667 -64.5 105s-60 52.166 -98 68.499s-79 24.5 -123 24.5h-229v-308h-72v-49zM584 333.002
c0 -44 -6.83203 -83.5 -20.499 -118.5s-32 -64.667 -55 -89s-49.833 -43 -80.5 -56s-63.334 -19.5 -98.001 -19.5h-169v259h209v49h-209v258h169c34 0 66.5 -6.5 97.5 -19.5s58 -31.667 81 -56s41.333 -54 55 -89s20.5 -74.5 20.5 -118.5z" />
    <glyph glyph-name="dcroat" unicode="&#x111;" horiz-adv-x="554" 
d="M45 236c0 -34 3.66699 -66 11 -96s18.666 -56 33.999 -78s34.833 -39.5 58.5 -52.5s52.167 -19.5 85.5 -19.5c40 0 74.167 10 102.5 30s50.5 47.333 66.5 82v-102h54v552h67v37h-67v77h-56v-77h-127v-37h127v-182c-15.333 35.333 -37 62.833 -65 82.5
s-61.667 29.5 -101 29.5c-33.333 0 -62 -6.33301 -86 -19s-43.667 -30.167 -59 -52.5s-26.666 -48.5 -33.999 -78.5s-11 -62 -11 -96zM101 236c0 28.667 2.66699 55.3301 8 79.9971s13.833 46 25.5 64s26.5 32 44.5 42s40 15 66 15s48.667 -5.66699 68 -17
s35.5 -26.166 48.5 -44.499s22.833 -39.666 29.5 -63.999s10 -49.5 10 -75.5s-3.33301 -51 -10 -75s-16.5 -45.167 -29.5 -63.5s-29.167 -33.166 -48.5 -44.499s-42 -17 -68 -17s-48 5 -66 15s-32.833 24 -44.5 42s-20.167 39.167 -25.5 63.5s-8 50.833 -8 79.5z" />
    <glyph glyph-name="Emacron" unicode="&#x112;" 
d="M85 0h415v49h-358v272h334v49h-334v247h358v49h-415v-666zM439 768v45h-291v-45h291z" />
    <glyph glyph-name="emacron" unicode="&#x113;" horiz-adv-x="477" 
d="M435 219l0.00390625 44.998c0 30 -3.16699 58.333 -9.5 85s-16.5 49.834 -30.5 69.501s-32.5 35.167 -55.5 46.5s-51.167 17 -84.5 17c-35.333 0 -66 -5.83301 -92 -17.5s-47.833 -28.167 -65.5 -49.5s-30.834 -47.166 -39.501 -77.499s-13 -64.166 -13 -101.499
c0 -36 4.16699 -69 12.5 -99s21.333 -55.833 39 -77.5s40.667 -38.667 69 -51s62.5 -18.5 102.5 -18.5c32 0 62 3.33301 90 10s51.667 14.667 71 24l-9 39c-20 -8.66699 -42.5 -15.834 -67.5 -21.501s-51.167 -8.5 -78.5 -8.5c-31.333 0 -57.833 4.33301 -79.5 13
s-39.334 21.167 -53.001 37.5s-23.834 36 -30.501 59s-10.334 48.5 -11.001 76.5h335zM254.004 441.998c24 0 44.167 -4.33301 60.5 -13s29.5 -20.5 39.5 -35.5s17.167 -32.833 21.5 -53.5s6.5 -42.667 6.5 -66v-13h-281c6 120.667 57 181 153 181zM370.004 573.998v45h-248
v-45h248z" />
    <glyph glyph-name="Ebreve" unicode="&#x114;" 
d="M85 0h415v49h-358v272h334v49h-334v247h358v49h-415v-666zM382 845c0 -22 -7.16699 -39.501 -21.5 -52.501s-34.5 -19.5 -60.5 -19.5s-46 6.33301 -60 19s-21 30.334 -21 53.001h-46c0 -34.667 11.667 -61.667 35 -81s54 -29 92 -29s68.833 9.66699 92.5 29
s35.5 46.333 35.5 81h-46z" />
    <glyph glyph-name="ebreve" unicode="&#x115;" horiz-adv-x="477" 
d="M435 219l0.00390625 44.998c0 30 -3.16699 58.333 -9.5 85s-16.5 49.834 -30.5 69.501s-32.5 35.167 -55.5 46.5s-51.167 17 -84.5 17c-35.333 0 -66 -5.83301 -92 -17.5s-47.833 -28.167 -65.5 -49.5s-30.834 -47.166 -39.501 -77.499s-13 -64.166 -13 -101.499
c0 -36 4.16699 -69 12.5 -99s21.333 -55.833 39 -77.5s40.667 -38.667 69 -51s62.5 -18.5 102.5 -18.5c32 0 62 3.33301 90 10s51.667 14.667 71 24l-9 39c-20 -8.66699 -42.5 -15.834 -67.5 -21.501s-51.167 -8.5 -78.5 -8.5c-31.333 0 -57.833 4.33301 -79.5 13
s-39.334 21.167 -53.001 37.5s-23.834 36 -30.501 59s-10.334 48.5 -11.001 76.5h335zM254.004 441.998c24 0 44.167 -4.33301 60.5 -13s29.5 -20.5 39.5 -35.5s17.167 -32.833 21.5 -53.5s6.5 -42.667 6.5 -66v-13h-281c6 120.667 57 181 153 181zM374.004 657.998
l-43 0.00195312c0 -22.667 -6.66699 -40.834 -20 -54.501s-33 -20.5 -59 -20.5s-45.667 6.66699 -59 20s-20 31.666 -20 54.999h-43c0 -35.333 11.333 -62.833 34 -82.5s52 -29.5 88 -29.5s65.333 9.83301 88 29.5s34 47.167 34 82.5z" />
    <glyph glyph-name="Edotaccent" unicode="&#x116;" 
d="M252 797c0 -11.333 3.66699 -21.5 11 -30.5s18 -13.5 32 -13.5c13.333 0 23.833 4.5 31.5 13.5s11.5 19.167 11.5 30.5s-3.83301 21.5 -11.5 30.5s-18.167 13.5 -31.5 13.5c-14 0 -24.667 -4.5 -32 -13.5s-11 -19.167 -11 -30.5zM85 0h415v49h-358v272h334v49h-334v247
h358v49h-415v-666z" />
    <glyph glyph-name="edotaccent" unicode="&#x117;" horiz-adv-x="477" 
d="M435 219l0.00390625 44.998c0 30 -3.16699 58.333 -9.5 85s-16.5 49.834 -30.5 69.501s-32.5 35.167 -55.5 46.5s-51.167 17 -84.5 17c-35.333 0 -66 -5.83301 -92 -17.5s-47.833 -28.167 -65.5 -49.5s-30.834 -47.166 -39.501 -77.499s-13 -64.166 -13 -101.499
c0 -36 4.16699 -69 12.5 -99s21.333 -55.833 39 -77.5s40.667 -38.667 69 -51s62.5 -18.5 102.5 -18.5c32 0 62 3.33301 90 10s51.667 14.667 71 24l-9 39c-20 -8.66699 -42.5 -15.834 -67.5 -21.501s-51.167 -8.5 -78.5 -8.5c-31.333 0 -57.833 4.33301 -79.5 13
s-39.334 21.167 -53.001 37.5s-23.834 36 -30.501 59s-10.334 48.5 -11.001 76.5h335zM254.004 441.998c24 0 44.167 -4.33301 60.5 -13s29.5 -20.5 39.5 -35.5s17.167 -32.833 21.5 -53.5s6.5 -42.667 6.5 -66v-13h-281c6 120.667 57 181 153 181zM204.004 598.998
c0 -11.333 3.66699 -21.5 11 -30.5s18 -13.5 32 -13.5c13.333 0 23.833 4.5 31.5 13.5s11.5 19.167 11.5 30.5c0 12 -3.83301 22.333 -11.5 31s-18.167 13 -31.5 13c-14 0 -24.667 -4.33301 -32 -13s-11 -19 -11 -31z" />
    <glyph glyph-name="Eogonek" unicode="&#x118;" 
d="M85 0l361.005 -0.000976562c-10 -5.33301 -20.333 -11.666 -31 -18.999s-20.334 -15.666 -29.001 -24.999s-15.834 -19.833 -21.501 -31.5s-8.5 -24.834 -8.5 -39.501c0 -22 7 -39.667 21 -53s34 -20 60 -20c12 0 23.667 1.16699 35 3.5s20.666 5.16602 27.999 8.49902
l-7 35c-12.667 -5.33301 -27.334 -8 -44.001 -8c-14 0 -25 3 -33 9s-12 15.667 -12 29s3 25.333 9 36s13.667 20.334 23 29.001s19.666 16.667 30.999 24l33 22v49h-358v272h334v49h-334v247h358v49h-415v-666z" />
    <glyph glyph-name="eogonek" unicode="&#x119;" horiz-adv-x="477" 
d="M435 219l0.00195312 44.9971c0 30 -3.16699 58.333 -9.5 85s-16.5 49.834 -30.5 69.501s-32.5 35.167 -55.5 46.5s-51.167 17 -84.5 17c-35.333 0 -66 -5.83301 -92 -17.5s-47.833 -28.167 -65.5 -49.5s-30.834 -47.166 -39.501 -77.499s-13 -64.166 -13 -101.499
c0 -36 4.16699 -69 12.5 -99s21.333 -55.833 39 -77.5s40.667 -38.667 69 -51s62.5 -18.5 102.5 -18.5c11.333 0 22.333 0.5 33 1.5s21.334 2.16699 32.001 3.5c-27.333 -13.333 -49.666 -28.166 -66.999 -44.499s-26 -38.5 -26 -66.5c0 -21.333 7 -38.666 21 -51.999
s34 -20 60 -20c12.667 0 24.5 1.16699 35.5 3.5s20.167 5.16602 27.5 8.49902l-6 33c-6.66699 -2.66699 -13.5 -4.66699 -20.5 -6s-15.167 -2 -24.5 -2c-29.333 0 -44 14 -44 42c0 14.667 4 28.167 12 40.5s18.667 23.833 32 34.5s28.333 20.667 45 30l51 28l-9 39
c-20 -8.66699 -42.5 -15.834 -67.5 -21.501s-51.167 -8.5 -78.5 -8.5c-31.333 0 -57.833 4.33301 -79.5 13s-39.334 21.167 -53.001 37.5s-23.834 36 -30.501 59s-10.334 48.5 -11.001 76.5h335zM254.002 441.997c24 0 44.167 -4.33301 60.5 -13s29.5 -20.5 39.5 -35.5
s17.167 -32.833 21.5 -53.5s6.5 -42.667 6.5 -66v-13h-281c6 120.667 57 181 153 181z" />
    <glyph glyph-name="Ecaron" unicode="&#x11a;" 
d="M85 0h415v49h-358v272h334v49h-334v247h358v49h-415v-666zM439 863h-56l-85 -101l-85 101h-55l112 -132h56z" />
    <glyph glyph-name="ecaron" unicode="&#x11b;" horiz-adv-x="477" 
d="M378 693h-54l-77 -119l-76 119h-54l101 -152h58zM435 219l0.00390625 44.998c0 30 -3.16699 58.333 -9.5 85s-16.5 49.834 -30.5 69.501s-32.5 35.167 -55.5 46.5s-51.167 17 -84.5 17c-35.333 0 -66 -5.83301 -92 -17.5s-47.833 -28.167 -65.5 -49.5
s-30.834 -47.166 -39.501 -77.499s-13 -64.166 -13 -101.499c0 -36 4.16699 -69 12.5 -99s21.333 -55.833 39 -77.5s40.667 -38.667 69 -51s62.5 -18.5 102.5 -18.5c32 0 62 3.33301 90 10s51.667 14.667 71 24l-9 39c-20 -8.66699 -42.5 -15.834 -67.5 -21.501
s-51.167 -8.5 -78.5 -8.5c-31.333 0 -57.833 4.33301 -79.5 13s-39.334 21.167 -53.001 37.5s-23.834 36 -30.501 59s-10.334 48.5 -11.001 76.5h335zM254.004 441.998c24 0 44.167 -4.33301 60.5 -13s29.5 -20.5 39.5 -35.5s17.167 -32.833 21.5 -53.5s6.5 -42.667 6.5 -66
v-13h-281c6 120.667 57 181 153 181z" />
    <glyph glyph-name="Gcircumflex" unicode="&#x11c;" horiz-adv-x="648" 
d="M400 863h-56l-112 -132h55l85 102l85 -102h56zM50 332c0 -50 7.33301 -96 22 -138s36.334 -78.333 65.001 -109s64 -54.5 106 -71.5s90 -25.5 144 -25.5c17.333 0 35 0.666992 53 2s35.5 3.16602 52.5 5.49902s33 5.16602 48 8.49902s28.5 7 40.5 11v274h-55v-237
c-8 -2 -17.5 -4 -28.5 -6s-22.667 -3.66699 -35 -5s-24.833 -2.5 -37.5 -3.5s-25 -1.5 -37 -1.5c-44.667 0 -84.5 6.83301 -119.5 20.5s-64.5 33.334 -88.5 59.001s-42.167 56.834 -54.5 93.501s-18.5 77.667 -18.5 123c0 46 6.5 87.333 19.5 124s31.833 67.667 56.5 93
s54.667 44.833 90 58.5s75.333 20.5 120 20.5c36 0 68.667 -2.83301 98 -8.5s57.666 -13.167 84.999 -22.5l9 48c-30 12 -61.167 20.5 -93.5 25.5s-66.5 7.5 -102.5 7.5c-54 0 -102.167 -8.33301 -144.5 -25s-77.833 -40.334 -106.5 -71.001s-50.5 -67.167 -65.5 -109.5
s-22.5 -89.166 -22.5 -140.499z" />
    <glyph glyph-name="gcircumflex" unicode="&#x11d;" horiz-adv-x="537" 
d="M295 693h-58l-101 -152h54l76 119l77 -119h54zM457 472l-55.002 -0.000976562v-100c-15.333 36.667 -37.333 64.167 -66 82.5s-61.334 27.5 -98.001 27.5c-34.667 0 -64.167 -6.66699 -88.5 -20s-44.333 -31 -60 -53s-27 -47.333 -34 -76s-10.5 -58 -10.5 -88
s3.5 -59.333 10.5 -88s18.333 -54 34 -76s35.667 -39.667 60 -53s53.833 -20 88.5 -20c36 0 68.333 9.83301 97 29.5s50.667 46.834 66 81.501v-98c0 -23.333 -2.33301 -45 -7 -65s-12.667 -37.333 -24 -52s-27 -26.334 -47 -35.001s-45 -13 -75 -13
c-25.333 0 -50.666 2.83301 -75.999 8.5s-49.666 12.834 -72.999 21.501l-9 -43c22.667 -9.33301 48.167 -16.833 76.5 -22.5s55.5 -8.5 81.5 -8.5c40.667 0 74.334 5.66699 101.001 17s48 26.5 64 45.5s27.333 41.333 34 67s10 52.5 10 80.5v450zM400.998 244.999
c0 -25.333 -3.33301 -49.5 -10 -72.5s-16.334 -43.333 -29.001 -61s-28.334 -31.834 -47.001 -42.501s-40.334 -16 -65.001 -16c-25.333 0 -47.333 4.83301 -66 14.5s-34.167 23 -46.5 40s-21.666 37.333 -27.999 61s-9.5 49.167 -9.5 76.5
c0 26.667 3.16699 51.834 9.5 75.501s15.666 44.167 27.999 61.5s27.833 31 46.5 41s40.667 15 66 15c24.667 0 46.334 -5.33301 65.001 -16s34.334 -25 47.001 -43s22.334 -38.667 29.001 -62s10 -47.333 10 -72z" />
    <glyph glyph-name="Gbreve" unicode="&#x11e;" horiz-adv-x="648" 
d="M50 332c0 -50 7.33301 -96 22 -138s36.334 -78.333 65.001 -109s64 -54.5 106 -71.5s90 -25.5 144 -25.5c17.333 0 35 0.666992 53 2s35.5 3.16602 52.5 5.49902s33 5.16602 48 8.49902s28.5 7 40.5 11v274h-55v-237c-8 -2 -17.5 -4 -28.5 -6s-22.667 -3.66699 -35 -5
s-24.833 -2.5 -37.5 -3.5s-25 -1.5 -37 -1.5c-44.667 0 -84.5 6.83301 -119.5 20.5s-64.5 33.334 -88.5 59.001s-42.167 56.834 -54.5 93.501s-18.5 77.667 -18.5 123c0 46 6.5 87.333 19.5 124s31.833 67.667 56.5 93s54.667 44.833 90 58.5s75.333 20.5 120 20.5
c36 0 68.667 -2.83301 98 -8.5s57.666 -13.167 84.999 -22.5l9 48c-30 12 -61.167 20.5 -93.5 25.5s-66.5 7.5 -102.5 7.5c-54 0 -102.167 -8.33301 -144.5 -25s-77.833 -40.334 -106.5 -71.001s-50.5 -67.167 -65.5 -109.5s-22.5 -89.166 -22.5 -140.499zM453 845
c0 -22 -7.16699 -39.501 -21.5 -52.501s-34.5 -19.5 -60.5 -19.5s-46 6.33301 -60 19s-21 30.334 -21 53.001h-46c0 -34.667 11.667 -61.667 35 -81s54 -29 92 -29s68.833 9.66699 92.5 29s35.5 46.333 35.5 81h-46z" />
    <glyph glyph-name="gbreve" unicode="&#x11f;" horiz-adv-x="537" 
d="M457 472l-55.002 -0.000976562v-100c-15.333 36.667 -37.333 64.167 -66 82.5s-61.334 27.5 -98.001 27.5c-34.667 0 -64.167 -6.66699 -88.5 -20s-44.333 -31 -60 -53s-27 -47.333 -34 -76s-10.5 -58 -10.5 -88s3.5 -59.333 10.5 -88s18.333 -54 34 -76
s35.667 -39.667 60 -53s53.833 -20 88.5 -20c36 0 68.333 9.83301 97 29.5s50.667 46.834 66 81.501v-98c0 -23.333 -2.33301 -45 -7 -65s-12.667 -37.333 -24 -52s-27 -26.334 -47 -35.001s-45 -13 -75 -13c-25.333 0 -50.666 2.83301 -75.999 8.5
s-49.666 12.834 -72.999 21.501l-9 -43c22.667 -9.33301 48.167 -16.833 76.5 -22.5s55.5 -8.5 81.5 -8.5c40.667 0 74.334 5.66699 101.001 17s48 26.5 64 45.5s27.333 41.333 34 67s10 52.5 10 80.5v450zM400.998 244.999c0 -25.333 -3.33301 -49.5 -10 -72.5
s-16.334 -43.333 -29.001 -61s-28.334 -31.834 -47.001 -42.501s-40.334 -16 -65.001 -16c-25.333 0 -47.333 4.83301 -66 14.5s-34.167 23 -46.5 40s-21.666 37.333 -27.999 61s-9.5 49.167 -9.5 76.5c0 26.667 3.16699 51.834 9.5 75.501s15.666 44.167 27.999 61.5
s27.833 31 46.5 41s40.667 15 66 15c24.667 0 46.334 -5.33301 65.001 -16s34.334 -25 47.001 -43s22.334 -38.667 29.001 -62s10 -47.333 10 -72zM385.998 657.999l-43 0.00195312c0 -22.667 -6.66699 -40.834 -20 -54.501s-33 -20.5 -59 -20.5s-45.667 6.66699 -59 20
s-20 31.666 -20 54.999h-43c0 -35.333 11.333 -62.833 34 -82.5s52 -29.5 88 -29.5s65.333 9.83301 88 29.5s34 47.167 34 82.5z" />
    <glyph glyph-name="Gdotaccent" unicode="&#x120;" horiz-adv-x="648" 
d="M326 797c0 -11.333 3.66699 -21.5 11 -30.5s18 -13.5 32 -13.5c13.333 0 23.833 4.5 31.5 13.5s11.5 19.167 11.5 30.5s-3.83301 21.5 -11.5 30.5s-18.167 13.5 -31.5 13.5c-14 0 -24.667 -4.5 -32 -13.5s-11 -19.167 -11 -30.5zM50 332c0 -50 7.33301 -96 22 -138
s36.334 -78.333 65.001 -109s64 -54.5 106 -71.5s90 -25.5 144 -25.5c17.333 0 35 0.666992 53 2s35.5 3.16602 52.5 5.49902s33 5.16602 48 8.49902s28.5 7 40.5 11v274h-55v-237c-8 -2 -17.5 -4 -28.5 -6s-22.667 -3.66699 -35 -5s-24.833 -2.5 -37.5 -3.5
s-25 -1.5 -37 -1.5c-44.667 0 -84.5 6.83301 -119.5 20.5s-64.5 33.334 -88.5 59.001s-42.167 56.834 -54.5 93.501s-18.5 77.667 -18.5 123c0 46 6.5 87.333 19.5 124s31.833 67.667 56.5 93s54.667 44.833 90 58.5s75.333 20.5 120 20.5c36 0 68.667 -2.83301 98 -8.5
s57.666 -13.167 84.999 -22.5l9 48c-30 12 -61.167 20.5 -93.5 25.5s-66.5 7.5 -102.5 7.5c-54 0 -102.167 -8.33301 -144.5 -25s-77.833 -40.334 -106.5 -71.001s-50.5 -67.167 -65.5 -109.5s-22.5 -89.166 -22.5 -140.499z" />
    <glyph glyph-name="gdotaccent" unicode="&#x121;" horiz-adv-x="537" 
d="M457 472l-55.002 -0.000976562v-100c-15.333 36.667 -37.333 64.167 -66 82.5s-61.334 27.5 -98.001 27.5c-34.667 0 -64.167 -6.66699 -88.5 -20s-44.333 -31 -60 -53s-27 -47.333 -34 -76s-10.5 -58 -10.5 -88s3.5 -59.333 10.5 -88s18.333 -54 34 -76
s35.667 -39.667 60 -53s53.833 -20 88.5 -20c36 0 68.333 9.83301 97 29.5s50.667 46.834 66 81.501v-98c0 -23.333 -2.33301 -45 -7 -65s-12.667 -37.333 -24 -52s-27 -26.334 -47 -35.001s-45 -13 -75 -13c-25.333 0 -50.666 2.83301 -75.999 8.5
s-49.666 12.834 -72.999 21.501l-9 -43c22.667 -9.33301 48.167 -16.833 76.5 -22.5s55.5 -8.5 81.5 -8.5c40.667 0 74.334 5.66699 101.001 17s48 26.5 64 45.5s27.333 41.333 34 67s10 52.5 10 80.5v450zM400.998 244.999c0 -25.333 -3.33301 -49.5 -10 -72.5
s-16.334 -43.333 -29.001 -61s-28.334 -31.834 -47.001 -42.501s-40.334 -16 -65.001 -16c-25.333 0 -47.333 4.83301 -66 14.5s-34.167 23 -46.5 40s-21.666 37.333 -27.999 61s-9.5 49.167 -9.5 76.5c0 26.667 3.16699 51.834 9.5 75.501s15.666 44.167 27.999 61.5
s27.833 31 46.5 41s40.667 15 66 15c24.667 0 46.334 -5.33301 65.001 -16s34.334 -25 47.001 -43s22.334 -38.667 29.001 -62s10 -47.333 10 -72zM219.998 598.999c0 -11.333 3.66699 -21.5 11 -30.5s18 -13.5 32 -13.5c13.333 0 23.833 4.5 31.5 13.5
s11.5 19.167 11.5 30.5c0 12 -3.83301 22.333 -11.5 31s-18.167 13 -31.5 13c-14 0 -24.667 -4.33301 -32 -13s-11 -19 -11 -31z" />
    <glyph glyph-name="Gcommaaccent" unicode="&#x122;" horiz-adv-x="648" 
d="M426 -78h-61l-38 -172h43zM50 332c0 -50 7.33301 -96 22 -138s36.334 -78.333 65.001 -109s64 -54.5 106 -71.5s90 -25.5 144 -25.5c17.333 0 35 0.666992 53 2s35.5 3.16602 52.5 5.49902s33 5.16602 48 8.49902s28.5 7 40.5 11v274h-55v-237c-8 -2 -17.5 -4 -28.5 -6
s-22.667 -3.66699 -35 -5s-24.833 -2.5 -37.5 -3.5s-25 -1.5 -37 -1.5c-44.667 0 -84.5 6.83301 -119.5 20.5s-64.5 33.334 -88.5 59.001s-42.167 56.834 -54.5 93.501s-18.5 77.667 -18.5 123c0 46 6.5 87.333 19.5 124s31.833 67.667 56.5 93s54.667 44.833 90 58.5
s75.333 20.5 120 20.5c36 0 68.667 -2.83301 98 -8.5s57.666 -13.167 84.999 -22.5l9 48c-30 12 -61.167 20.5 -93.5 25.5s-66.5 7.5 -102.5 7.5c-54 0 -102.167 -8.33301 -144.5 -25s-77.833 -40.334 -106.5 -71.001s-50.5 -67.167 -65.5 -109.5
s-22.5 -89.166 -22.5 -140.499z" />
    <glyph glyph-name="gcommaaccent" unicode="&#x123;" horiz-adv-x="537" 
d="M231 541h60l50 152h-45zM457 472l-55.002 -0.000976562v-100c-15.333 36.667 -37.333 64.167 -66 82.5s-61.334 27.5 -98.001 27.5c-34.667 0 -64.167 -6.66699 -88.5 -20s-44.333 -31 -60 -53s-27 -47.333 -34 -76s-10.5 -58 -10.5 -88s3.5 -59.333 10.5 -88
s18.333 -54 34 -76s35.667 -39.667 60 -53s53.833 -20 88.5 -20c36 0 68.333 9.83301 97 29.5s50.667 46.834 66 81.501v-98c0 -23.333 -2.33301 -45 -7 -65s-12.667 -37.333 -24 -52s-27 -26.334 -47 -35.001s-45 -13 -75 -13c-25.333 0 -50.666 2.83301 -75.999 8.5
s-49.666 12.834 -72.999 21.501l-9 -43c22.667 -9.33301 48.167 -16.833 76.5 -22.5s55.5 -8.5 81.5 -8.5c40.667 0 74.334 5.66699 101.001 17s48 26.5 64 45.5s27.333 41.333 34 67s10 52.5 10 80.5v450zM400.998 244.999c0 -25.333 -3.33301 -49.5 -10 -72.5
s-16.334 -43.333 -29.001 -61s-28.334 -31.834 -47.001 -42.501s-40.334 -16 -65.001 -16c-25.333 0 -47.333 4.83301 -66 14.5s-34.167 23 -46.5 40s-21.666 37.333 -27.999 61s-9.5 49.167 -9.5 76.5c0 26.667 3.16699 51.834 9.5 75.501s15.666 44.167 27.999 61.5
s27.833 31 46.5 41s40.667 15 66 15c24.667 0 46.334 -5.33301 65.001 -16s34.334 -25 47.001 -43s22.334 -38.667 29.001 -62s10 -47.333 10 -72z" />
    <glyph glyph-name="Hcircumflex" unicode="&#x124;" horiz-adv-x="662" 
d="M85 0h57v316h378v-316h58v666h-58v-299h-378v299h-57v-666zM359 863h-56l-112 -132h55l85 102l85 -102h56z" />
    <glyph glyph-name="hcircumflex" unicode="&#x125;" horiz-adv-x="530" 
d="M455 0l-0.000976562 322c0 50 -12.167 89.167 -36.5 117.5s-63.166 42.5 -116.499 42.5c-40 0 -74 -10.5 -102 -31.5s-49.333 -49.5 -64 -85.5v301h-56v-666h56v250c0 28.667 4.16699 54.334 12.5 77.001s19.5 42 33.5 58s30.167 28.167 48.5 36.5s37.5 12.5 57.5 12.5
c38 0 66 -10.333 84 -31s27 -50.334 27 -89.001v-314h56zM137.999 863h-56l-112 -132h55l85 102l85 -102h56z" />
    <glyph glyph-name="Hbar" unicode="&#x126;" horiz-adv-x="722" 
d="M608 0v507h78v38h-78v121h-58v-121h-378v121h-57v-121h-78v-38h78v-507h57v316h378v-316h58zM172 367v140h378v-140h-378z" />
    <glyph glyph-name="hbar" unicode="&#x127;" horiz-adv-x="547" 
d="M30 552h67v-552h56v250c0 28.667 4.16699 54.334 12.5 77.001s19.5 42 33.5 58s30.167 28.167 48.5 36.5s37.5 12.5 57.5 12.5c38 0 66 -10.333 84 -31s27 -50.334 27 -89.001v-314h56v322c0 50 -12.167 89.167 -36.5 117.5s-62.833 42.5 -115.5 42.5
c-40.667 0 -75 -10.5 -103 -31.5s-49.333 -49.5 -64 -85.5v187h126v37h-126v77h-56v-77h-67v-37z" />
    <glyph glyph-name="Itilde" unicode="&#x128;" horiz-adv-x="237" 
d="M90 0h57v666h-57v-666zM237 833c-4.66699 -11.333 -9.66602 -21.9971 -14.999 -31.9971s-15.333 -15 -30 -15c-8 0 -17.5 2.33301 -28.5 7s-22.5 10 -34.5 16s-24.167 11.333 -36.5 16s-24.5 7 -36.5 7c-25.333 0 -44 -7 -56 -21s-22 -32.667 -30 -56l39 -15
c6 13.333 11.667 24.666 17 33.999s15.666 14 30.999 14c10 0 20.5 -2.33301 31.5 -7s22.5 -9.83398 34.5 -15.501s24 -10.834 36 -15.501s24 -7 36 -7c21.333 0 38.333 7.33301 51 22s22.667 32.667 30 54z" />
    <glyph glyph-name="itilde" unicode="&#x129;" horiz-adv-x="215" 
d="M136 0v472h-56v-472h56zM219 655c-4.66699 -12.667 -10.167 -23.666 -16.5 -32.999s-16.833 -14 -31.5 -14c-8.66699 0 -17.667 2.33301 -27 7s-19 9.83398 -29 15.501s-20.5 10.834 -31.5 15.501s-22.5 7 -34.5 7c-23.333 0 -41.166 -7 -53.499 -21
s-22.833 -32.667 -31.5 -56l38 -15c6 13.333 12.167 24.666 18.5 33.999s16.166 14 29.499 14c10 0 20 -2.33301 30 -7s20 -9.83398 30 -15.501s20.5 -10.834 31.5 -15.501s22.5 -7 34.5 -7c21.333 0 38.5 7.33301 51.5 22s23.167 32.667 30.5 54z" />
    <glyph glyph-name="uni012A" unicode="&#x12a;" horiz-adv-x="237" 
d="M90 0h57v666h-57v-666zM265 768v45h-291v-45h291z" />
    <glyph glyph-name="imacron" unicode="&#x12b;" horiz-adv-x="215" 
d="M136 0v472h-56v-472h56zM233 574v45h-248v-45h248z" />
    <glyph glyph-name="Ibreve" unicode="&#x12c;" horiz-adv-x="237" 
d="M90 0h57v666h-57v-666zM201 845c0 -22 -7.16699 -39.501 -21.5 -52.501s-34.5 -19.5 -60.5 -19.5s-46 6.33301 -60 19s-21 30.334 -21 53.001h-46c0 -34.667 11.667 -61.667 35 -81s54 -29 92 -29s68.833 9.66699 92.5 29s35.5 46.333 35.5 81h-46z" />
    <glyph glyph-name="uni012D" unicode="&#x12d;" horiz-adv-x="215" 
d="M136 0v472h-56v-472h56zM231 658l-43 0.00195312c0 -22.667 -6.66699 -40.834 -20 -54.501s-33 -20.5 -59 -20.5s-45.667 6.66699 -59 20s-20 31.666 -20 54.999h-43c0 -35.333 11.333 -62.833 34 -82.5s52 -29.5 88 -29.5s65.333 9.83301 88 29.5s34 47.167 34 82.5z
" />
    <glyph glyph-name="Iogonek" unicode="&#x12e;" horiz-adv-x="237" 
d="M142 -142c-4.66699 -1.33301 -9.83203 -2.66699 -15.499 -4s-12.167 -2 -19.5 -2c-26.667 0 -40 13.333 -40 40c0 22.667 8.33301 42.5 25 59.5s35 33.167 55 48.5v666h-57v-666c-9.33301 -6.66699 -18.333 -13.667 -27 -21s-16.334 -15.333 -23.001 -24
s-12 -18.5 -16 -29.5s-6 -23.5 -6 -37.5c0 -22.667 6.5 -41 19.5 -55s32.167 -21 57.5 -21c20 0 37.333 3.33301 52 10z" />
    <glyph glyph-name="iogonek" unicode="&#x12f;" horiz-adv-x="215" 
d="M130 -143c-10 -4 -21.333 -5.99805 -34 -5.99805c-27.333 0 -41 13.667 -41 41c0 12.667 2.33301 24.167 7 34.5s10.834 19.666 18.501 27.999s16.334 16.166 26.001 23.499l29.5 22v472h-56v-472c-8.66699 -5.33301 -17.334 -11.5 -26.001 -18.5s-16.5 -15 -23.5 -24
s-12.833 -19.333 -17.5 -31s-7 -24.5 -7 -38.5c0 -22.667 6.66699 -41 20 -55s32.666 -21 57.999 -21c10 0 19.667 1 29 3s17 4.33301 23 7zM64 598.002c0 -11.333 3.83301 -21.5 11.5 -30.5s18.5 -13.5 32.5 -13.5c13.333 0 23.833 4.5 31.5 13.5s11.5 19.167 11.5 30.5
c0 12 -3.83301 22.333 -11.5 31s-18.167 13 -31.5 13c-14 0 -24.833 -4.33301 -32.5 -13s-11.5 -19 -11.5 -31z" />
    <glyph glyph-name="Idotaccent" unicode="&#x130;" horiz-adv-x="237" 
d="M90 0h57v666h-57v-666zM77 797c0 -11.333 3.66699 -21.5 11 -30.5s18 -13.5 32 -13.5c13.333 0 23.833 4.5 31.5 13.5s11.5 19.167 11.5 30.5s-3.83301 21.5 -11.5 30.5s-18.167 13.5 -31.5 13.5c-14 0 -24.667 -4.5 -32 -13.5s-11 -19.167 -11 -30.5z" />
    <glyph glyph-name="dotlessi" unicode="&#x131;" horiz-adv-x="215" 
d="M136 0v472h-56v-472h56z" />
    <glyph glyph-name="IJ" unicode="&#x132;" horiz-adv-x="598" 
d="M90 0h57v666h-57v-666zM249 5c14 -4.66699 30.332 -8.33301 48.999 -11s36.334 -4 53.001 -4c56.667 0 98 15.667 124 47s39 73.333 39 126v503h-57v-504c0 -38 -8.16699 -68 -24.5 -90s-45.833 -33 -88.5 -33c-14.667 0 -29.5 1 -44.5 3s-29.167 5 -42.5 9z" />
    <glyph glyph-name="ij" unicode="&#x133;" horiz-adv-x="430" 
d="M64 598c0 -11.333 3.83301 -21.5 11.5 -30.5s18.5 -13.5 32.5 -13.5c13.333 0 23.833 4.5 31.5 13.5s11.5 19.167 11.5 30.5c0 12 -3.83301 22.333 -11.5 31s-18.167 13 -31.5 13c-14 0 -24.833 -4.33301 -32.5 -13s-11.5 -19 -11.5 -31zM136 0v472h-56v-472h56zM279 598
c0 -11.333 3.83301 -21.5 11.5 -30.5s18.5 -13.5 32.5 -13.5c13.333 0 23.833 4.5 31.5 13.5s11.5 19.167 11.5 30.5c0 12 -3.83301 22.333 -11.5 31s-18.167 13 -31.5 13c-14 0 -24.833 -4.33301 -32.5 -13s-11.5 -19 -11.5 -31zM233 -141
c-7.33301 0 -15.167 0.499023 -23.5 1.49902s-16.5 2.83301 -24.5 5.5l-4 -45c8.66699 -3.33301 18.5 -5.66602 29.5 -6.99902s21.167 -2 30.5 -2c39.333 0 67.5 10.167 84.5 30.5s25.5 48.5 25.5 84.5v545h-56v-542c0 -21.333 -4.33301 -38.5 -13 -51.5
s-25 -19.5 -49 -19.5z" />
    <glyph glyph-name="Jcircumflex" unicode="&#x134;" horiz-adv-x="361" 
d="M13 5c14 -4.66699 30.332 -8.33301 48.999 -11s36.334 -4 53.001 -4c56.667 0 98 15.667 124 47s39 73.333 39 126v503h-57v-504c0 -38 -8.16699 -68 -24.5 -90s-45.833 -33 -88.5 -33c-14.667 0 -29.5 1 -44.5 3s-29.167 5 -42.5 9zM277.999 863.001h-56l-112 -132h55
l85 102l85 -102h56z" />
    <glyph glyph-name="jcircumflex" unicode="&#x135;" horiz-adv-x="215" 
d="M18 -141c24 0 40.334 6.50098 49.001 19.501s13 30.167 13 51.5v542h56v-545c0 -36 -8.5 -64.167 -25.5 -84.5s-45.167 -30.5 -84.5 -30.5c-9.33301 0 -19.5 0.666992 -30.5 2s-20.833 3.66602 -29.5 6.99902l4 45c8 -2.66699 16.167 -4.5 24.5 -5.5
s16.166 -1.5 23.499 -1.5zM239.001 541.001h-54l-77 119l-76 -119h-54l101 152h58z" />
    <glyph glyph-name="Kcommaaccent" unicode="&#x136;" horiz-adv-x="564" 
d="M85 0h57v331l328 -331h75l-347 343l343 323h-74l-325 -311v311h-57v-666zM332 -78h-61l-38 -172h43z" />
    <glyph glyph-name="kcommaaccent" unicode="&#x137;" horiz-adv-x="452" 
d="M367 0h68l-244 244l235 228h-68l-222 -217v411h-56v-666h56v233zM280 -78h-61l-38 -172h43z" />
    <glyph glyph-name="kgreenlandic" unicode="&#x138;" horiz-adv-x="450" 
d="M366 0h69l-243 244l234 228h-69l-221 -217v217h-56v-472h56v232z" />
    <glyph glyph-name="Lacute" unicode="&#x139;" horiz-adv-x="500" 
d="M250 863h-70l-88 -132h50zM85 0h391v49h-334v617h-57v-666z" />
    <glyph glyph-name="lacute" unicode="&#x13a;" horiz-adv-x="262" 
d="M240 863h-70l-88 -132h50zM231 1l-1.99805 43.999c-6.66699 -1.33301 -13.334 -2.5 -20.001 -3.5s-13.667 -1.5 -21 -1.5c-20.667 0 -34.834 5.83301 -42.501 17.5s-11.5 27.834 -11.5 48.501v560h-56v-559c0 -34 6.83301 -61.333 20.5 -82s38.5 -31 74.5 -31
c11.333 0 22 0.666992 32 2s18.667 3 26 5z" />
    <glyph glyph-name="Lcommaaccent" unicode="&#x13b;" horiz-adv-x="500" 
d="M321 -78h-61l-38 -172h43zM85 0h391v49h-334v617h-57v-666z" />
    <glyph glyph-name="lcommaaccent" unicode="&#x13c;" horiz-adv-x="262" 
d="M188 -78h-61l-38 -172h43zM231 1l-1.99805 43.999c-6.66699 -1.33301 -13.334 -2.5 -20.001 -3.5s-13.667 -1.5 -21 -1.5c-20.667 0 -34.834 5.83301 -42.501 17.5s-11.5 27.834 -11.5 48.501v560h-56v-559c0 -34 6.83301 -61.333 20.5 -82s38.5 -31 74.5 -31
c11.333 0 22 0.666992 32 2s18.667 3 26 5z" />
    <glyph glyph-name="Lcaron" unicode="&#x13d;" horiz-adv-x="500" 
d="M406 666h-65l-52 -205h42zM85 0h391v49h-334v617h-57v-666z" />
    <glyph glyph-name="lcaron" unicode="&#x13e;" horiz-adv-x="335" 
d="M342 666h-65l-52 -205h42zM231 1l-1.99805 43.999c-6.66699 -1.33301 -13.334 -2.5 -20.001 -3.5s-13.667 -1.5 -21 -1.5c-20.667 0 -34.834 5.83301 -42.501 17.5s-11.5 27.834 -11.5 48.501v560h-56v-559c0 -34 6.83301 -61.333 20.5 -82s38.5 -31 74.5 -31
c11.333 0 22 0.666992 32 2s18.667 3 26 5z" />
    <glyph glyph-name="Ldot" unicode="&#x13f;" horiz-adv-x="500" 
d="M85 0h391v49h-334v617h-57v-666zM277 296c0 -13.333 4 -24.333 12 -33s19.333 -13 34 -13s26 4.33301 34 13s12 19.667 12 33s-4 24.333 -12 33s-19.333 13 -34 13s-26 -4.33301 -34 -13s-12 -19.667 -12 -33z" />
    <glyph glyph-name="ldot" unicode="&#x140;" horiz-adv-x="325" 
d="M231 1l-1.99805 43.999c-6.66699 -1.33301 -13.334 -2.5 -20.001 -3.5s-13.667 -1.5 -21 -1.5c-20.667 0 -34.834 5.83301 -42.501 17.5s-11.5 27.834 -11.5 48.501v560h-56v-559c0 -34 6.83301 -61.333 20.5 -82s38.5 -31 74.5 -31c11.333 0 22 0.666992 32 2
s18.667 3 26 5zM222.002 281.999c0 -13.333 4 -24.333 12 -33s19.333 -13 34 -13s26 4.33301 34 13s12 19.667 12 33s-4 24.333 -12 33s-19.333 13 -34 13s-26 -4.33301 -34 -13s-12 -19.667 -12 -33z" />
    <glyph glyph-name="Lslash" unicode="&#x141;" horiz-adv-x="505" 
d="M24 276l65 31v-307h391v49h-334v286l177 86v51l-177 -86v280h-57v-308l-65 -31v-51z" />
    <glyph glyph-name="lslash" unicode="&#x142;" horiz-adv-x="263" 
d="M21 305l57.002 31.999v-230c0 -34 6.83301 -61.333 20.5 -82s38.5 -31 74.5 -31c11.333 0 22 0.666992 32 2s18.667 3 26 5l-2 44c-6.66699 -1.33301 -13.334 -2.5 -20.001 -3.5s-13.667 -1.5 -21 -1.5c-20.667 0 -34.834 5.83301 -42.501 17.5
s-11.5 27.834 -11.5 48.501v262l92 52v52l-92 -52v246h-56v-277l-57 -32v-52z" />
    <glyph glyph-name="Nacute" unicode="&#x143;" horiz-adv-x="682" 
d="M461 863h-70l-88 -132h50zM85 0h55v580l401 -580h56v666h-55v-580l-402 580h-55v-666z" />
    <glyph glyph-name="nacute" unicode="&#x144;" horiz-adv-x="530" 
d="M231 541h47l86 152h-66zM455 0l-0.000976562 322c0 50 -12.167 89.167 -36.5 117.5s-63.166 42.5 -116.499 42.5c-41.333 0 -76 -10.667 -104 -32s-49.333 -50 -64 -86v108h-54v-472h56v250c0 28.667 4.16699 54.334 12.5 77.001s19.5 42 33.5 58
s30.167 28.167 48.5 36.5s37.5 12.5 57.5 12.5c38 0 66 -10.333 84 -31s27 -50.334 27 -89.001v-314h56z" />
    <glyph glyph-name="Ncommaaccent" unicode="&#x145;" horiz-adv-x="682" 
d="M383 -78h-61l-38 -172h43zM85 0h55v580l401 -580h56v666h-55v-580l-402 580h-55v-666z" />
    <glyph glyph-name="ncommaaccent" unicode="&#x146;" horiz-adv-x="530" 
d="M309 -78h-61l-38 -172h43zM455 0l-0.000976562 322c0 50 -12.167 89.167 -36.5 117.5s-63.166 42.5 -116.499 42.5c-41.333 0 -76 -10.667 -104 -32s-49.333 -50 -64 -86v108h-54v-472h56v250c0 28.667 4.16699 54.334 12.5 77.001s19.5 42 33.5 58
s30.167 28.167 48.5 36.5s37.5 12.5 57.5 12.5c38 0 66 -10.333 84 -31s27 -50.334 27 -89.001v-314h56z" />
    <glyph glyph-name="Ncaron" unicode="&#x147;" horiz-adv-x="682" 
d="M85 0h55v580l401 -580h56v666h-55v-580l-402 580h-55v-666zM486 863h-56l-85 -101l-85 101h-55l112 -132h56z" />
    <glyph glyph-name="ncaron" unicode="&#x148;" horiz-adv-x="530" 
d="M400 693h-54l-77 -119l-76 119h-54l101 -152h58zM455 0l-0.000976562 322c0 50 -12.167 89.167 -36.5 117.5s-63.166 42.5 -116.499 42.5c-41.333 0 -76 -10.667 -104 -32s-49.333 -50 -64 -86v108h-54v-472h56v250c0 28.667 4.16699 54.334 12.5 77.001s19.5 42 33.5 58
s30.167 28.167 48.5 36.5s37.5 12.5 57.5 12.5c38 0 66 -10.333 84 -31s27 -50.334 27 -89.001v-314h56z" />
    <glyph glyph-name="napostrophe" unicode="&#x149;" horiz-adv-x="626" 
d="M137 666h-65l-52 -205h42zM551 0l-0.000976562 322c0 50 -12.167 89.167 -36.5 117.5s-63.166 42.5 -116.499 42.5c-41.333 0 -76 -10.667 -104 -32s-49.333 -50 -64 -86v108h-54v-472h56v250c0 28.667 4.16699 54.334 12.5 77.001s19.5 42 33.5 58
s30.167 28.167 48.5 36.5s37.5 12.5 57.5 12.5c38 0 66 -10.333 84 -31s27 -50.334 27 -89.001v-314h56z" />
    <glyph glyph-name="Eng" unicode="&#x14a;" horiz-adv-x="682" 
d="M597 666h-55v-576l-402 576h-55v-666h55v575l397 -565c-8 -37.333 -24.5 -68 -49.5 -92s-58.833 -44.667 -101.5 -62l19 -44c68 26 117 59.5 147 100.5s45 92.167 45 153.5v600z" />
    <glyph glyph-name="eng" unicode="&#x14b;" horiz-adv-x="530" 
d="M281 -147l23.998 -41c54.667 29.333 93.334 63.833 116.001 103.5s34 87.167 34 142.5v264c0 50 -12.167 89.167 -36.5 117.5s-63.166 42.5 -116.499 42.5c-41.333 0 -76 -10.667 -104 -32s-49.333 -50 -64 -86v108h-54v-472h56v250c0 28.667 4.16699 54.334 12.5 77.001
s19.5 42 33.5 58s30.167 28.167 48.5 36.5s37.5 12.5 57.5 12.5c38 0 66 -10.333 84 -31s27 -50.334 27 -89.001v-262c0 -46 -9.16699 -84.833 -27.5 -116.5s-48.5 -59.167 -90.5 -82.5z" />
    <glyph glyph-name="Omacron" unicode="&#x14c;" horiz-adv-x="689" 
d="M50 333c0 -47.333 6 -91.833 18 -133.5s30 -78.167 54 -109.5s54.5 -56.166 91.5 -74.499s80.5 -27.5 130.5 -27.5s93.5 9.16699 130.5 27.5s67.667 43.166 92 74.499s42.5 67.833 54.5 109.5s18 86.167 18 133.5s-6 91.833 -18 133.5s-30.167 78.167 -54.5 109.5
s-55 56.166 -92 74.499s-80.5 27.5 -130.5 27.5s-93.5 -9.16699 -130.5 -27.5s-67.5 -43.166 -91.5 -74.499s-42 -67.833 -54 -109.5s-18 -86.167 -18 -133.5zM344 37c-39.333 0 -73.833 7.33301 -103.5 22s-54.334 35 -74.001 61s-34.5 57.167 -44.5 93.5
s-15 76.166 -15 119.499s5 83.166 15 119.499s24.833 67.5 44.5 93.5s44.334 46.333 74.001 61s64.167 22 103.5 22c40 0 74.833 -7.33301 104.5 -22s54.334 -35 74.001 -61s34.334 -57.167 44.001 -93.5s14.5 -76.166 14.5 -119.499s-4.83301 -83.166 -14.5 -119.499
s-24.334 -67.5 -44.001 -93.5s-44.334 -46.333 -74.001 -61s-64.5 -22 -104.5 -22zM490 768v45h-291v-45h291z" />
    <glyph glyph-name="omacron" unicode="&#x14d;" horiz-adv-x="504" 
d="M376 574v45h-248v-45h248zM459 236c0 34.667 -4.33496 67 -13.002 97s-21.5 56 -38.5 78s-38.5 39.333 -64.5 52s-56.333 19 -91 19s-65 -6.33301 -91 -19s-47.5 -30 -64.5 -52s-29.833 -48 -38.5 -78s-13 -62.333 -13 -97s4.33301 -67 13 -97s21.667 -56 39 -78
s38.833 -39.333 64.5 -52s55.834 -19 90.501 -19s64.834 6.33301 90.501 19s47.167 30 64.5 52s30.333 48 39 78s13 62.333 13 97zM402.998 236c0 -60.667 -12.333 -109.167 -37 -145.5s-62.667 -54.5 -114 -54.5s-89.333 18.167 -114 54.5s-37 84.833 -37 145.5
s12.333 109.334 37 146.001s62.667 55 114 55s89.333 -18.333 114 -55s37 -85.334 37 -146.001z" />
    <glyph glyph-name="Obreve" unicode="&#x14e;" horiz-adv-x="689" 
d="M50 333c0 -47.333 6 -91.833 18 -133.5s30 -78.167 54 -109.5s54.5 -56.166 91.5 -74.499s80.5 -27.5 130.5 -27.5s93.5 9.16699 130.5 27.5s67.667 43.166 92 74.499s42.5 67.833 54.5 109.5s18 86.167 18 133.5s-6 91.833 -18 133.5s-30.167 78.167 -54.5 109.5
s-55 56.166 -92 74.499s-80.5 27.5 -130.5 27.5s-93.5 -9.16699 -130.5 -27.5s-67.5 -43.166 -91.5 -74.499s-42 -67.833 -54 -109.5s-18 -86.167 -18 -133.5zM344 37c-39.333 0 -73.833 7.33301 -103.5 22s-54.334 35 -74.001 61s-34.5 57.167 -44.5 93.5
s-15 76.166 -15 119.499s5 83.166 15 119.499s24.833 67.5 44.5 93.5s44.334 46.333 74.001 61s64.167 22 103.5 22c40 0 74.833 -7.33301 104.5 -22s54.334 -35 74.001 -61s34.334 -57.167 44.001 -93.5s14.5 -76.166 14.5 -119.499s-4.83301 -83.166 -14.5 -119.499
s-24.334 -67.5 -44.001 -93.5s-44.334 -46.333 -74.001 -61s-64.5 -22 -104.5 -22zM426 845c0 -22 -7.16699 -39.501 -21.5 -52.501s-34.5 -19.5 -60.5 -19.5s-46 6.33301 -60 19s-21 30.334 -21 53.001h-46c0 -34.667 11.667 -61.667 35 -81s54 -29 92 -29
s68.833 9.66699 92.5 29s35.5 46.333 35.5 81h-46z" />
    <glyph glyph-name="obreve" unicode="&#x14f;" horiz-adv-x="504" 
d="M459 236c0 34.667 -4.33496 67 -13.002 97s-21.5 56 -38.5 78s-38.5 39.333 -64.5 52s-56.333 19 -91 19s-65 -6.33301 -91 -19s-47.5 -30 -64.5 -52s-29.833 -48 -38.5 -78s-13 -62.333 -13 -97s4.33301 -67 13 -97s21.667 -56 39 -78s38.833 -39.333 64.5 -52
s55.834 -19 90.501 -19s64.834 6.33301 90.501 19s47.167 30 64.5 52s30.333 48 39 78s13 62.333 13 97zM402.998 236c0 -60.667 -12.333 -109.167 -37 -145.5s-62.667 -54.5 -114 -54.5s-89.333 18.167 -114 54.5s-37 84.833 -37 145.5s12.333 109.334 37 146.001
s62.667 55 114 55s89.333 -18.333 114 -55s37 -85.334 37 -146.001zM372.998 658l-43 0.00195312c0 -22.667 -6.66699 -40.834 -20 -54.501s-33 -20.5 -59 -20.5s-45.667 6.66699 -59 20s-20 31.666 -20 54.999h-43c0 -35.333 11.333 -62.833 34 -82.5s52 -29.5 88 -29.5
s65.333 9.83301 88 29.5s34 47.167 34 82.5z" />
    <glyph glyph-name="Ohungarumlaut" unicode="&#x150;" horiz-adv-x="689" 
d="M546 863h-64l-67 -132h49zM359 863h-62l-64 -132h47zM50 333c0 -47.333 6 -91.833 18 -133.5s30 -78.167 54 -109.5s54.5 -56.166 91.5 -74.499s80.5 -27.5 130.5 -27.5s93.5 9.16699 130.5 27.5s67.667 43.166 92 74.499s42.5 67.833 54.5 109.5s18 86.167 18 133.5
s-6 91.833 -18 133.5s-30.167 78.167 -54.5 109.5s-55 56.166 -92 74.499s-80.5 27.5 -130.5 27.5s-93.5 -9.16699 -130.5 -27.5s-67.5 -43.166 -91.5 -74.499s-42 -67.833 -54 -109.5s-18 -86.167 -18 -133.5zM344 37c-39.333 0 -73.833 7.33301 -103.5 22
s-54.334 35 -74.001 61s-34.5 57.167 -44.5 93.5s-15 76.166 -15 119.499s5 83.166 15 119.499s24.833 67.5 44.5 93.5s44.334 46.333 74.001 61s64.167 22 103.5 22c40 0 74.833 -7.33301 104.5 -22s54.334 -35 74.001 -61s34.334 -57.167 44.001 -93.5
s14.5 -76.166 14.5 -119.499s-4.83301 -83.166 -14.5 -119.499s-24.334 -67.5 -44.001 -93.5s-44.334 -46.333 -74.001 -61s-64.5 -22 -104.5 -22z" />
    <glyph glyph-name="ohungarumlaut" unicode="&#x151;" horiz-adv-x="504" 
d="M443 693h-61l-61 -152h46zM269 693h-60l-58 -152h46zM459 236c0 34.667 -4.33496 67 -13.002 97s-21.5 56 -38.5 78s-38.5 39.333 -64.5 52s-56.333 19 -91 19s-65 -6.33301 -91 -19s-47.5 -30 -64.5 -52s-29.833 -48 -38.5 -78s-13 -62.333 -13 -97s4.33301 -67 13 -97
s21.667 -56 39 -78s38.833 -39.333 64.5 -52s55.834 -19 90.501 -19s64.834 6.33301 90.501 19s47.167 30 64.5 52s30.333 48 39 78s13 62.333 13 97zM402.998 236c0 -60.667 -12.333 -109.167 -37 -145.5s-62.667 -54.5 -114 -54.5s-89.333 18.167 -114 54.5
s-37 84.833 -37 145.5s12.333 109.334 37 146.001s62.667 55 114 55s89.333 -18.333 114 -55s37 -85.334 37 -146.001z" />
    <glyph glyph-name="OE" unicode="&#x152;" horiz-adv-x="1002" 
d="M385 678c-58 0 -108 -8.33105 -150 -24.998s-76.667 -40 -104 -70s-47.666 -66.167 -60.999 -108.5s-20 -89.5 -20 -141.5s6.66699 -99.167 20 -141.5s33.666 -78.5 60.999 -108.5s62 -53.333 104 -70s92 -25 150 -25c24.667 0 49.834 1.16699 75.501 3.5
s48.834 5.16602 69.501 8.49902h415v49h-357v272h333v49h-333v247h357v49h-415c-20.667 3.33301 -43.834 6.16602 -69.501 8.49902s-50.834 3.5 -75.501 3.5zM530 49.002c-24.667 -4 -48.499 -7 -71.499 -9s-47.167 -3 -72.5 -3c-48 0 -89.5 7 -124.5 21s-64 34 -87 60
s-40 57.167 -51 93.5s-16.5 76.833 -16.5 121.5c0 44 5.5 84.167 16.5 120.5s28 67.5 51 93.5s51.833 46.167 86.5 60.5s76 21.5 124 21.5c25.333 0 49.666 -1 72.999 -3s47.333 -5 72 -9v-568z" />
    <glyph glyph-name="oe" unicode="&#x153;" horiz-adv-x="833" 
d="M793 220l-0.00292969 44c0 30 -3.16699 58.333 -9.5 85s-16.666 49.834 -30.999 69.501s-33 35.167 -56 46.5s-51.167 17 -84.5 17c-46 0 -84.333 -10.333 -115 -31s-53 -50.334 -67 -89.001c-16 38 -38.667 67.5 -68 88.5s-66 31.5 -110 31.5
c-34.667 0 -65 -6.33301 -91 -19s-47.5 -30 -64.5 -52s-29.833 -48 -38.5 -78s-13 -62.333 -13 -97s4.33301 -67 13 -97s21.667 -56 39 -78s38.833 -39.333 64.5 -52s55.834 -19 90.501 -19c44 0 81 11 111 33s52.333 51 67 87c6 -16.667 14.667 -32.167 26 -46.5
s25.333 -27 42 -38s35.834 -19.667 57.501 -26s45.167 -9.5 70.5 -9.5c32 0 62 3.33301 90 10s51.667 14.667 71 24l-8 39c-20.667 -8 -43.5 -15 -68.5 -21s-51.167 -9 -78.5 -9c-31.333 0 -57.666 4.33301 -78.999 13s-39 21.167 -53 37.5s-24.333 36 -31 59
s-10.334 48.833 -11.001 77.5h335zM402.997 236c0 -60.667 -12.333 -109.167 -37 -145.5s-62.667 -54.5 -114 -54.5s-89.333 18.167 -114 54.5s-37 84.833 -37 145.5s12.333 109.334 37 146.001s62.667 55 114 55s89.333 -18.333 114 -55s37 -85.334 37 -146.001z
M611.997 442c24 0 44.167 -4.33301 60.5 -13s29.5 -20.5 39.5 -35.5s17.167 -32.833 21.5 -53.5s6.5 -42.667 6.5 -66v-13h-281c6 120.667 57 181 153 181z" />
    <glyph glyph-name="Racute" unicode="&#x154;" horiz-adv-x="632" 
d="M554 479c0 26 -4.16699 50.499 -12.5 73.499s-21 42.833 -38 59.5s-38.5 29.834 -64.5 39.501s-56.333 14.5 -91 14.5h-263v-666h57v290h190l191 -290h65l-195 294c25.333 4.66699 48 12.667 68 24s36.833 25.333 50.5 42s24.167 35.167 31.5 55.5s11 41.5 11 63.5z
M496 478.999c0 -42 -13.333 -76.167 -40 -102.5s-64.667 -39.5 -114 -39.5h-200v282h200c50 0 88.167 -12.333 114.5 -37s39.5 -59 39.5 -103zM403 862.999h-70l-88 -132h50z" />
    <glyph glyph-name="racute" unicode="&#x155;" horiz-adv-x="325" 
d="M157 541h47l86 152h-66zM324 424l0.000976562 48.999c-12 3.33301 -26.333 5 -43 5c-20.667 0 -39 -3.16699 -55 -9.5s-29.833 -14.833 -41.5 -25.5s-21.5 -23.334 -29.5 -38.001s-14.333 -30 -19 -46v113h-56v-472h57v249c0 22.667 3 44.834 9 66.501
s15.167 40.667 27.5 57s27.666 29.5 45.999 39.5s39.833 15 64.5 15c7.33301 0 14 -0.166992 20 -0.5s12.667 -1.16602 20 -2.49902z" />
    <glyph glyph-name="Rcommaaccent" unicode="&#x156;" horiz-adv-x="632" 
d="M358 -78h-61l-38 -172h43zM554 479c0 26 -4.16699 50.499 -12.5 73.499s-21 42.833 -38 59.5s-38.5 29.834 -64.5 39.501s-56.333 14.5 -91 14.5h-263v-666h57v290h190l191 -290h65l-195 294c25.333 4.66699 48 12.667 68 24s36.833 25.333 50.5 42
s24.167 35.167 31.5 55.5s11 41.5 11 63.5zM496 478.999c0 -42 -13.333 -76.167 -40 -102.5s-64.667 -39.5 -114 -39.5h-200v282h200c50 0 88.167 -12.333 114.5 -37s39.5 -59 39.5 -103z" />
    <glyph glyph-name="rcommaaccent" unicode="&#x157;" horiz-adv-x="325" 
d="M141 -78h-61l-38 -172h43zM324 424l0.000976562 48.999c-12 3.33301 -26.333 5 -43 5c-20.667 0 -39 -3.16699 -55 -9.5s-29.833 -14.833 -41.5 -25.5s-21.5 -23.334 -29.5 -38.001s-14.333 -30 -19 -46v113h-56v-472h57v249c0 22.667 3 44.834 9 66.501
s15.167 40.667 27.5 57s27.666 29.5 45.999 39.5s39.833 15 64.5 15c7.33301 0 14 -0.166992 20 -0.5s12.667 -1.16602 20 -2.49902z" />
    <glyph glyph-name="Rcaron" unicode="&#x158;" horiz-adv-x="632" 
d="M554 479c0 26 -4.16699 50.499 -12.5 73.499s-21 42.833 -38 59.5s-38.5 29.834 -64.5 39.501s-56.333 14.5 -91 14.5h-263v-666h57v290h190l191 -290h65l-195 294c25.333 4.66699 48 12.667 68 24s36.833 25.333 50.5 42s24.167 35.167 31.5 55.5s11 41.5 11 63.5z
M496 478.999c0 -42 -13.333 -76.167 -40 -102.5s-64.667 -39.5 -114 -39.5h-200v282h200c50 0 88.167 -12.333 114.5 -37s39.5 -59 39.5 -103zM427 862.999h-56l-85 -101l-85 101h-55l112 -132h56z" />
    <glyph glyph-name="rcaron" unicode="&#x159;" horiz-adv-x="325" 
d="M331 693h-54l-77 -119l-76 119h-54l101 -152h58zM324 424l0.000976562 48.999c-12 3.33301 -26.333 5 -43 5c-20.667 0 -39 -3.16699 -55 -9.5s-29.833 -14.833 -41.5 -25.5s-21.5 -23.334 -29.5 -38.001s-14.333 -30 -19 -46v113h-56v-472h57v249
c0 22.667 3 44.834 9 66.501s15.167 40.667 27.5 57s27.666 29.5 45.999 39.5s39.833 15 64.5 15c7.33301 0 14 -0.166992 20 -0.5s12.667 -1.16602 20 -2.49902z" />
    <glyph glyph-name="Sacute" unicode="&#x15a;" horiz-adv-x="551" 
d="M510 167c0 29.333 -5.50195 54.3301 -16.502 74.9971s-26.333 38.334 -46 53.001s-43.5 27.167 -71.5 37.5s-59 20.5 -93 30.5c-30 8.66699 -56.333 17.334 -79 26.001s-41.334 18.334 -56.001 29.001s-25.667 23.167 -33 37.5s-11 31.5 -11 51.5
c0 46 15.333 78.167 46 96.5s74.334 27.5 131.001 27.5c35.333 0 69.333 -4 102 -12s63.334 -18.333 92.001 -31l11 47c-26.667 12.667 -57.167 23 -91.5 31s-72.166 12 -113.499 12c-74 0 -131.5 -14.167 -172.5 -42.5s-61.5 -72.166 -61.5 -131.499
c0 -44.667 16.333 -82.167 49 -112.5s88 -55.5 166 -75.5c32 -8 60 -16.333 84 -25s43.833 -18.667 59.5 -30s27.5 -24.833 35.5 -40.5s12 -34.834 12 -57.501c0 -21.333 -4.33301 -40 -13 -56s-20.667 -29.333 -36 -40s-33.666 -18.667 -54.999 -24s-44.666 -8 -69.999 -8
c-36.667 0 -73.834 4.66699 -111.501 14s-72.5 21 -104.5 35l-14 -47c34 -14 70.833 -25.667 110.5 -35s79.5 -14 119.5 -14c71.333 0 127.666 15.667 168.999 47s62 75.333 62 132zM391.998 862.997h-70l-88 -132h50z" />
    <glyph glyph-name="sacute" unicode="&#x15b;" horiz-adv-x="415" 
d="M165 541h47l86 152h-66zM379 126c0 20.667 -3.66797 38.168 -11.001 52.501s-18 26.666 -32 36.999s-30.833 19.333 -50.5 27s-41.5 15.167 -65.5 22.5c-20.667 6 -38.667 11.667 -54 17s-28.166 11.333 -38.499 18s-18 14.667 -23 24s-7.5 21 -7.5 35
c0 29.333 10 50 30 62s48 18 84 18c25.333 0 49.833 -2.66699 73.5 -8s45.167 -12.333 64.5 -21l11 43c-19.333 8.66699 -41.5 15.667 -66.5 21s-52.5 8 -82.5 8c-54 0 -95.667 -10.5 -125 -31.5s-44 -53.5 -44 -97.5c0 -19.333 3.16699 -35.833 9.5 -49.5
s16.333 -25.834 30 -36.501s30.667 -20 51 -28s44.5 -16 72.5 -24c41.333 -11.333 71.5 -23.5 90.5 -36.5s28.5 -32.5 28.5 -58.5c0 -28 -9.5 -49.5 -28.5 -64.5s-47.167 -22.5 -84.5 -22.5c-26.667 0 -53 3.16699 -79 9.5s-51 14.833 -75 25.5l-14 -42
c27.333 -11.333 55.5 -20.166 84.5 -26.499s56.833 -9.5 83.5 -9.5c54 0 95.5 11.833 124.5 35.5s43.5 57.167 43.5 100.5z" />
    <glyph glyph-name="Scircumflex" unicode="&#x15c;" horiz-adv-x="551" 
d="M510 167c0 29.333 -5.50195 54.3301 -16.502 74.9971s-26.333 38.334 -46 53.001s-43.5 27.167 -71.5 37.5s-59 20.5 -93 30.5c-30 8.66699 -56.333 17.334 -79 26.001s-41.334 18.334 -56.001 29.001s-25.667 23.167 -33 37.5s-11 31.5 -11 51.5
c0 46 15.333 78.167 46 96.5s74.334 27.5 131.001 27.5c35.333 0 69.333 -4 102 -12s63.334 -18.333 92.001 -31l11 47c-26.667 12.667 -57.167 23 -91.5 31s-72.166 12 -113.499 12c-74 0 -131.5 -14.167 -172.5 -42.5s-61.5 -72.166 -61.5 -131.499
c0 -44.667 16.333 -82.167 49 -112.5s88 -55.5 166 -75.5c32 -8 60 -16.333 84 -25s43.833 -18.667 59.5 -30s27.5 -24.833 35.5 -40.5s12 -34.834 12 -57.501c0 -21.333 -4.33301 -40 -13 -56s-20.667 -29.333 -36 -40s-33.666 -18.667 -54.999 -24s-44.666 -8 -69.999 -8
c-36.667 0 -73.834 4.66699 -111.501 14s-72.5 21 -104.5 35l-14 -47c34 -14 70.833 -25.667 110.5 -35s79.5 -14 119.5 -14c71.333 0 127.666 15.667 168.999 47s62 75.333 62 132zM305.998 862.997h-56l-112 -132h55l85 102l85 -102h56z" />
    <glyph glyph-name="scircumflex" unicode="&#x15d;" horiz-adv-x="415" 
d="M237 693h-58l-101 -152h54l76 119l77 -119h54zM379 126c0 20.667 -3.66797 38.168 -11.001 52.501s-18 26.666 -32 36.999s-30.833 19.333 -50.5 27s-41.5 15.167 -65.5 22.5c-20.667 6 -38.667 11.667 -54 17s-28.166 11.333 -38.499 18s-18 14.667 -23 24
s-7.5 21 -7.5 35c0 29.333 10 50 30 62s48 18 84 18c25.333 0 49.833 -2.66699 73.5 -8s45.167 -12.333 64.5 -21l11 43c-19.333 8.66699 -41.5 15.667 -66.5 21s-52.5 8 -82.5 8c-54 0 -95.667 -10.5 -125 -31.5s-44 -53.5 -44 -97.5c0 -19.333 3.16699 -35.833 9.5 -49.5
s16.333 -25.834 30 -36.501s30.667 -20 51 -28s44.5 -16 72.5 -24c41.333 -11.333 71.5 -23.5 90.5 -36.5s28.5 -32.5 28.5 -58.5c0 -28 -9.5 -49.5 -28.5 -64.5s-47.167 -22.5 -84.5 -22.5c-26.667 0 -53 3.16699 -79 9.5s-51 14.833 -75 25.5l-14 -42
c27.333 -11.333 55.5 -20.166 84.5 -26.499s56.833 -9.5 83.5 -9.5c54 0 95.5 11.833 124.5 35.5s43.5 57.167 43.5 100.5z" />
    <glyph glyph-name="Scedilla" unicode="&#x15e;" horiz-adv-x="551" 
d="M370 -110c0 20.667 -8.33398 35.498 -25.001 44.498s-37.334 14.833 -62.001 17.5l7 36c68.667 2 122.5 18.667 161.5 50s58.5 74.333 58.5 129c0 30 -5.5 55.167 -16.5 75.5s-26.333 38 -46 53s-43.5 27.667 -71.5 38s-59 20.5 -93 30.5
c-30 8.66699 -56.333 17.167 -79 25.5s-41.334 17.833 -56.001 28.5s-25.667 23.167 -33 37.5s-11 31.5 -11 51.5c0 46 15.333 78.167 46 96.5s74.334 27.5 131.001 27.5c35.333 0 69.333 -4 102 -12s63.334 -18.333 92.001 -31l11 47c-26.667 12.667 -57.167 23 -91.5 31
s-72.166 12 -113.499 12c-74 0 -131.5 -14.167 -172.5 -42.5s-61.5 -72.166 -61.5 -131.499c0 -44.667 16.333 -82.334 49 -113.001s88 -56 166 -76c32 -8 60 -16.333 84 -25s43.833 -18.667 59.5 -30s27.5 -24.666 35.5 -39.999s12 -34.333 12 -57
c0 -21.333 -4.33301 -40 -13 -56s-20.667 -29.333 -36 -40s-33.666 -18.667 -54.999 -24s-44.666 -8 -69.999 -8c-36.667 0 -73.834 4.66699 -111.501 14s-72.5 21 -104.5 35l-14 -47c30 -12.667 62.5 -23.334 97.5 -32.001s70.5 -14 106.5 -16l-17 -65l31 -4
c10 -1.33301 19 -3.33301 27 -6s14.333 -6.16699 19 -10.5s7 -10.166 7 -17.499s-2.5 -13.166 -7.5 -17.499s-11.5 -7.83301 -19.5 -10.5s-17.333 -4.66699 -28 -6s-21.667 -2.33301 -33 -3l3 -37c18.667 0.666992 36.167 2.66699 52.5 6s30.666 8 42.999 14
s22 13.667 29 23s10.5 21 10.5 35z" />
    <glyph glyph-name="Scedilla" unicode="&#xf6c1;" horiz-adv-x="551" 
d="M370 -110c0 20.667 -8.33398 35.498 -25.001 44.498s-37.334 14.833 -62.001 17.5l7 36c68.667 2 122.5 18.667 161.5 50s58.5 74.333 58.5 129c0 30 -5.5 55.167 -16.5 75.5s-26.333 38 -46 53s-43.5 27.667 -71.5 38s-59 20.5 -93 30.5
c-30 8.66699 -56.333 17.167 -79 25.5s-41.334 17.833 -56.001 28.5s-25.667 23.167 -33 37.5s-11 31.5 -11 51.5c0 46 15.333 78.167 46 96.5s74.334 27.5 131.001 27.5c35.333 0 69.333 -4 102 -12s63.334 -18.333 92.001 -31l11 47c-26.667 12.667 -57.167 23 -91.5 31
s-72.166 12 -113.499 12c-74 0 -131.5 -14.167 -172.5 -42.5s-61.5 -72.166 -61.5 -131.499c0 -44.667 16.333 -82.334 49 -113.001s88 -56 166 -76c32 -8 60 -16.333 84 -25s43.833 -18.667 59.5 -30s27.5 -24.666 35.5 -39.999s12 -34.333 12 -57
c0 -21.333 -4.33301 -40 -13 -56s-20.667 -29.333 -36 -40s-33.666 -18.667 -54.999 -24s-44.666 -8 -69.999 -8c-36.667 0 -73.834 4.66699 -111.501 14s-72.5 21 -104.5 35l-14 -47c30 -12.667 62.5 -23.334 97.5 -32.001s70.5 -14 106.5 -16l-17 -65l31 -4
c10 -1.33301 19 -3.33301 27 -6s14.333 -6.16699 19 -10.5s7 -10.166 7 -17.499s-2.5 -13.166 -7.5 -17.499s-11.5 -7.83301 -19.5 -10.5s-17.333 -4.66699 -28 -6s-21.667 -2.33301 -33 -3l3 -37c18.667 0.666992 36.167 2.66699 52.5 6s30.666 8 42.999 14
s22 13.667 29 23s10.5 21 10.5 35z" />
    <glyph glyph-name="scedilla" unicode="&#x15f;" horiz-adv-x="415" 
d="M300 -110c0 20.667 -8.33301 35.5 -25 44.5s-37.334 14.833 -62.001 17.5l8 38c50.667 1.33301 89.667 13.833 117 37.5s41 56.5 41 98.5c0 20.667 -3.66699 38.167 -11 52.5s-18 26.666 -32 36.999s-30.833 19.333 -50.5 27s-41.5 15.167 -65.5 22.5
c-20.667 6 -38.667 11.667 -54 17s-28.166 11.333 -38.499 18s-18 14.667 -23 24s-7.5 21 -7.5 35c0 29.333 10 50 30 62s48 18 84 18c25.333 0 49.833 -2.66699 73.5 -8s45.167 -12.333 64.5 -21l11 43c-19.333 8.66699 -41.5 15.667 -66.5 21s-52.5 8 -82.5 8
c-54 0 -95.667 -10.5 -125 -31.5s-44 -53.5 -44 -97.5c0 -19.333 3.16699 -35.833 9.5 -49.5s16.333 -25.834 30 -36.501s30.667 -20 51 -28s44.5 -16 72.5 -24c41.333 -11.333 71.5 -23.5 90.5 -36.5s28.5 -32.5 28.5 -58.5c0 -28 -9.5 -49.5 -28.5 -64.5
s-47.167 -22.5 -84.5 -22.5c-26.667 0 -53 3.16699 -79 9.5s-51 14.833 -75 25.5l-14 -42c22.667 -9.33301 45.834 -17 69.501 -23s47.167 -10 70.5 -12l-17 -67l31 -4c10 -1.33301 19 -3.33301 27 -6s14.333 -6.16699 19 -10.5s7 -10.166 7 -17.499
s-2.5 -13.166 -7.5 -17.499s-11.5 -7.83301 -19.5 -10.5s-17.333 -4.66699 -28 -6s-21.667 -2.33301 -33 -3l3 -37c18.667 0.666992 36.167 2.66699 52.5 6s30.666 8 42.999 14s22 13.667 29 23s10.5 21 10.5 35z" />
    <glyph glyph-name="scedilla" unicode="&#xf6c2;" horiz-adv-x="415" 
d="M300 -110c0 20.667 -8.33301 35.5 -25 44.5s-37.334 14.833 -62.001 17.5l8 38c50.667 1.33301 89.667 13.833 117 37.5s41 56.5 41 98.5c0 20.667 -3.66699 38.167 -11 52.5s-18 26.666 -32 36.999s-30.833 19.333 -50.5 27s-41.5 15.167 -65.5 22.5
c-20.667 6 -38.667 11.667 -54 17s-28.166 11.333 -38.499 18s-18 14.667 -23 24s-7.5 21 -7.5 35c0 29.333 10 50 30 62s48 18 84 18c25.333 0 49.833 -2.66699 73.5 -8s45.167 -12.333 64.5 -21l11 43c-19.333 8.66699 -41.5 15.667 -66.5 21s-52.5 8 -82.5 8
c-54 0 -95.667 -10.5 -125 -31.5s-44 -53.5 -44 -97.5c0 -19.333 3.16699 -35.833 9.5 -49.5s16.333 -25.834 30 -36.501s30.667 -20 51 -28s44.5 -16 72.5 -24c41.333 -11.333 71.5 -23.5 90.5 -36.5s28.5 -32.5 28.5 -58.5c0 -28 -9.5 -49.5 -28.5 -64.5
s-47.167 -22.5 -84.5 -22.5c-26.667 0 -53 3.16699 -79 9.5s-51 14.833 -75 25.5l-14 -42c22.667 -9.33301 45.834 -17 69.501 -23s47.167 -10 70.5 -12l-17 -67l31 -4c10 -1.33301 19 -3.33301 27 -6s14.333 -6.16699 19 -10.5s7 -10.166 7 -17.499
s-2.5 -13.166 -7.5 -17.499s-11.5 -7.83301 -19.5 -10.5s-17.333 -4.66699 -28 -6s-21.667 -2.33301 -33 -3l3 -37c18.667 0.666992 36.167 2.66699 52.5 6s30.666 8 42.999 14s22 13.667 29 23s10.5 21 10.5 35z" />
    <glyph glyph-name="Scaron" unicode="&#x160;" horiz-adv-x="551" 
d="M510 167c0 29.333 -5.50195 54.3301 -16.502 74.9971s-26.333 38.334 -46 53.001s-43.5 27.167 -71.5 37.5s-59 20.5 -93 30.5c-30 8.66699 -56.333 17.334 -79 26.001s-41.334 18.334 -56.001 29.001s-25.667 23.167 -33 37.5s-11 31.5 -11 51.5
c0 46 15.333 78.167 46 96.5s74.334 27.5 131.001 27.5c35.333 0 69.333 -4 102 -12s63.334 -18.333 92.001 -31l11 47c-26.667 12.667 -57.167 23 -91.5 31s-72.166 12 -113.499 12c-74 0 -131.5 -14.167 -172.5 -42.5s-61.5 -72.166 -61.5 -131.499
c0 -44.667 16.333 -82.167 49 -112.5s88 -55.5 166 -75.5c32 -8 60 -16.333 84 -25s43.833 -18.667 59.5 -30s27.5 -24.833 35.5 -40.5s12 -34.834 12 -57.501c0 -21.333 -4.33301 -40 -13 -56s-20.667 -29.333 -36 -40s-33.666 -18.667 -54.999 -24s-44.666 -8 -69.999 -8
c-36.667 0 -73.834 4.66699 -111.501 14s-72.5 21 -104.5 35l-14 -47c34 -14 70.833 -25.667 110.5 -35s79.5 -14 119.5 -14c71.333 0 127.666 15.667 168.999 47s62 75.333 62 132zM417.998 862.997h-56l-85 -101l-85 101h-55l112 -132h56z" />
    <glyph glyph-name="scaron" unicode="&#x161;" horiz-adv-x="415" 
d="M336 693h-54l-77 -119l-76 119h-54l101 -152h58zM379 126c0 20.667 -3.66797 38.168 -11.001 52.501s-18 26.666 -32 36.999s-30.833 19.333 -50.5 27s-41.5 15.167 -65.5 22.5c-20.667 6 -38.667 11.667 -54 17s-28.166 11.333 -38.499 18s-18 14.667 -23 24
s-7.5 21 -7.5 35c0 29.333 10 50 30 62s48 18 84 18c25.333 0 49.833 -2.66699 73.5 -8s45.167 -12.333 64.5 -21l11 43c-19.333 8.66699 -41.5 15.667 -66.5 21s-52.5 8 -82.5 8c-54 0 -95.667 -10.5 -125 -31.5s-44 -53.5 -44 -97.5c0 -19.333 3.16699 -35.833 9.5 -49.5
s16.333 -25.834 30 -36.501s30.667 -20 51 -28s44.5 -16 72.5 -24c41.333 -11.333 71.5 -23.5 90.5 -36.5s28.5 -32.5 28.5 -58.5c0 -28 -9.5 -49.5 -28.5 -64.5s-47.167 -22.5 -84.5 -22.5c-26.667 0 -53 3.16699 -79 9.5s-51 14.833 -75 25.5l-14 -42
c27.333 -11.333 55.5 -20.166 84.5 -26.499s56.833 -9.5 83.5 -9.5c54 0 95.5 11.833 124.5 35.5s43.5 57.167 43.5 100.5z" />
    <glyph glyph-name="Tcommaaccent" unicode="&#x162;" horiz-adv-x="516" 
d="M290 -78h-61l-38 -172h43zM495 617v49h-475v-49h209v-617h58v617h208z" />
    <glyph glyph-name="Tcommaaccent" unicode="&#x21a;" horiz-adv-x="516" 
d="M290 -78h-61l-38 -172h43zM495 617v49h-475v-49h209v-617h58v617h208z" />
    <glyph glyph-name="tcommaaccent" unicode="&#x163;" horiz-adv-x="310" 
d="M224 -78h-61l-38 -172h43zM282 3l-3.00098 44.001c-15.333 -6 -33.666 -9 -54.999 -9c-25.333 0 -42.5 5.66699 -51.5 17s-13.5 27.666 -13.5 48.999v321h121v47h-121v126h-57v-126h-68v-47h68v-324c0 -34.667 8.33301 -61.5 25 -80.5s44.667 -28.5 84 -28.5
c12 0 24.667 1 38 3s24.333 4.66699 33 8z" />
    <glyph glyph-name="tcommaaccent" unicode="&#x21b;" horiz-adv-x="310" 
d="M224 -78h-61l-38 -172h43zM282 3l-3.00098 44.001c-15.333 -6 -33.666 -9 -54.999 -9c-25.333 0 -42.5 5.66699 -51.5 17s-13.5 27.666 -13.5 48.999v321h121v47h-121v126h-57v-126h-68v-47h68v-324c0 -34.667 8.33301 -61.5 25 -80.5s44.667 -28.5 84 -28.5
c12 0 24.667 1 38 3s24.333 4.66699 33 8z" />
    <glyph glyph-name="Tcaron" unicode="&#x164;" horiz-adv-x="516" 
d="M495 617v49h-475v-49h209v-617h58v617h208zM399 863h-56l-85 -101l-85 101h-55l112 -132h56z" />
    <glyph glyph-name="tcaron" unicode="&#x165;" horiz-adv-x="332" 
d="M278 566h-41l43 164h61zM281 3c-8.66699 -3.33301 -19.666 -6.00098 -32.999 -8.00098s-26 -3 -38 -3c-39.333 0 -67.333 9.5 -84 28.5s-25 45.833 -25 80.5v324h-68v47h68v126h57v-126h121v-47h-121v-321c0 -21.333 4.5 -37.666 13.5 -48.999s26.167 -17 51.5 -17
c21.333 0 39.666 3 54.999 9z" />
    <glyph glyph-name="Tbar" unicode="&#x166;" horiz-adv-x="516" 
d="M422 288v45h-135v284h208v49h-475v-49h209v-284h-135v-45h135v-288h58v288h135z" />
    <glyph glyph-name="tbar" unicode="&#x167;" horiz-adv-x="309" 
d="M32 227h69v-126c0 -34.667 8.16699 -61.5 24.5 -80.5s44.5 -28.5 84.5 -28.5c11.333 0 24 1.16699 38 3.5s24.667 4.83301 32 7.5l-2 43c-18 -6 -36.667 -9 -56 -9c-25.333 0 -42.5 5.83301 -51.5 17.5s-13.5 28.167 -13.5 49.5v123h103v46h-103v152h121v47h-121v126h-56
v-126h-69v-47h69v-152h-69v-46z" />
    <glyph glyph-name="Utilde" unicode="&#x168;" horiz-adv-x="668" 
d="M585 666h-58v-446c0 -56.667 -16.833 -101.334 -50.5 -134.001s-81.167 -49 -142.5 -49s-109 16.333 -143 49s-51 77.334 -51 134.001v446h-57v-440c0 -31.333 5.16699 -61.333 15.5 -90s25.833 -54 46.5 -76s46.667 -39.5 78 -52.5s68.333 -19.5 111 -19.5
s79.667 6.5 111 19.5s57.333 30.5 78 52.5s36.167 47.333 46.5 76s15.5 58.667 15.5 90v440zM452 833c-4.66699 -11.333 -9.66602 -21.9971 -14.999 -31.9971s-15.333 -15 -30 -15c-8 0 -17.5 2.33301 -28.5 7s-22.5 10 -34.5 16s-24.167 11.333 -36.5 16s-24.5 7 -36.5 7
c-25.333 0 -44 -7 -56 -21s-22 -32.667 -30 -56l39 -15c6 13.333 11.667 24.666 17 33.999s15.666 14 30.999 14c10 0 20.5 -2.33301 31.5 -7s22.5 -9.83398 34.5 -15.501s24 -10.834 36 -15.501s24 -7 36 -7c21.333 0 38.333 7.33301 51 22s22.667 32.667 30 54z" />
    <glyph glyph-name="utilde" unicode="&#x169;" horiz-adv-x="525" 
d="M75 472v-321.998c0 -49.333 11.833 -88.333 35.5 -117s61.167 -43 112.5 -43c40.667 0 75.167 10.667 103.5 32s49.833 50 64.5 86v-108h54v472h-56v-250c0 -28.667 -4 -54.334 -12 -77.001s-19 -41.834 -33 -57.501s-30.167 -27.667 -48.5 -36s-37.5 -12.5 -57.5 -12.5
c-37.333 0 -64.5 10.333 -81.5 31s-25.5 50 -25.5 88v314h-56zM379 655.002c-4.66699 -12.667 -10.167 -23.666 -16.5 -32.999s-16.833 -14 -31.5 -14c-8.66699 0 -17.667 2.33301 -27 7s-19 9.83398 -29 15.501s-20.5 10.834 -31.5 15.501s-22.5 7 -34.5 7
c-23.333 0 -41.166 -7 -53.499 -21s-22.833 -32.667 -31.5 -56l38 -15c6 13.333 12.167 24.666 18.5 33.999s16.166 14 29.499 14c10 0 20 -2.33301 30 -7s20 -9.83398 30 -15.501s20.5 -10.834 31.5 -15.501s22.5 -7 34.5 -7c21.333 0 38.5 7.33301 51.5 22
s23.167 32.667 30.5 54z" />
    <glyph glyph-name="Umacron" unicode="&#x16a;" horiz-adv-x="668" 
d="M585 666h-58v-446c0 -56.667 -16.833 -101.334 -50.5 -134.001s-81.167 -49 -142.5 -49s-109 16.333 -143 49s-51 77.334 -51 134.001v446h-57v-440c0 -31.333 5.16699 -61.333 15.5 -90s25.833 -54 46.5 -76s46.667 -39.5 78 -52.5s68.333 -19.5 111 -19.5
s79.667 6.5 111 19.5s57.333 30.5 78 52.5s36.167 47.333 46.5 76s15.5 58.667 15.5 90v440zM479 768v45h-291v-45h291z" />
    <glyph glyph-name="umacron" unicode="&#x16b;" horiz-adv-x="525" 
d="M75 472v-321.998c0 -49.333 11.833 -88.333 35.5 -117s61.167 -43 112.5 -43c40.667 0 75.167 10.667 103.5 32s49.833 50 64.5 86v-108h54v472h-56v-250c0 -28.667 -4 -54.334 -12 -77.001s-19 -41.834 -33 -57.501s-30.167 -27.667 -48.5 -36s-37.5 -12.5 -57.5 -12.5
c-37.333 0 -64.5 10.333 -81.5 31s-25.5 50 -25.5 88v314h-56zM391 574.002v45h-248v-45h248z" />
    <glyph glyph-name="Ubreve" unicode="&#x16c;" horiz-adv-x="668" 
d="M585 666h-58v-446c0 -56.667 -16.833 -101.334 -50.5 -134.001s-81.167 -49 -142.5 -49s-109 16.333 -143 49s-51 77.334 -51 134.001v446h-57v-440c0 -31.333 5.16699 -61.333 15.5 -90s25.833 -54 46.5 -76s46.667 -39.5 78 -52.5s68.333 -19.5 111 -19.5
s79.667 6.5 111 19.5s57.333 30.5 78 52.5s36.167 47.333 46.5 76s15.5 58.667 15.5 90v440zM415 845c0 -22 -7.16699 -39.501 -21.5 -52.501s-34.5 -19.5 -60.5 -19.5s-46 6.33301 -60 19s-21 30.334 -21 53.001h-46c0 -34.667 11.667 -61.667 35 -81s54 -29 92 -29
s68.833 9.66699 92.5 29s35.5 46.333 35.5 81h-46z" />
    <glyph glyph-name="ubreve" unicode="&#x16d;" horiz-adv-x="525" 
d="M75 472v-321.998c0 -49.333 11.833 -88.333 35.5 -117s61.167 -43 112.5 -43c40.667 0 75.167 10.667 103.5 32s49.833 50 64.5 86v-108h54v472h-56v-250c0 -28.667 -4 -54.334 -12 -77.001s-19 -41.834 -33 -57.501s-30.167 -27.667 -48.5 -36s-37.5 -12.5 -57.5 -12.5
c-37.333 0 -64.5 10.333 -81.5 31s-25.5 50 -25.5 88v314h-56zM392 658.002l-43 0.00195312c0 -22.667 -6.66699 -40.834 -20 -54.501s-33 -20.5 -59 -20.5s-45.667 6.66699 -59 20s-20 31.666 -20 54.999h-43c0 -35.333 11.333 -62.833 34 -82.5s52 -29.5 88 -29.5
s65.333 9.83301 88 29.5s34 47.167 34 82.5z" />
    <glyph glyph-name="Uring" unicode="&#x16e;" horiz-adv-x="668" 
d="M421 811c0 22 -7.33301 40.667 -22 56s-36.667 23 -66 23c-28.667 0 -50.167 -7.66699 -64.5 -23s-21.5 -34 -21.5 -56c0 -22.667 7.16699 -41.667 21.5 -57s35.833 -23 64.5 -23c29.333 0 51.333 7.66699 66 23s22 34.333 22 57zM280 811c0 16 4.66699 28.5 14 37.5
s22.333 13.5 39 13.5s29.834 -4.5 39.501 -13.5s14.5 -21.5 14.5 -37.5c0 -16.667 -4.83301 -29.5 -14.5 -38.5s-22.834 -13.5 -39.501 -13.5s-29.667 4.5 -39 13.5s-14 21.833 -14 38.5zM585 666h-58v-446c0 -56.667 -16.833 -101.334 -50.5 -134.001
s-81.167 -49 -142.5 -49s-109 16.333 -143 49s-51 77.334 -51 134.001v446h-57v-440c0 -31.333 5.16699 -61.333 15.5 -90s25.833 -54 46.5 -76s46.667 -39.5 78 -52.5s68.333 -19.5 111 -19.5s79.667 6.5 111 19.5s57.333 30.5 78 52.5s36.167 47.333 46.5 76
s15.5 58.667 15.5 90v440z" />
    <glyph glyph-name="uring" unicode="&#x16f;" horiz-adv-x="525" 
d="M356 620c0 22 -7.33301 40.667 -22 56s-36.667 23 -66 23c-28.667 0 -50.167 -7.66699 -64.5 -23s-21.5 -34 -21.5 -56s7.16699 -40.667 21.5 -56s35.833 -23 64.5 -23c29.333 0 51.333 7.66699 66 23s22 34 22 56zM215 620c0 16.667 4.66699 29.5 14 38.5
s22.333 13.5 39 13.5s29.834 -4.5 39.501 -13.5s14.5 -21.833 14.5 -38.5s-4.83301 -29.334 -14.5 -38.001s-22.834 -13 -39.501 -13s-29.667 4.33301 -39 13s-14 21.334 -14 38.001zM75 472v-321.998c0 -49.333 11.833 -88.333 35.5 -117s61.167 -43 112.5 -43
c40.667 0 75.167 10.667 103.5 32s49.833 50 64.5 86v-108h54v472h-56v-250c0 -28.667 -4 -54.334 -12 -77.001s-19 -41.834 -33 -57.501s-30.167 -27.667 -48.5 -36s-37.5 -12.5 -57.5 -12.5c-37.333 0 -64.5 10.333 -81.5 31s-25.5 50 -25.5 88v314h-56z" />
    <glyph glyph-name="Uhungarumlaut" unicode="&#x170;" horiz-adv-x="668" 
d="M527 863h-64l-67 -132h49zM340 863h-62l-64 -132h47zM585 666h-58v-446c0 -56.667 -16.833 -101.334 -50.5 -134.001s-81.167 -49 -142.5 -49s-109 16.333 -143 49s-51 77.334 -51 134.001v446h-57v-440c0 -31.333 5.16699 -61.333 15.5 -90s25.833 -54 46.5 -76
s46.667 -39.5 78 -52.5s68.333 -19.5 111 -19.5s79.667 6.5 111 19.5s57.333 30.5 78 52.5s36.167 47.333 46.5 76s15.5 58.667 15.5 90v440z" />
    <glyph glyph-name="uhungarumlaut" unicode="&#x171;" horiz-adv-x="525" 
d="M75 472v-321.998c0 -49.333 11.833 -88.333 35.5 -117s61.167 -43 112.5 -43c40.667 0 75.167 10.667 103.5 32s49.833 50 64.5 86v-108h54v472h-56v-250c0 -28.667 -4 -54.334 -12 -77.001s-19 -41.834 -33 -57.501s-30.167 -27.667 -48.5 -36s-37.5 -12.5 -57.5 -12.5
c-37.333 0 -64.5 10.333 -81.5 31s-25.5 50 -25.5 88v314h-56zM440 693.002h-61l-61 -152h46zM266 693.002h-60l-58 -152h46z" />
    <glyph glyph-name="Uogonek" unicode="&#x172;" horiz-adv-x="668" 
d="M585 666h-57.9961v-446c0 -56.667 -16.833 -101.334 -50.5 -134.001s-81.167 -49 -142.5 -49s-109 16.333 -143 49s-51 77.334 -51 134.001v446h-57v-440c0 -31.333 5.16699 -61.333 15.5 -90s25.833 -54 46.5 -76s46.667 -39.5 78 -52.5s68.333 -19.5 111 -19.5
c15.333 0 30 1 44 3c-21.333 -12.667 -40 -27.167 -56 -43.5s-24 -37.166 -24 -62.499c0 -22 7.16699 -39.667 21.5 -53s34.166 -20 59.499 -20c12 0 23.667 1.16699 35 3.5s20.666 5.16602 27.999 8.49902l-7 33c-12.667 -5.33301 -27.334 -8 -44.001 -8
c-30 0 -45 14 -45 42c0 14 4.5 27.333 13.5 40s20.167 24.5 33.5 35.5s28.166 21.5 44.499 31.5l45.5 29c34 22 59.5 50.167 76.5 84.5s25.5 72.5 25.5 114.5v440z" />
    <glyph glyph-name="uogonek" unicode="&#x173;" horiz-adv-x="525" 
d="M75 472l0.00390625 -321.996c0 -49.333 11.833 -88.333 35.5 -117s61.167 -43 112.5 -43c40.667 0 75.167 10.667 103.5 32s49.833 50 64.5 86v-108l-31 -19.5c-10.667 -7 -20.334 -15.167 -29.001 -24.5s-15.834 -19.833 -21.501 -31.5s-8.5 -24.834 -8.5 -39.501
c0 -22 7 -39.667 21 -53s34 -20 60 -20c12 0 23.667 1.16699 35 3.5s20.666 5.16602 27.999 8.49902l-7 35c-12.667 -5.33301 -27.334 -8 -44.001 -8c-14 0 -25 3 -33 9s-12 15.667 -12 29s3.16699 25.333 9.5 36s14.333 20.5 24 29.5s20 17.167 31 24.5l31.5 21v472h-56
v-250c0 -28.667 -4 -54.334 -12 -77.001s-19 -41.834 -33 -57.501s-30.167 -27.667 -48.5 -36s-37.5 -12.5 -57.5 -12.5c-37.333 0 -64.5 10.333 -81.5 31s-25.5 50 -25.5 88v314h-56z" />
    <glyph glyph-name="Wcircumflex" unicode="&#x174;" horiz-adv-x="837" 
d="M446 863h-56l-112 -132h55l85 102l85 -102h56zM450 666h-63l-166 -580l-155 580h-56l185 -666h53l171 612l170 -612h53l185 666h-56l-155 -580z" />
    <glyph glyph-name="wcircumflex" unicode="&#x175;" horiz-adv-x="670" 
d="M364 693h-58l-101 -152h54l76 119l77 -119h54zM365 472h-60l-125 -402l-114 402h-55l141 -472h54l130 421l128 -421h54l141 472h-55l-114 -402z" />
    <glyph glyph-name="Ycircumflex" unicode="&#x176;" horiz-adv-x="542" 
d="M523 666h-60l-192 -341l-192 341h-60l224 -391v-275h57v275zM299 863h-56l-112 -132h55l85 102l85 -102h56z" />
    <glyph glyph-name="ycircumflex" unicode="&#x177;" horiz-adv-x="413" 
d="M208 60l-140 412h-58l170 -473l-61 -177h54l231 650h-59zM244 693h-58l-101 -152h54l76 119l77 -119h54z" />
    <glyph glyph-name="Ydieresis" unicode="&#x178;" horiz-adv-x="542" 
d="M523 666h-60l-192 -341l-192 341h-60l224 -391v-275h57v275zM323 795c0 -12.667 4 -22.834 12 -30.501s18.333 -11.5 31 -11.5s23 3.83301 31 11.5s12 17.834 12 30.501c0 12 -4 22 -12 30s-18.333 12 -31 12s-23 -4 -31 -12s-12 -18 -12 -30zM135 795
c0 -12.667 3.83301 -22.834 11.5 -30.501s17.834 -11.5 30.501 -11.5c13.333 0 23.833 3.83301 31.5 11.5s11.5 17.834 11.5 30.501c0 12 -3.83301 22 -11.5 30s-18.167 12 -31.5 12c-12.667 0 -22.834 -4 -30.501 -12s-11.5 -18 -11.5 -30z" />
    <glyph glyph-name="Zacute" unicode="&#x179;" horiz-adv-x="576" 
d="M516 0v49h-398l390 567v50h-438v-49h377l-390 -567v-50h459zM404 863h-70l-88 -132h50z" />
    <glyph glyph-name="zacute" unicode="&#x17a;" horiz-adv-x="448" 
d="M195 541h47l86 152h-66zM398 0v46h-288l281 381v45h-328v-45h265l-280 -381v-46h350z" />
    <glyph glyph-name="Zdotaccent" unicode="&#x17b;" horiz-adv-x="576" 
d="M244 797c0 -11.333 3.66699 -21.5 11 -30.5s18 -13.5 32 -13.5c13.333 0 23.833 4.5 31.5 13.5s11.5 19.167 11.5 30.5s-3.83301 21.5 -11.5 30.5s-18.167 13.5 -31.5 13.5c-14 0 -24.667 -4.5 -32 -13.5s-11 -19.167 -11 -30.5zM516 0v49h-398l390 567v50h-438v-49h377
l-390 -567v-50h459z" />
    <glyph glyph-name="zdotaccent" unicode="&#x17c;" horiz-adv-x="448" 
d="M398 0v46h-288l281 381v45h-328v-45h265l-280 -381v-46h350zM186 599c0 -11.333 3.66699 -21.5 11 -30.5s18 -13.5 32 -13.5c13.333 0 23.833 4.5 31.5 13.5s11.5 19.167 11.5 30.5c0 12 -3.83301 22.333 -11.5 31s-18.167 13 -31.5 13c-14 0 -24.667 -4.33301 -32 -13
s-11 -19 -11 -31z" />
    <glyph glyph-name="Zcaron" unicode="&#x17d;" horiz-adv-x="576" 
d="M516 0v49h-398l390 567v50h-438v-49h377l-390 -567v-50h459zM433 863h-56l-85 -101l-85 101h-55l112 -132h56z" />
    <glyph glyph-name="zcaron" unicode="&#x17e;" horiz-adv-x="448" 
d="M362 693h-54l-77 -119l-76 119h-54l101 -152h58zM398 0v46h-288l281 381v45h-328v-45h265l-280 -381v-46h350z" />
    <glyph glyph-name="florin" unicode="&#x192;" horiz-adv-x="395" 
d="M159 383l-37 -426.001c-3.33301 -33.333 -11 -58.333 -23 -75s-32 -25 -60 -25c-9.33301 0 -19.333 0.833008 -30 2.5s-20.667 4.16699 -30 7.5l-7 -44c11.333 -3.33301 23.5 -6 36.5 -8s26.833 -3 41.5 -3c77.333 0 120 48.333 128 145l38 426h111v46h-108l10 105
c2.66699 33.333 10 57.833 22 73.5s32.667 23.5 62 23.5c11.333 0 22.5 -1 33.5 -3s20.833 -4.33301 29.5 -7l8 42c-9.33301 3.33301 -21 6.33301 -35 9s-28.667 4 -44 4c-43.333 0 -75.333 -11.667 -96 -35s-33 -58.666 -37 -105.999l-9 -106h-84v-46h80z" />
    <glyph glyph-name="Aringacute" unicode="&#x1fa;" horiz-adv-x="609" 
d="M392 950h-66l-42 -102h49zM392 727c0 22 -7.33203 40.667 -21.999 56s-36.334 23 -65.001 23c-29.333 0 -51.166 -7.66699 -65.499 -23s-21.5 -34 -21.5 -56c0 -17.333 4.16699 -32.333 12.5 -45s21.166 -21.334 38.499 -26.001l-246 -656h57l69 190h310l70 -190h57
l-247 656c17.333 4.66699 30.5 13.334 39.5 26.001s13.5 27.667 13.5 45zM252.001 727c0 16.667 4.66699 29.5 14 38.5s22.333 13.5 39 13.5s29.667 -4.5 39 -13.5s14 -21.833 14 -38.5c0 -15.333 -4.66699 -27.333 -14 -36s-22.333 -13 -39 -13s-29.667 4.33301 -39 13
s-14 20.667 -14 36zM305.001 620l137 -381h-275z" />
    <glyph glyph-name="aringacute" unicode="&#x1fb;" horiz-adv-x="495" 
d="M279 745h-48l43 102h66zM162 619c0 22 7.16699 40.667 21.5 56s35.833 23 64.5 23c29.333 0 51.333 -7.66699 66 -23s22 -34 22 -56s-7.33301 -40.667 -22 -56s-36.667 -23 -66 -23c-28.667 0 -50.167 7.66699 -64.5 23s-21.5 34 -21.5 56zM196 619
c0 -16 4.66699 -28.5 14 -37.5s22 -13.5 38 -13.5c16.667 0 29.834 4.5 39.501 13.5s14.5 21.5 14.5 37.5c0 16.667 -4.83301 29.5 -14.5 38.5s-22.834 13.5 -39.501 13.5c-16 0 -28.667 -4.5 -38 -13.5s-14 -21.833 -14 -38.5zM369 0v89.001
c-16.667 -32 -39.167 -56.5 -67.5 -73.5s-62.833 -25.5 -103.5 -25.5c-46 0 -82.167 12.167 -108.5 36.5s-39.5 58.166 -39.5 101.499c0 47.333 15 83 45 107s70 36 120 36h152v56c0 38 -10.5 65.5 -31.5 82.5s-52.5 25.5 -94.5 25.5c-50.667 0 -100 -10.667 -148 -32
l-10 45c47.333 22.667 102 34 164 34c58 0 101.833 -12.167 131.5 -36.5s44.5 -61.833 44.5 -112.5v-333h-54zM367 229.001l-146 0.00195312c-42 0 -71.833 -8.5 -89.5 -25.5s-26.5 -42.5 -26.5 -76.5c0 -30.667 8 -54.334 24 -71.001s43 -25 81 -25
c24 0 45.667 4.33301 65 13s35.833 20.167 49.5 34.5s24.167 30.666 31.5 48.999s11 36.833 11 55.5v46z" />
    <glyph glyph-name="AEacute" unicode="&#x1fc;" horiz-adv-x="835" 
d="M784 666h-510l-251 -666h57l70 190h309l70 -190h255v49h-219l-100 272h295v49h-313l-90 247h427v49zM305 617l137 -378h-275zM461 863h-70l-88 -132h50z" />
    <glyph glyph-name="aeacute" unicode="&#x1fd;" horiz-adv-x="802" 
d="M387 541h47l86 152h-66zM761 223l0.00488281 43.998c0 29.333 -3.16699 57 -9.5 83s-16.5 48.833 -30.5 68.5s-32.333 35.167 -55 46.5s-50.334 17 -83.001 17c-42 0 -77.333 -8.83301 -106 -26.5s-51.667 -43.834 -69 -78.501c-12 36 -32.167 62.5 -60.5 79.5
s-63.833 25.5 -106.5 25.5c-32.667 0 -61.834 -3.16699 -87.501 -9.5s-48.167 -14.166 -67.5 -23.499l10 -45c20 9.33301 41.667 16.833 65 22.5s48.333 8.5 75 8.5c44 0 77.833 -10.333 101.5 -31s35.5 -53.667 35.5 -99v-41h-162c-50 0 -89.5 -11 -118.5 -33
s-43.5 -56 -43.5 -102c0 -44 13.833 -78.167 41.5 -102.5s66.834 -36.5 117.501 -36.5c48 0 88.167 10.333 120.5 31s57.166 49.334 74.499 86.001c8 -16.667 17.667 -32.167 29 -46.5s25 -26.666 41 -36.999s34.167 -18.5 54.5 -24.5s43.166 -9 68.499 -9
c31.333 0 60.666 3.33301 87.999 10s50.666 14.667 69.999 24l-9 39c-21.333 -8 -43.833 -15 -67.5 -21s-48.5 -9 -74.5 -9c-31.333 0 -58 4.5 -80 13.5s-39.833 21.833 -53.5 38.5s-23.667 36.667 -30 60s-9.83301 49.333 -10.5 78h332zM373.005 180.998
c0 -22 -3.66504 -42.1699 -10.998 -60.5029s-17.833 -34.166 -31.5 -47.499s-30.334 -23.666 -50.001 -30.999s-41.834 -11 -66.501 -11c-37.333 0 -65.5 8.33301 -84.5 25s-28.5 40.334 -28.5 71.001c0 32 9.5 55.833 28.5 71.5s48.5 23.5 88.5 23.5h155v-41z
M582.007 441.995c23.333 0 43 -4.33203 59 -12.999s28.833 -20.334 38.5 -35.001s16.667 -32.167 21 -52.5s6.5 -41.833 6.5 -64.5v-13h-277c6 118.667 56.667 178 152 178z" />
    <glyph glyph-name="Oslashacute" unicode="&#x1fe;" horiz-adv-x="689" 
d="M460 863h-70l-88 -132h50zM50 333c0 -66.667 11.8301 -127.335 35.4971 -182.002s59.834 -96.334 108.501 -125.001l-46 -110h43l39 92c16.667 -6 34.5 -10.833 53.5 -14.5s39.167 -5.5 60.5 -5.5c50 0 93.5 9.16699 130.5 27.5s67.667 43.166 92 74.499
s42.5 67.833 54.5 109.5s18 86.167 18 133.5c0 32.667 -3 64.334 -9 95.001s-15 59.334 -27 86.001s-27 50.667 -45 72s-39 39 -63 53l47 111h-43l-39 -93c-17.333 6.66699 -35.666 11.834 -54.999 15.501s-39.666 5.5 -60.999 5.5c-50 0 -93.5 -9.16699 -130.5 -27.5
s-67.5 -43.166 -91.5 -74.499s-42 -67.833 -54 -109.5s-18 -86.167 -18 -133.5zM106.997 332.999c0 43.333 4.99902 83.167 14.999 119.5s24.833 67.5 44.5 93.5s44.334 46.333 74.001 61s64.167 22 103.5 22c36 0 68 -6 96 -18l-226 -537c-36 24 -62.833 58.5 -80.5 103.5
s-26.5 96.833 -26.5 155.5zM343.996 37c-34.667 0 -66.3311 5.66602 -94.998 16.999l226 537c36 -24.667 62.667 -59.167 80 -103.5s26 -95.833 26 -154.5c0 -43.333 -4.83301 -83.166 -14.5 -119.499s-24.334 -67.5 -44.001 -93.5s-44.334 -46.333 -74.001 -61
s-64.5 -22 -104.5 -22z" />
    <glyph glyph-name="oslashacute" unicode="&#x1ff;" horiz-adv-x="504" 
d="M213 541h47l86 152h-66zM459 236c0 47.333 -7.66797 89.668 -23.001 127.001s-39 66.666 -71 87.999l47 105h-38l-39 -89c-24 10 -51.667 15 -83 15c-34.667 0 -65 -6.33301 -91 -19s-47.5 -30 -64.5 -52s-29.833 -48 -38.5 -78s-13 -62.333 -13 -97
c0 -47.333 7.66699 -89.5 23 -126.5s38.666 -66.167 69.999 -87.5l-46 -106h37l39 90c12.667 -5.33301 25.834 -9.33301 39.501 -12s28.5 -4 44.5 -4c34.667 0 64.834 6.33301 90.501 19s47.167 30 64.5 52s30.333 48 39 78s13 62.333 13 97zM402.999 236.002
c0 -60.667 -12.333 -109.167 -37 -145.5s-62.667 -54.5 -114 -54.5c-25.333 0 -47 4.33301 -65 13l158 356c19.333 -17.333 33.833 -40.333 43.5 -69s14.5 -62 14.5 -100zM100.999 236.002c0 60.667 12.333 109.334 37 146.001s62.667 55 114 55
c12 0 23.333 -1.16699 34 -3.5s20.667 -5.5 30 -9.5l-157 -356c-19.333 17.333 -33.833 40.166 -43.5 68.499s-14.5 61.5 -14.5 99.5z" />
    <glyph glyph-name="Scommaaccent" unicode="&#x218;" horiz-adv-x="551" 
d="M510 167c0 29.333 -5.50195 54.3301 -16.502 74.9971s-26.333 38.334 -46 53.001s-43.5 27.167 -71.5 37.5s-59 20.5 -93 30.5c-30 8.66699 -56.333 17.334 -79 26.001s-41.334 18.334 -56.001 29.001s-25.667 23.167 -33 37.5s-11 31.5 -11 51.5
c0 46 15.333 78.167 46 96.5s74.334 27.5 131.001 27.5c35.333 0 69.333 -4 102 -12s63.334 -18.333 92.001 -31l11 47c-26.667 12.667 -57.167 23 -91.5 31s-72.166 12 -113.499 12c-74 0 -131.5 -14.167 -172.5 -42.5s-61.5 -72.166 -61.5 -131.499
c0 -44.667 16.333 -82.167 49 -112.5s88 -55.5 166 -75.5c32 -8 60 -16.333 84 -25s43.833 -18.667 59.5 -30s27.5 -24.833 35.5 -40.5s12 -34.834 12 -57.501c0 -21.333 -4.33301 -40 -13 -56s-20.667 -29.333 -36 -40s-33.666 -18.667 -54.999 -24s-44.666 -8 -69.999 -8
c-36.667 0 -73.834 4.66699 -111.501 14s-72.5 21 -104.5 35l-14 -47c34 -14 70.833 -25.667 110.5 -35s79.5 -14 119.5 -14c71.333 0 127.666 15.667 168.999 47s62 75.333 62 132zM320.998 -78.0029h-61l-38 -172h43z" />
    <glyph glyph-name="scommaaccent" unicode="&#x219;" horiz-adv-x="415" 
d="M379 126c0 20.667 -3.66797 38.168 -11.001 52.501s-18 26.666 -32 36.999s-30.833 19.333 -50.5 27s-41.5 15.167 -65.5 22.5c-20.667 6 -38.667 11.667 -54 17s-28.166 11.333 -38.499 18s-18 14.667 -23 24s-7.5 21 -7.5 35c0 29.333 10 50 30 62s48 18 84 18
c25.333 0 49.833 -2.66699 73.5 -8s45.167 -12.333 64.5 -21l11 43c-19.333 8.66699 -41.5 15.667 -66.5 21s-52.5 8 -82.5 8c-54 0 -95.667 -10.5 -125 -31.5s-44 -53.5 -44 -97.5c0 -19.333 3.16699 -35.833 9.5 -49.5s16.333 -25.834 30 -36.501s30.667 -20 51 -28
s44.5 -16 72.5 -24c41.333 -11.333 71.5 -23.5 90.5 -36.5s28.5 -32.5 28.5 -58.5c0 -28 -9.5 -49.5 -28.5 -64.5s-47.167 -22.5 -84.5 -22.5c-26.667 0 -53 3.16699 -79 9.5s-51 14.833 -75 25.5l-14 -42c27.333 -11.333 55.5 -20.166 84.5 -26.499s56.833 -9.5 83.5 -9.5
c54 0 95.5 11.833 124.5 35.5s43.5 57.167 43.5 100.5zM244.999 -77.999h-61l-38 -172h43z" />
    <glyph glyph-name="circumflex" unicode="&#x2c6;" horiz-adv-x="431" 
d="M244 693h-58l-101 -152h54l76 119l77 -119h54z" />
    <glyph glyph-name="caron" unicode="&#x2c7;" horiz-adv-x="431" 
d="M346 693h-54l-77 -119l-76 119h-54l101 -152h58z" />
    <glyph glyph-name="breve" unicode="&#x2d8;" horiz-adv-x="414" 
d="M329 658l-43 0.00195312c0 -22.667 -6.66699 -40.834 -20 -54.501s-33 -20.5 -59 -20.5s-45.667 6.66699 -59 20s-20 31.666 -20 54.999h-43c0 -35.333 11.333 -62.833 34 -82.5s52 -29.5 88 -29.5s65.333 9.83301 88 29.5s34 47.167 34 82.5z" />
    <glyph glyph-name="dotaccent" unicode="&#x2d9;" horiz-adv-x="256" 
d="M85 598c0 -11.333 3.66699 -21.5 11 -30.5s18 -13.5 32 -13.5c13.333 0 23.833 4.5 31.5 13.5s11.5 19.167 11.5 30.5c0 12 -3.83301 22.333 -11.5 31s-18.167 13 -31.5 13c-14 0 -24.667 -4.33301 -32 -13s-11 -19 -11 -31z" />
    <glyph glyph-name="ring" unicode="&#x2da;" horiz-adv-x="343" 
d="M259 620c0 22 -7.33301 40.667 -22 56s-36.667 23 -66 23c-28.667 0 -50.167 -7.66699 -64.5 -23s-21.5 -34 -21.5 -56s7.16699 -40.667 21.5 -56s35.833 -23 64.5 -23c29.333 0 51.333 7.66699 66 23s22 34 22 56zM118 620c0 16.667 4.66699 29.5 14 38.5
s22.333 13.5 39 13.5s29.834 -4.5 39.501 -13.5s14.5 -21.833 14.5 -38.5s-4.83301 -29.334 -14.5 -38.001s-22.834 -13 -39.501 -13s-29.667 4.33301 -39 13s-14 21.334 -14 38.001z" />
    <glyph glyph-name="ogonek" unicode="&#x2db;" horiz-adv-x="313" 
d="M222 -141c-12.667 -5.33301 -27.3301 -7.99805 -43.9971 -7.99805c-14 0 -25 3 -33 9s-12 15.667 -12 29s3.16699 25.333 9.5 36s14.333 20.5 24 29.5s20 17.167 31 24.5l31.5 21h-54l-31 -19.5c-10.667 -7 -20.334 -15.167 -29.001 -24.5s-15.834 -19.833 -21.501 -31.5
s-8.5 -24.834 -8.5 -39.501c0 -22 7 -39.667 21 -53s34 -20 60 -20c12 0 23.667 1.16699 35 3.5s20.666 5.16602 27.999 8.49902z" />
    <glyph glyph-name="tilde" unicode="&#x2dc;" horiz-adv-x="463" 
d="M340 655c-4.66699 -12.667 -10.167 -23.666 -16.5 -32.999s-16.833 -14 -31.5 -14c-8.66699 0 -17.667 2.33301 -27 7s-19 9.83398 -29 15.501s-20.5 10.834 -31.5 15.501s-22.5 7 -34.5 7c-23.333 0 -41.166 -7 -53.499 -21s-22.833 -32.667 -31.5 -56l38 -15
c6 13.333 12.167 24.666 18.5 33.999s16.166 14 29.499 14c10 0 20 -2.33301 30 -7s20 -9.83398 30 -15.501s20.5 -10.834 31.5 -15.501s22.5 -7 34.5 -7c21.333 0 38.5 7.33301 51.5 22s23.167 32.667 30.5 54z" />
    <glyph glyph-name="hungarumlaut" unicode="&#x2dd;" horiz-adv-x="464" 
d="M377 693h-61l-61 -152h46zM203 693h-60l-58 -152h46z" />
    <glyph glyph-name="uni0312" unicode="&#x312;" horiz-adv-x="283" 
d="M89 541h60l50 152h-45z" />
    <glyph glyph-name="uni0315" unicode="&#x315;" horiz-adv-x="286" 
d="M202 666h-65l-52 -205h42z" />
    <glyph glyph-name="uni0326" unicode="&#x326;" horiz-adv-x="270" 
d="M186 -78h-61l-38 -172h43z" />
    <glyph glyph-name="uni037E" unicode="&#x37e;" horiz-adv-x="241" 
d="M124 289c14.667 0 26.167 4.5 34.5 13.5s12.5 20.167 12.5 33.5s-4.16699 24.5 -12.5 33.5s-19.833 13.5 -34.5 13.5s-26.167 -4.5 -34.5 -13.5s-12.5 -20.167 -12.5 -33.5s4.16699 -24.5 12.5 -33.5s19.833 -13.5 34.5 -13.5zM86 94l-59 -228h43l83 228h-67z" />
    <glyph glyph-name="tonos" unicode="&#x384;" horiz-adv-x="281" 
d="M85 541h48l62 152h-71z" />
    <glyph glyph-name="dieresistonos" unicode="&#x385;" horiz-adv-x="453" 
d="M126 563c12 0 21.833 4 29.5 12s11.5 17.667 11.5 29s-3.83301 21 -11.5 29s-17.5 12 -29.5 12s-21.833 -4 -29.5 -12s-11.5 -17.667 -11.5 -29s3.83301 -21 11.5 -29s17.5 -12 29.5 -12zM192 554h36l49 144h-59zM326 563c12.667 0 22.667 4 30 12s11 17.667 11 29
s-3.66699 21 -11 29s-17.333 12 -30 12c-11.333 0 -21 -4 -29 -12s-12 -17.667 -12 -29s4 -21 12 -29s17.667 -12 29 -12z" />
    <glyph glyph-name="Alphatonos" unicode="&#x386;" horiz-adv-x="609" 
d="M23 0h57l69 190h310l70 -190h57l-250 666h-62zM305 620l137 -381h-275zM90 516h48l62 152h-71z" />
    <glyph glyph-name="anoteleia" unicode="&#x387;" horiz-adv-x="242" 
d="M75 273c0 -13.333 4 -24.333 12 -33s19.333 -13 34 -13s26 4.33301 34 13s12 19.667 12 33s-4 24.333 -12 33s-19.333 13 -34 13s-26 -4.33301 -34 -13s-12 -19.667 -12 -33z" />
    <glyph glyph-name="Epsilontonos" unicode="&#x388;" 
d="M85 0h415v49h-358v272h334v49h-334v247h358v49h-415v-666zM-72 516h48l62 152h-71z" />
    <glyph glyph-name="Etatonos" unicode="&#x389;" horiz-adv-x="663" 
d="M85 0h57v316h378v-316h58v666h-58v-299h-378v299h-57v-666zM-71 516h48l62 152h-71z" />
    <glyph glyph-name="Iotatonos" unicode="&#x38a;" horiz-adv-x="237" 
d="M90 0h57v666h-57v-666zM-71 516h48l62 152h-71z" />
    <glyph glyph-name="Omicrontonos" unicode="&#x38c;" horiz-adv-x="689" 
d="M50 333c0 -47.333 6 -91.833 18 -133.5s30 -78.167 54 -109.5s54.5 -56.166 91.5 -74.499s80.5 -27.5 130.5 -27.5s93.5 9.16699 130.5 27.5s67.667 43.166 92 74.499s42.5 67.833 54.5 109.5s18 86.167 18 133.5s-6 91.833 -18 133.5s-30.167 78.167 -54.5 109.5
s-55 56.166 -92 74.499s-80.5 27.5 -130.5 27.5s-93.5 -9.16699 -130.5 -27.5s-67.5 -43.166 -91.5 -74.499s-42 -67.833 -54 -109.5s-18 -86.167 -18 -133.5zM344 37c-39.333 0 -73.833 7.33301 -103.5 22s-54.334 35 -74.001 61s-34.5 57.167 -44.5 93.5
s-15 76.166 -15 119.499s5 83.166 15 119.499s24.833 67.5 44.5 93.5s44.334 46.333 74.001 61s64.167 22 103.5 22c40 0 74.833 -7.33301 104.5 -22s54.334 -35 74.001 -61s34.334 -57.167 44.001 -93.5s14.5 -76.166 14.5 -119.499s-4.83301 -83.166 -14.5 -119.499
s-24.334 -67.5 -44.001 -93.5s-44.334 -46.333 -74.001 -61s-64.5 -22 -104.5 -22zM-43 516h48l62 152h-71z" />
    <glyph glyph-name="Upsilontonos" unicode="&#x38e;" horiz-adv-x="542" 
d="M523 666h-60l-192 -341l-192 341h-60l224 -391v-275h57v275zM-122 516h48l62 152h-71z" />
    <glyph glyph-name="Omegatonos" unicode="&#x38f;" horiz-adv-x="718" 
d="M647 367c0 47.333 -7.33398 90.166 -22.001 128.499s-35.167 71 -61.5 98s-57.666 47.833 -93.999 62.5s-75.833 22 -118.5 22c-43.333 0 -83.166 -7.33301 -119.499 -22s-67.5 -35.5 -93.5 -62.5s-46.333 -59.667 -61 -98s-22 -81.166 -22 -128.499
c0 -35.333 3.83301 -68.333 11.5 -99s18.5 -59.167 32.5 -85.5s30.833 -50.833 50.5 -73.5s41.167 -43.334 64.5 -62.001h-140v-47h202v47c-56.667 44.667 -98.334 92.334 -125.001 143.001s-40 109 -40 175c0 42 6 79.5 18 112.5s28.833 60.833 50.5 83.5
s47.167 40 76.5 52s61 18 95 18s65.667 -6 95 -18s54.833 -29.333 76.5 -52s38.5 -50.5 50.5 -83.5s18 -70.5 18 -112.5c0 -66 -13.5 -124.333 -40.5 -175s-68.833 -98.334 -125.5 -143.001v-47h203v47h-141c23.333 18.667 44.833 39.334 64.5 62.001s36.5 47.167 50.5 73.5
s25 54.833 33 85.5s12 63.667 12 99zM-43.001 516h48l62 152h-71z" />
    <glyph glyph-name="iotadieresistonos" unicode="&#x390;" horiz-adv-x="263" 
d="M71 100c0 -34.667 6.83301 -61.666 20.5 -80.999s39.167 -29 76.5 -29c12.667 0 25.167 0.833008 37.5 2.5s23.5 4.16699 33.5 7.5l-2 46c-9.33301 -3.33301 -18.333 -5.5 -27 -6.5s-17.667 -1.5 -27 -1.5c-22 0 -36.333 5.66699 -43 17s-10 27.666 -10 48.999v368h-59
v-372zM17 563.001c12 0 21.833 4 29.5 12s11.5 17.667 11.5 29s-3.83301 21 -11.5 29s-17.5 12 -29.5 12s-21.833 -4 -29.5 -12s-11.5 -17.667 -11.5 -29s3.83301 -21 11.5 -29s17.5 -12 29.5 -12zM83 554.001h36l49 144h-59zM217 563.001c12.667 0 22.667 4 30 12
s11 17.667 11 29s-3.66699 21 -11 29s-17.333 12 -30 12c-11.333 0 -21 -4 -29 -12s-12 -17.667 -12 -29s4 -21 12 -29s17.667 -12 29 -12z" />
    <glyph glyph-name="Alpha" unicode="&#x391;" horiz-adv-x="609" 
d="M23 0h57l69 190h310l70 -190h57l-250 666h-62zM305 620l137 -381h-275z" />
    <glyph glyph-name="Beta" unicode="&#x392;" horiz-adv-x="596" 
d="M85 0l255.999 -0.000976562c31.333 0 60 4.33301 86 13s48.167 20.834 66.5 36.501s32.5 34.5 42.5 56.5s15 46.667 15 74c0 45.333 -13.667 81.5 -41 108.5s-62.666 44.167 -105.999 51.5c42 14 73.667 35.667 95 65s32 63 32 101c0 48 -15.5 86.667 -46.5 116
s-77.167 44 -138.5 44h-261v-666zM139.999 359.999v260h198c44 0 77.833 -11 101.5 -33s35.5 -51 35.5 -87c0 -19.333 -3.33301 -37.5 -10 -54.5s-16.5 -31.833 -29.5 -44.5s-28.833 -22.667 -47.5 -30s-40 -11 -64 -11h-184zM139.999 45.999l-0.000976562 268h187
c56.667 0 98.834 -12 126.501 -36s41.5 -56 41.5 -96c0 -39.333 -12.833 -71.833 -38.5 -97.5s-65.167 -38.5 -118.5 -38.5h-198z" />
    <glyph glyph-name="Gamma" unicode="&#x393;" horiz-adv-x="506" 
d="M85 0h57v617h336v49h-393v-666z" />
    <glyph glyph-name="uni0394" unicode="&#x394;" horiz-adv-x="622" 
d="M28 0h566v32l-252 634h-63l-251 -634v-32zM91 48l219 569l220 -569h-439z" />
    <glyph glyph-name="Epsilon" unicode="&#x395;" 
d="M85 0h415v49h-358v272h334v49h-334v247h358v49h-415v-666z" />
    <glyph glyph-name="Zeta" unicode="&#x396;" horiz-adv-x="568" 
d="M516 0v49h-398l390 567v50h-438v-49h377l-390 -567v-50h459z" />
    <glyph glyph-name="Eta" unicode="&#x397;" horiz-adv-x="663" 
d="M85 0h57v316h378v-316h58v666h-58v-299h-378v299h-57v-666z" />
    <glyph glyph-name="Theta" unicode="&#x398;" horiz-adv-x="689" 
d="M344 -12c50 0 93.5 9.16699 130.5 27.5s67.667 43.166 92 74.499s42.5 67.833 54.5 109.5s18 86.167 18 133.5s-6 91.833 -18 133.5s-30.167 78.167 -54.5 109.5s-55 56.166 -92 74.499s-80.5 27.5 -130.5 27.5s-93.5 -9.16699 -130.5 -27.5s-67.5 -43.166 -91.5 -74.499
s-42 -67.833 -54 -109.5s-18 -86.167 -18 -133.5s6 -91.833 18 -133.5s30 -78.167 54 -109.5s54.5 -56.166 91.5 -74.499s80.5 -27.5 130.5 -27.5zM344 37c-39.333 0 -73.833 7.33301 -103.5 22s-54.334 35 -74.001 61s-34.5 57.167 -44.5 93.5s-15 76.166 -15 119.499
s5 83.166 15 119.499s24.833 67.5 44.5 93.5s44.334 46.333 74.001 61s64.167 22 103.5 22c40 0 74.833 -7.33301 104.5 -22s54.334 -35 74.001 -61s34.334 -57.167 44.001 -93.5s14.5 -76.166 14.5 -119.499s-4.83301 -83.166 -14.5 -119.499s-24.334 -67.5 -44.001 -93.5
s-44.334 -46.333 -74.001 -61s-64.5 -22 -104.5 -22zM179 317h331v45h-331v-45z" />
    <glyph glyph-name="Iota" unicode="&#x399;" horiz-adv-x="237" 
d="M90 0h57v666h-57v-666z" />
    <glyph glyph-name="Kappa" unicode="&#x39a;" horiz-adv-x="564" 
d="M85 0h57v331l328 -331h75l-347 343l343 323h-74l-325 -311v311h-57v-666z" />
    <glyph glyph-name="Lambda" unicode="&#x39b;" horiz-adv-x="581" 
d="M14 0h58l218 613l218 -613h59l-244 666h-66z" />
    <glyph glyph-name="Mu" unicode="&#x39c;" horiz-adv-x="776" 
d="M83 0h54v560l220 -476h61l220 476v-560h55v666h-58l-247 -534l-247 534h-58v-666z" />
    <glyph glyph-name="Nu" unicode="&#x39d;" horiz-adv-x="682" 
d="M85 0h55v580l401 -580h56v666h-55v-580l-402 580h-55v-666z" />
    <glyph glyph-name="Xi" unicode="&#x39e;" horiz-adv-x="554" 
d="M50 -1h454v51h-454v-51zM104 313h347v50h-347v-50zM50 616h454v50h-454v-50z" />
    <glyph glyph-name="Omicron" unicode="&#x39f;" horiz-adv-x="689" 
d="M50 333c0 -47.333 6 -91.833 18 -133.5s30 -78.167 54 -109.5s54.5 -56.166 91.5 -74.499s80.5 -27.5 130.5 -27.5s93.5 9.16699 130.5 27.5s67.667 43.166 92 74.499s42.5 67.833 54.5 109.5s18 86.167 18 133.5s-6 91.833 -18 133.5s-30.167 78.167 -54.5 109.5
s-55 56.166 -92 74.499s-80.5 27.5 -130.5 27.5s-93.5 -9.16699 -130.5 -27.5s-67.5 -43.166 -91.5 -74.499s-42 -67.833 -54 -109.5s-18 -86.167 -18 -133.5zM344 37c-39.333 0 -73.833 7.33301 -103.5 22s-54.334 35 -74.001 61s-34.5 57.167 -44.5 93.5
s-15 76.166 -15 119.499s5 83.166 15 119.499s24.833 67.5 44.5 93.5s44.334 46.333 74.001 61s64.167 22 103.5 22c40 0 74.833 -7.33301 104.5 -22s54.334 -35 74.001 -61s34.334 -57.167 44.001 -93.5s14.5 -76.166 14.5 -119.499s-4.83301 -83.166 -14.5 -119.499
s-24.334 -67.5 -44.001 -93.5s-44.334 -46.333 -74.001 -61s-64.5 -22 -104.5 -22z" />
    <glyph glyph-name="Pi" unicode="&#x3a0;" horiz-adv-x="651" 
d="M85 0h57v617h367v-617h58v666h-482v-666z" />
    <glyph glyph-name="Rho" unicode="&#x3a1;" horiz-adv-x="574" 
d="M85 0l57 0.000976562v282h194c33.333 0 62.833 5.16699 88.5 15.5s47 24.333 64 42s29.833 38.167 38.5 61.5s13 47.666 13 72.999c0 26 -4.33301 50.5 -13 73.5s-21.5 43.333 -38.5 61s-38.167 31.667 -63.5 42s-55 15.5 -89 15.5h-251v-666zM142 330.001v289h188
c48.667 0 86.167 -13.167 112.5 -39.5s39.5 -61.5 39.5 -105.5s-13 -79 -39 -105s-63.333 -39 -112 -39h-189z" />
    <glyph glyph-name="Sigma" unicode="&#x3a3;" horiz-adv-x="560" 
d="M39 0h471v49h-403l213 298l-195 270h375v49h-451v-40l206 -291l-216 -300v-35z" />
    <glyph glyph-name="Tau" unicode="&#x3a4;" horiz-adv-x="516" 
d="M495 617v49h-475v-49h209v-617h58v617h208z" />
    <glyph glyph-name="Upsilon" unicode="&#x3a5;" horiz-adv-x="542" 
d="M523 666h-60l-192 -341l-192 341h-60l224 -391v-275h57v275z" />
    <glyph glyph-name="Phi" unicode="&#x3a6;" horiz-adv-x="745" 
d="M344 0l58.001 -0.000976562v72c46.667 2 88.167 9.83301 124.5 23.5s67 32.334 92 56.001s44 51.334 57 83.001s19.5 66.5 19.5 104.5c0 37.333 -6.66699 72 -20 104s-32.5 59.833 -57.5 83.5s-55.667 42.667 -92 57s-77.5 22.5 -123.5 24.5v59h-58v-60
c-46.667 -2 -88.167 -10.167 -124.5 -24.5s-67 -33.333 -92 -57s-44.167 -51.334 -57.5 -83.001s-20 -66.5 -20 -104.5c0 -37.333 6.5 -71.833 19.5 -103.5s32 -59.167 57 -82.5s55.667 -42 92 -56s78.166 -22 125.499 -24v-72zM344.001 119.999
c-37.333 0.666992 -70.666 6.33398 -99.999 17.001s-54.333 25.667 -75 45s-36.334 42.166 -47.001 68.499s-16 55.5 -16 87.5c0 31.333 5.5 60.5 16.5 87.5s26.833 50.333 47.5 70s45.667 35.167 75 46.5s62.333 17.333 99 18v-440zM402.001 119.999l-0.000976562 440.005
c36.667 -0.666992 69.5 -6.83398 98.5 -18.501s53.667 -27.334 74 -47.001s36 -42.834 47 -69.501s16.5 -55.334 16.5 -86.001c0 -32 -5.5 -61.333 -16.5 -88s-26.667 -49.667 -47 -69s-45.166 -34.333 -74.499 -45s-62 -16.334 -98 -17.001z" />
    <glyph glyph-name="Chi" unicode="&#x3a7;" horiz-adv-x="584" 
d="M545 666h-61l-193 -288l-192 288h-60l222 -329l-228 -337h61l198 295l198 -295h60l-229 336z" />
    <glyph glyph-name="Psi" unicode="&#x3a8;" horiz-adv-x="741" 
d="M342 0h58.002v147c45.333 0.666992 84.333 6.83398 117 18.501s59.5 28.334 80.5 50.001s36.5 48 46.5 79s15 65.833 15 104.5v267h-58v-266c0 -28 -3.33301 -54.5 -10 -79.5s-17.667 -47 -33 -66s-36 -34 -62 -45s-58 -16.5 -96 -16.5v473h-58v-472
c-38.667 0 -70.834 5.5 -96.501 16.5s-46.334 26 -62.001 45s-26.667 40.833 -33 65.5s-9.5 51 -9.5 79v266h-58v-267c0 -38.667 4.83301 -73.334 14.5 -104.001s25 -57 46 -79s47.833 -38.833 80.5 -50.5s72 -17.834 118 -18.501v-147z" />
    <glyph glyph-name="uni03A9" unicode="&#x3a9;" horiz-adv-x="701" 
d="M647 367c0 47.333 -7.33398 90.166 -22.001 128.499s-35.167 71 -61.5 98s-57.666 47.833 -93.999 62.5s-75.833 22 -118.5 22c-43.333 0 -83.166 -7.33301 -119.499 -22s-67.5 -35.5 -93.5 -62.5s-46.333 -59.667 -61 -98s-22 -81.166 -22 -128.499
c0 -35.333 3.83301 -68.333 11.5 -99s18.5 -59.167 32.5 -85.5s30.833 -50.833 50.5 -73.5s41.167 -43.334 64.5 -62.001h-140v-47h202v47c-56.667 44.667 -98.334 92.334 -125.001 143.001s-40 109 -40 175c0 42 6 79.5 18 112.5s28.833 60.833 50.5 83.5
s47.167 40 76.5 52s61 18 95 18s65.667 -6 95 -18s54.833 -29.333 76.5 -52s38.5 -50.5 50.5 -83.5s18 -70.5 18 -112.5c0 -66 -13.5 -124.333 -40.5 -175s-68.833 -98.334 -125.5 -143.001v-47h203v47h-141c23.333 18.667 44.833 39.334 64.5 62.001s36.5 47.167 50.5 73.5
s25 54.833 33 85.5s12 63.667 12 99z" />
    <glyph glyph-name="Iotadieresis" unicode="&#x3aa;" horiz-adv-x="237" 
d="M90 0h57v666h-57v-666zM171 795c0 -12.667 4 -22.834 12 -30.501s18.333 -11.5 31 -11.5s23 3.83301 31 11.5s12 17.834 12 30.501c0 12 -4 22 -12 30s-18.333 12 -31 12s-23 -4 -31 -12s-12 -18 -12 -30zM-17 795c0 -12.667 3.83301 -22.834 11.5 -30.501
s17.834 -11.5 30.501 -11.5c13.333 0 23.833 3.83301 31.5 11.5s11.5 17.834 11.5 30.501c0 12 -3.83301 22 -11.5 30s-18.167 12 -31.5 12c-12.667 0 -22.834 -4 -30.501 -12s-11.5 -18 -11.5 -30z" />
    <glyph glyph-name="Upsilondieresis" unicode="&#x3ab;" horiz-adv-x="542" 
d="M523 666h-60l-192 -341l-192 341h-60l224 -391v-275h57v275zM323 795c0 -12.667 4 -22.834 12 -30.501s18.333 -11.5 31 -11.5s23 3.83301 31 11.5s12 17.834 12 30.501c0 12 -4 22 -12 30s-18.333 12 -31 12s-23 -4 -31 -12s-12 -18 -12 -30zM135 795
c0 -12.667 3.83301 -22.834 11.5 -30.501s17.834 -11.5 30.501 -11.5c13.333 0 23.833 3.83301 31.5 11.5s11.5 17.834 11.5 30.501c0 12 -3.83301 22 -11.5 30s-18.167 12 -31.5 12c-12.667 0 -22.834 -4 -30.501 -12s-11.5 -18 -11.5 -30z" />
    <glyph glyph-name="alphatonos" unicode="&#x3ac;" horiz-adv-x="567" 
d="M232 -10c16 0 32.0039 2.16504 48.0039 6.49805s31.167 11.666 45.5 21.999s27.666 24.166 39.999 41.499s23.5 39 33.5 65c5.33301 -46 16.666 -79.333 33.999 -100s43.333 -31 78 -31c7.33301 0 14.5 0.666992 21.5 2l21.5 4c0 1.33301 -0.166992 4.16602 -0.5 8.49902
s-0.666016 9 -0.999023 14l-1 14.5c-0.333008 4.66699 -0.5 7.66699 -0.5 9c-12.667 -2.66699 -23 -4 -31 -4c-27.333 0 -46.666 12.167 -57.999 36.5s-17 61.5 -17 111.5c0 26.667 1.33301 53.334 4 80.001s6.5 52.167 11.5 76.5s10.5 47 16.5 68s12.667 38.833 20 53.5
l-56 14c-2 -5.33301 -4.66699 -13.166 -8 -23.499s-6.66602 -21.666 -9.99902 -33.999s-6.33301 -25.166 -9 -38.499s-4.33398 -26 -5.00098 -38c-14 45.333 -35.667 79 -65 101s-63 33 -101 33c-24 0 -47.833 -4.66699 -71.5 -14s-44.834 -24.166 -63.501 -44.499
s-33.834 -46.5 -45.501 -78.5s-17.5 -70.667 -17.5 -116c0 -43.333 5.5 -80 16.5 -110s25.167 -54.667 42.5 -74s37.166 -33.333 59.499 -42s45.166 -13 68.499 -13zM242.004 37.998c-19.333 0 -37.334 4.16992 -54.001 12.5029s-31.167 20.5 -43.5 36.5s-22 36 -29 60
s-10.5 51.667 -10.5 83c0 69.333 13.5 120.666 40.5 153.999s61.167 50 102.5 50c26.667 0 49.167 -5.83301 67.5 -17.5s33 -26.834 44 -45.501s19 -39.334 24 -62.001s7.5 -45 7.5 -67c0 -16 -2.33301 -35.5 -7 -58.5s-12.667 -45.333 -24 -67
s-26.666 -40.167 -45.999 -55.5s-43.333 -23 -72 -23zM238.003 541.001h48l62 152h-71z" />
    <glyph glyph-name="epsilontonos" unicode="&#x3ad;" horiz-adv-x="451" 
d="M241 -10c30 0 61.334 3.5 94.001 10.5s61 16.167 85 27.5l-10 44c-22 -9.33301 -46.667 -17.166 -74 -23.499s-57 -9.5 -89 -9.5c-45.333 0 -79.166 8.5 -101.499 25.5s-33.5 39.167 -33.5 66.5c0 11.333 1.83301 22.5 5.5 33.5s10.167 20.833 19.5 29.5
s21.666 15.667 36.999 21s35 8 59 8h89v48h-83c-13.333 0 -26.333 1.5 -39 4.5s-24.334 7.66699 -35.001 14s-19.167 14.333 -25.5 24s-9.5 21.5 -9.5 35.5c0 10.667 2.16699 21 6.5 31s11.333 19 21 27s22.667 14.5 39 19.5s36.5 7.5 60.5 7.5c28.667 0 52.667 -2 72 -6
s39 -9.66699 59 -17l11 44c-19.333 9.33301 -40.833 16.166 -64.5 20.499s-51.167 6.5 -82.5 6.5c-22 0 -43.667 -2.5 -65 -7.5s-40.666 -13 -57.999 -24s-31.333 -24.833 -42 -41.5s-16 -36.334 -16 -59.001c0 -25.333 6.83301 -46 20.5 -62s36.5 -29 68.5 -39
c-18.667 -4 -34.667 -10 -48 -18s-24.5 -17.667 -33.5 -29s-15.667 -23.5 -20 -36.5s-6.5 -26.5 -6.5 -40.5c0 -45.333 17.167 -79.166 51.5 -101.499s80.166 -33.5 137.499 -33.5zM225.001 541h48l62 152h-71z" />
    <glyph glyph-name="etatonos" unicode="&#x3ae;" horiz-adv-x="541" 
d="M92 0l59 0.00195312v271c0 18.667 3.5 37.5 10.5 56.5s17 36.167 30 51.5s28.833 28 47.5 38s39.334 15 62.001 15c15.333 0 29.666 -2 42.999 -6s25 -10.833 35 -20.5s18 -22.834 24 -39.501s9 -37.667 9 -63v-481h59v498c0 58 -14 99.5 -42 124.5
s-66.333 37.5 -115 37.5c-77.333 0 -135.333 -41.667 -174 -125c-1.33301 11.333 -3.66602 23.166 -6.99902 35.499s-7 24.166 -11 35.499s-8.5 21.833 -13.5 31.5s-10.167 17.5 -15.5 23.5l-46 -29c15.333 -27.333 26.666 -55.666 33.999 -84.999s11 -62 11 -98v-271z
M213 541.002h48l62 152h-71z" />
    <glyph glyph-name="iotatonos" unicode="&#x3af;" horiz-adv-x="263" 
d="M71 100c0 -34.667 6.83301 -61.666 20.5 -80.999s39.167 -29 76.5 -29c12.667 0 25.167 0.833008 37.5 2.5s23.5 4.16699 33.5 7.5l-2 46c-9.33301 -3.33301 -18.333 -5.5 -27 -6.5s-17.667 -1.5 -27 -1.5c-22 0 -36.333 5.66699 -43 17s-10 27.666 -10 48.999v368h-59
v-372zM79 541.001h48l62 152h-71z" />
    </font>
</defs>
</svg>
